<?xml version="1.0" encoding="utf-8" standalone="no"?>
<!DOCTYPE svg PUBLIC "-//W3C//DTD SVG 1.1//EN"
  "http://www.w3.org/Graphics/SVG/1.1/DTD/svg11.dtd">
<svg xmlns:xlink="http://www.w3.org/1999/xlink" width="2145.016346pt" height="713.959375pt" viewBox="0 0 2145.016346 713.959375" xmlns="http://www.w3.org/2000/svg" version="1.1">
 <metadata>
  <rdf:RDF xmlns:dc="http://purl.org/dc/elements/1.1/" xmlns:cc="http://creativecommons.org/ns#" xmlns:rdf="http://www.w3.org/1999/02/22-rdf-syntax-ns#">
   <cc:Work>
    <dc:type rdf:resource="http://purl.org/dc/dcmitype/StillImage"/>
    <dc:date>2024-11-05T13:47:53.961562</dc:date>
    <dc:format>image/svg+xml</dc:format>
    <dc:creator>
     <cc:Agent>
      <dc:title>Matplotlib v3.9.2, https://matplotlib.org/</dc:title>
     </cc:Agent>
    </dc:creator>
   </cc:Work>
  </rdf:RDF>
 </metadata>
 <defs>
  <style type="text/css">*{stroke-linejoin: round; stroke-linecap: butt}</style>
 </defs>
 <g id="figure_1">
  <g id="patch_1">
   <path d="M 0 713.959375 
L 2145.016346 713.959375 
L 2145.016346 0 
L 0 0 
L 0 713.959375 
z
" style="fill: none"/>
  </g>
  <g id="axes_1">
   <g id="patch_2">
    <path d="M 102.246875 615.830625 
L 1706.714273 615.830625 
L 1706.714273 54.430625 
L 102.246875 54.430625 
L 102.246875 615.830625 
z
" style="fill: none"/>
   </g>
   <g id="patch_3">
    <path d="M 175.177211 615.830625 
L 251.945986 615.830625 
L 251.945986 615.830625 
L 175.177211 615.830625 
z
" clip-path="url(#p56b781880e)" style="fill: #f08080; fill-opacity: 0.5; stroke: #000000; stroke-linejoin: miter"/>
   </g>
   <g id="patch_4">
    <path d="M 251.945986 615.830625 
L 328.714761 615.830625 
L 328.714761 615.830625 
L 251.945986 615.830625 
z
" clip-path="url(#p56b781880e)" style="fill: #f08080; fill-opacity: 0.5; stroke: #000000; stroke-linejoin: miter"/>
   </g>
   <g id="patch_5">
    <path d="M 328.714761 615.830625 
L 405.483536 615.830625 
L 405.483536 615.830625 
L 328.714761 615.830625 
z
" clip-path="url(#p56b781880e)" style="fill: #f08080; fill-opacity: 0.5; stroke: #000000; stroke-linejoin: miter"/>
   </g>
   <g id="patch_6">
    <path d="M 405.483536 615.830625 
L 482.252311 615.830625 
L 482.252311 615.830625 
L 405.483536 615.830625 
z
" clip-path="url(#p56b781880e)" style="fill: #f08080; fill-opacity: 0.5; stroke: #000000; stroke-linejoin: miter"/>
   </g>
   <g id="patch_7">
    <path d="M 482.252311 615.830625 
L 559.021086 615.830625 
L 559.021086 601.983014 
L 482.252311 601.983014 
z
" clip-path="url(#p56b781880e)" style="fill: #f08080; fill-opacity: 0.5; stroke: #000000; stroke-linejoin: miter"/>
   </g>
   <g id="patch_8">
    <path d="M 559.021086 615.830625 
L 635.789861 615.830625 
L 635.789861 615.830625 
L 559.021086 615.830625 
z
" clip-path="url(#p56b781880e)" style="fill: #f08080; fill-opacity: 0.5; stroke: #000000; stroke-linejoin: miter"/>
   </g>
   <g id="patch_9">
    <path d="M 635.789861 615.830625 
L 712.558636 615.830625 
L 712.558636 574.287792 
L 635.789861 574.287792 
z
" clip-path="url(#p56b781880e)" style="fill: #f08080; fill-opacity: 0.5; stroke: #000000; stroke-linejoin: miter"/>
   </g>
   <g id="patch_10">
    <path d="M 712.558636 615.830625 
L 789.327411 615.830625 
L 789.327411 588.135403 
L 712.558636 588.135403 
z
" clip-path="url(#p56b781880e)" style="fill: #f08080; fill-opacity: 0.5; stroke: #000000; stroke-linejoin: miter"/>
   </g>
   <g id="patch_11">
    <path d="M 789.327411 615.830625 
L 866.096186 615.830625 
L 866.096186 588.135403 
L 789.327411 588.135403 
z
" clip-path="url(#p56b781880e)" style="fill: #f08080; fill-opacity: 0.5; stroke: #000000; stroke-linejoin: miter"/>
   </g>
   <g id="patch_12">
    <path d="M 866.096186 615.830625 
L 942.864961 615.830625 
L 942.864961 574.287792 
L 866.096186 574.287792 
z
" clip-path="url(#p56b781880e)" style="fill: #f08080; fill-opacity: 0.5; stroke: #000000; stroke-linejoin: miter"/>
   </g>
   <g id="patch_13">
    <path d="M 942.864961 615.830625 
L 1019.633736 615.830625 
L 1019.633736 574.287792 
L 942.864961 574.287792 
z
" clip-path="url(#p56b781880e)" style="fill: #f08080; fill-opacity: 0.5; stroke: #000000; stroke-linejoin: miter"/>
   </g>
   <g id="patch_14">
    <path d="M 1019.633736 615.830625 
L 1096.402512 615.830625 
L 1096.402512 560.440181 
L 1019.633736 560.440181 
z
" clip-path="url(#p56b781880e)" style="fill: #f08080; fill-opacity: 0.5; stroke: #000000; stroke-linejoin: miter"/>
   </g>
   <g id="patch_15">
    <path d="M 1096.402512 615.830625 
L 1173.171287 615.830625 
L 1173.171287 518.897348 
L 1096.402512 518.897348 
z
" clip-path="url(#p56b781880e)" style="fill: #f08080; fill-opacity: 0.5; stroke: #000000; stroke-linejoin: miter"/>
   </g>
   <g id="patch_16">
    <path d="M 1173.171287 615.830625 
L 1249.940062 615.830625 
L 1249.940062 532.744959 
L 1173.171287 532.744959 
z
" clip-path="url(#p56b781880e)" style="fill: #f08080; fill-opacity: 0.5; stroke: #000000; stroke-linejoin: miter"/>
   </g>
   <g id="patch_17">
    <path d="M 1249.940062 615.830625 
L 1326.708837 615.830625 
L 1326.708837 532.744959 
L 1249.940062 532.744959 
z
" clip-path="url(#p56b781880e)" style="fill: #f08080; fill-opacity: 0.5; stroke: #000000; stroke-linejoin: miter"/>
   </g>
   <g id="patch_18">
    <path d="M 1326.708837 615.830625 
L 1403.477612 615.830625 
L 1403.477612 532.744959 
L 1326.708837 532.744959 
z
" clip-path="url(#p56b781880e)" style="fill: #f08080; fill-opacity: 0.5; stroke: #000000; stroke-linejoin: miter"/>
   </g>
   <g id="patch_19">
    <path d="M 1403.477612 615.830625 
L 1480.246387 615.830625 
L 1480.246387 449.659293 
L 1403.477612 449.659293 
z
" clip-path="url(#p56b781880e)" style="fill: #f08080; fill-opacity: 0.5; stroke: #000000; stroke-linejoin: miter"/>
   </g>
   <g id="patch_20">
    <path d="M 1480.246387 615.830625 
L 1557.015162 615.830625 
L 1557.015162 394.268849 
L 1480.246387 394.268849 
z
" clip-path="url(#p56b781880e)" style="fill: #f08080; fill-opacity: 0.5; stroke: #000000; stroke-linejoin: miter"/>
   </g>
   <g id="patch_21">
    <path d="M 1557.015162 615.830625 
L 1633.783937 615.830625 
L 1633.783937 408.11646 
L 1557.015162 408.11646 
z
" clip-path="url(#p56b781880e)" style="fill: #f08080; fill-opacity: 0.5; stroke: #000000; stroke-linejoin: miter"/>
   </g>
   <g id="patch_22">
    <path d="M 175.177211 615.830625 
L 251.945986 615.830625 
L 251.945986 601.983014 
L 175.177211 601.983014 
z
" clip-path="url(#p56b781880e)" style="fill: #87cefa; fill-opacity: 0.5; stroke: #000000; stroke-linejoin: miter"/>
   </g>
   <g id="patch_23">
    <path d="M 251.945986 615.830625 
L 328.714761 615.830625 
L 328.714761 615.830625 
L 251.945986 615.830625 
z
" clip-path="url(#p56b781880e)" style="fill: #87cefa; fill-opacity: 0.5; stroke: #000000; stroke-linejoin: miter"/>
   </g>
   <g id="patch_24">
    <path d="M 328.714761 615.830625 
L 405.483536 615.830625 
L 405.483536 601.983014 
L 328.714761 601.983014 
z
" clip-path="url(#p56b781880e)" style="fill: #87cefa; fill-opacity: 0.5; stroke: #000000; stroke-linejoin: miter"/>
   </g>
   <g id="patch_25">
    <path d="M 405.483536 615.830625 
L 482.252311 615.830625 
L 482.252311 615.830625 
L 405.483536 615.830625 
z
" clip-path="url(#p56b781880e)" style="fill: #87cefa; fill-opacity: 0.5; stroke: #000000; stroke-linejoin: miter"/>
   </g>
   <g id="patch_26">
    <path d="M 482.252311 615.830625 
L 559.021086 615.830625 
L 559.021086 601.983014 
L 482.252311 601.983014 
z
" clip-path="url(#p56b781880e)" style="fill: #87cefa; fill-opacity: 0.5; stroke: #000000; stroke-linejoin: miter"/>
   </g>
   <g id="patch_27">
    <path d="M 559.021086 615.830625 
L 635.789861 615.830625 
L 635.789861 601.983014 
L 559.021086 601.983014 
z
" clip-path="url(#p56b781880e)" style="fill: #87cefa; fill-opacity: 0.5; stroke: #000000; stroke-linejoin: miter"/>
   </g>
   <g id="patch_28">
    <path d="M 635.789861 615.830625 
L 712.558636 615.830625 
L 712.558636 615.830625 
L 635.789861 615.830625 
z
" clip-path="url(#p56b781880e)" style="fill: #87cefa; fill-opacity: 0.5; stroke: #000000; stroke-linejoin: miter"/>
   </g>
   <g id="patch_29">
    <path d="M 712.558636 615.830625 
L 789.327411 615.830625 
L 789.327411 601.983014 
L 712.558636 601.983014 
z
" clip-path="url(#p56b781880e)" style="fill: #87cefa; fill-opacity: 0.5; stroke: #000000; stroke-linejoin: miter"/>
   </g>
   <g id="patch_30">
    <path d="M 789.327411 615.830625 
L 866.096186 615.830625 
L 866.096186 615.830625 
L 789.327411 615.830625 
z
" clip-path="url(#p56b781880e)" style="fill: #87cefa; fill-opacity: 0.5; stroke: #000000; stroke-linejoin: miter"/>
   </g>
   <g id="patch_31">
    <path d="M 866.096186 615.830625 
L 942.864961 615.830625 
L 942.864961 601.983014 
L 866.096186 601.983014 
z
" clip-path="url(#p56b781880e)" style="fill: #87cefa; fill-opacity: 0.5; stroke: #000000; stroke-linejoin: miter"/>
   </g>
   <g id="patch_32">
    <path d="M 942.864961 615.830625 
L 1019.633736 615.830625 
L 1019.633736 588.135403 
L 942.864961 588.135403 
z
" clip-path="url(#p56b781880e)" style="fill: #87cefa; fill-opacity: 0.5; stroke: #000000; stroke-linejoin: miter"/>
   </g>
   <g id="patch_33">
    <path d="M 1019.633736 615.830625 
L 1096.402512 615.830625 
L 1096.402512 532.744959 
L 1019.633736 532.744959 
z
" clip-path="url(#p56b781880e)" style="fill: #87cefa; fill-opacity: 0.5; stroke: #000000; stroke-linejoin: miter"/>
   </g>
   <g id="patch_34">
    <path d="M 1096.402512 615.830625 
L 1173.171287 615.830625 
L 1173.171287 574.287792 
L 1096.402512 574.287792 
z
" clip-path="url(#p56b781880e)" style="fill: #87cefa; fill-opacity: 0.5; stroke: #000000; stroke-linejoin: miter"/>
   </g>
   <g id="patch_35">
    <path d="M 1173.171287 615.830625 
L 1249.940062 615.830625 
L 1249.940062 601.983014 
L 1173.171287 601.983014 
z
" clip-path="url(#p56b781880e)" style="fill: #87cefa; fill-opacity: 0.5; stroke: #000000; stroke-linejoin: miter"/>
   </g>
   <g id="patch_36">
    <path d="M 1249.940062 615.830625 
L 1326.708837 615.830625 
L 1326.708837 546.59257 
L 1249.940062 546.59257 
z
" clip-path="url(#p56b781880e)" style="fill: #87cefa; fill-opacity: 0.5; stroke: #000000; stroke-linejoin: miter"/>
   </g>
   <g id="patch_37">
    <path d="M 1326.708837 615.830625 
L 1403.477612 615.830625 
L 1403.477612 505.049737 
L 1326.708837 505.049737 
z
" clip-path="url(#p56b781880e)" style="fill: #87cefa; fill-opacity: 0.5; stroke: #000000; stroke-linejoin: miter"/>
   </g>
   <g id="patch_38">
    <path d="M 1403.477612 615.830625 
L 1480.246387 615.830625 
L 1480.246387 477.354515 
L 1403.477612 477.354515 
z
" clip-path="url(#p56b781880e)" style="fill: #87cefa; fill-opacity: 0.5; stroke: #000000; stroke-linejoin: miter"/>
   </g>
   <g id="patch_39">
    <path d="M 1480.246387 615.830625 
L 1557.015162 615.830625 
L 1557.015162 311.183183 
L 1480.246387 311.183183 
z
" clip-path="url(#p56b781880e)" style="fill: #87cefa; fill-opacity: 0.5; stroke: #000000; stroke-linejoin: miter"/>
   </g>
   <g id="patch_40">
    <path d="M 1557.015162 615.830625 
L 1633.783937 615.830625 
L 1633.783937 255.792739 
L 1557.015162 255.792739 
z
" clip-path="url(#p56b781880e)" style="fill: #87cefa; fill-opacity: 0.5; stroke: #000000; stroke-linejoin: miter"/>
   </g>
   <g id="patch_41">
    <path d="M 175.177211 615.830625 
L 251.945986 615.830625 
L 251.945986 615.830625 
L 175.177211 615.830625 
z
" clip-path="url(#p56b781880e)" style="fill: #90ee90; fill-opacity: 0.5; stroke: #000000; stroke-linejoin: miter"/>
   </g>
   <g id="patch_42">
    <path d="M 251.945986 615.830625 
L 328.714761 615.830625 
L 328.714761 615.830625 
L 251.945986 615.830625 
z
" clip-path="url(#p56b781880e)" style="fill: #90ee90; fill-opacity: 0.5; stroke: #000000; stroke-linejoin: miter"/>
   </g>
   <g id="patch_43">
    <path d="M 328.714761 615.830625 
L 405.483536 615.830625 
L 405.483536 615.830625 
L 328.714761 615.830625 
z
" clip-path="url(#p56b781880e)" style="fill: #90ee90; fill-opacity: 0.5; stroke: #000000; stroke-linejoin: miter"/>
   </g>
   <g id="patch_44">
    <path d="M 405.483536 615.830625 
L 482.252311 615.830625 
L 482.252311 615.830625 
L 405.483536 615.830625 
z
" clip-path="url(#p56b781880e)" style="fill: #90ee90; fill-opacity: 0.5; stroke: #000000; stroke-linejoin: miter"/>
   </g>
   <g id="patch_45">
    <path d="M 482.252311 615.830625 
L 559.021086 615.830625 
L 559.021086 615.830625 
L 482.252311 615.830625 
z
" clip-path="url(#p56b781880e)" style="fill: #90ee90; fill-opacity: 0.5; stroke: #000000; stroke-linejoin: miter"/>
   </g>
   <g id="patch_46">
    <path d="M 559.021086 615.830625 
L 635.789861 615.830625 
L 635.789861 615.830625 
L 559.021086 615.830625 
z
" clip-path="url(#p56b781880e)" style="fill: #90ee90; fill-opacity: 0.5; stroke: #000000; stroke-linejoin: miter"/>
   </g>
   <g id="patch_47">
    <path d="M 635.789861 615.830625 
L 712.558636 615.830625 
L 712.558636 615.830625 
L 635.789861 615.830625 
z
" clip-path="url(#p56b781880e)" style="fill: #90ee90; fill-opacity: 0.5; stroke: #000000; stroke-linejoin: miter"/>
   </g>
   <g id="patch_48">
    <path d="M 712.558636 615.830625 
L 789.327411 615.830625 
L 789.327411 615.830625 
L 712.558636 615.830625 
z
" clip-path="url(#p56b781880e)" style="fill: #90ee90; fill-opacity: 0.5; stroke: #000000; stroke-linejoin: miter"/>
   </g>
   <g id="patch_49">
    <path d="M 789.327411 615.830625 
L 866.096186 615.830625 
L 866.096186 615.830625 
L 789.327411 615.830625 
z
" clip-path="url(#p56b781880e)" style="fill: #90ee90; fill-opacity: 0.5; stroke: #000000; stroke-linejoin: miter"/>
   </g>
   <g id="patch_50">
    <path d="M 866.096186 615.830625 
L 942.864961 615.830625 
L 942.864961 615.830625 
L 866.096186 615.830625 
z
" clip-path="url(#p56b781880e)" style="fill: #90ee90; fill-opacity: 0.5; stroke: #000000; stroke-linejoin: miter"/>
   </g>
   <g id="patch_51">
    <path d="M 942.864961 615.830625 
L 1019.633736 615.830625 
L 1019.633736 615.830625 
L 942.864961 615.830625 
z
" clip-path="url(#p56b781880e)" style="fill: #90ee90; fill-opacity: 0.5; stroke: #000000; stroke-linejoin: miter"/>
   </g>
   <g id="patch_52">
    <path d="M 1019.633736 615.830625 
L 1096.402512 615.830625 
L 1096.402512 615.830625 
L 1019.633736 615.830625 
z
" clip-path="url(#p56b781880e)" style="fill: #90ee90; fill-opacity: 0.5; stroke: #000000; stroke-linejoin: miter"/>
   </g>
   <g id="patch_53">
    <path d="M 1096.402512 615.830625 
L 1173.171287 615.830625 
L 1173.171287 615.830625 
L 1096.402512 615.830625 
z
" clip-path="url(#p56b781880e)" style="fill: #90ee90; fill-opacity: 0.5; stroke: #000000; stroke-linejoin: miter"/>
   </g>
   <g id="patch_54">
    <path d="M 1173.171287 615.830625 
L 1249.940062 615.830625 
L 1249.940062 588.135403 
L 1173.171287 588.135403 
z
" clip-path="url(#p56b781880e)" style="fill: #90ee90; fill-opacity: 0.5; stroke: #000000; stroke-linejoin: miter"/>
   </g>
   <g id="patch_55">
    <path d="M 1249.940062 615.830625 
L 1326.708837 615.830625 
L 1326.708837 574.287792 
L 1249.940062 574.287792 
z
" clip-path="url(#p56b781880e)" style="fill: #90ee90; fill-opacity: 0.5; stroke: #000000; stroke-linejoin: miter"/>
   </g>
   <g id="patch_56">
    <path d="M 1326.708837 615.830625 
L 1403.477612 615.830625 
L 1403.477612 477.354515 
L 1326.708837 477.354515 
z
" clip-path="url(#p56b781880e)" style="fill: #90ee90; fill-opacity: 0.5; stroke: #000000; stroke-linejoin: miter"/>
   </g>
   <g id="patch_57">
    <path d="M 1403.477612 615.830625 
L 1480.246387 615.830625 
L 1480.246387 421.964071 
L 1403.477612 421.964071 
z
" clip-path="url(#p56b781880e)" style="fill: #90ee90; fill-opacity: 0.5; stroke: #000000; stroke-linejoin: miter"/>
   </g>
   <g id="patch_58">
    <path d="M 1480.246387 615.830625 
L 1557.015162 615.830625 
L 1557.015162 103.469018 
L 1480.246387 103.469018 
z
" clip-path="url(#p56b781880e)" style="fill: #90ee90; fill-opacity: 0.5; stroke: #000000; stroke-linejoin: miter"/>
   </g>
   <g id="patch_59">
    <path d="M 1557.015162 615.830625 
L 1633.783937 615.830625 
L 1633.783937 297.335572 
L 1557.015162 297.335572 
z
" clip-path="url(#p56b781880e)" style="fill: #90ee90; fill-opacity: 0.5; stroke: #000000; stroke-linejoin: miter"/>
   </g>
   <g id="matplotlib.axis_1">
    <g id="xtick_1">
     <g id="line2d_1">
      <defs>
       <path id="m0e7f5d79e7" d="M 0 0 
L 0 3.5 
" style="stroke: #000000; stroke-width: 0.8"/>
      </defs>
      <g>
       <use xlink:href="#m0e7f5d79e7" x="229.293632" y="615.830625" style="stroke: #000000; stroke-width: 0.8"/>
      </g>
     </g>
     <g id="text_1">
      <!-- 20 -->
      <g transform="translate(207.293632 653.383125) scale(0.44 -0.44)">
       <defs>
        <path id="TimesNewRomanPSMT-32" d="M 2934 816 
L 2638 0 
L 138 0 
L 138 116 
Q 1241 1122 1691 1759 
Q 2141 2397 2141 2925 
Q 2141 3328 1894 3587 
Q 1647 3847 1303 3847 
Q 991 3847 742 3664 
Q 494 3481 375 3128 
L 259 3128 
Q 338 3706 661 4015 
Q 984 4325 1469 4325 
Q 1984 4325 2329 3994 
Q 2675 3663 2675 3213 
Q 2675 2891 2525 2569 
Q 2294 2063 1775 1497 
Q 997 647 803 472 
L 1909 472 
Q 2247 472 2383 497 
Q 2519 522 2628 598 
Q 2738 675 2819 816 
L 2934 816 
z
" transform="scale(0.015625)"/>
        <path id="TimesNewRomanPSMT-30" d="M 231 2094 
Q 231 2819 450 3342 
Q 669 3866 1031 4122 
Q 1313 4325 1613 4325 
Q 2100 4325 2488 3828 
Q 2972 3213 2972 2159 
Q 2972 1422 2759 906 
Q 2547 391 2217 158 
Q 1888 -75 1581 -75 
Q 975 -75 572 641 
Q 231 1244 231 2094 
z
M 844 2016 
Q 844 1141 1059 588 
Q 1238 122 1591 122 
Q 1759 122 1940 273 
Q 2122 425 2216 781 
Q 2359 1319 2359 2297 
Q 2359 3022 2209 3506 
Q 2097 3866 1919 4016 
Q 1791 4119 1609 4119 
Q 1397 4119 1231 3928 
Q 1006 3669 925 3112 
Q 844 2556 844 2016 
z
" transform="scale(0.015625)"/>
       </defs>
       <use xlink:href="#TimesNewRomanPSMT-32"/>
       <use xlink:href="#TimesNewRomanPSMT-30" x="50"/>
      </g>
     </g>
    </g>
    <g id="xtick_2">
     <g id="line2d_2">
      <g>
       <use xlink:href="#m0e7f5d79e7" x="580.416208" y="615.830625" style="stroke: #000000; stroke-width: 0.8"/>
      </g>
     </g>
     <g id="text_2">
      <!-- 40 -->
      <g transform="translate(558.416208 653.383125) scale(0.44 -0.44)">
       <defs>
        <path id="TimesNewRomanPSMT-34" d="M 2978 1563 
L 2978 1119 
L 2409 1119 
L 2409 0 
L 1894 0 
L 1894 1119 
L 100 1119 
L 100 1519 
L 2066 4325 
L 2409 4325 
L 2409 1563 
L 2978 1563 
z
M 1894 1563 
L 1894 3666 
L 406 1563 
L 1894 1563 
z
" transform="scale(0.015625)"/>
       </defs>
       <use xlink:href="#TimesNewRomanPSMT-34"/>
       <use xlink:href="#TimesNewRomanPSMT-30" x="50"/>
      </g>
     </g>
    </g>
    <g id="xtick_3">
     <g id="line2d_3">
      <g>
       <use xlink:href="#m0e7f5d79e7" x="931.538784" y="615.830625" style="stroke: #000000; stroke-width: 0.8"/>
      </g>
     </g>
     <g id="text_3">
      <!-- 60 -->
      <g transform="translate(909.538784 653.383125) scale(0.44 -0.44)">
       <defs>
        <path id="TimesNewRomanPSMT-36" d="M 2869 4325 
L 2869 4209 
Q 2456 4169 2195 4045 
Q 1934 3922 1679 3669 
Q 1425 3416 1258 3105 
Q 1091 2794 978 2366 
Q 1428 2675 1881 2675 
Q 2316 2675 2634 2325 
Q 2953 1975 2953 1425 
Q 2953 894 2631 456 
Q 2244 -75 1606 -75 
Q 1172 -75 869 213 
Q 275 772 275 1663 
Q 275 2231 503 2743 
Q 731 3256 1154 3653 
Q 1578 4050 1965 4187 
Q 2353 4325 2688 4325 
L 2869 4325 
z
M 925 2138 
Q 869 1716 869 1456 
Q 869 1156 980 804 
Q 1091 453 1309 247 
Q 1469 100 1697 100 
Q 1969 100 2183 356 
Q 2397 613 2397 1088 
Q 2397 1622 2184 2012 
Q 1972 2403 1581 2403 
Q 1463 2403 1327 2353 
Q 1191 2303 925 2138 
z
" transform="scale(0.015625)"/>
       </defs>
       <use xlink:href="#TimesNewRomanPSMT-36"/>
       <use xlink:href="#TimesNewRomanPSMT-30" x="50"/>
      </g>
     </g>
    </g>
    <g id="xtick_4">
     <g id="line2d_4">
      <g>
       <use xlink:href="#m0e7f5d79e7" x="1282.66136" y="615.830625" style="stroke: #000000; stroke-width: 0.8"/>
      </g>
     </g>
     <g id="text_4">
      <!-- 80 -->
      <g transform="translate(1260.66136 653.383125) scale(0.44 -0.44)">
       <defs>
        <path id="TimesNewRomanPSMT-38" d="M 1228 2134 
Q 725 2547 579 2797 
Q 434 3047 434 3316 
Q 434 3728 753 4026 
Q 1072 4325 1600 4325 
Q 2113 4325 2425 4047 
Q 2738 3769 2738 3413 
Q 2738 3175 2569 2928 
Q 2400 2681 1866 2347 
Q 2416 1922 2594 1678 
Q 2831 1359 2831 1006 
Q 2831 559 2490 242 
Q 2150 -75 1597 -75 
Q 994 -75 656 303 
Q 388 606 388 966 
Q 388 1247 577 1523 
Q 766 1800 1228 2134 
z
M 1719 2469 
Q 2094 2806 2194 3001 
Q 2294 3197 2294 3444 
Q 2294 3772 2109 3958 
Q 1925 4144 1606 4144 
Q 1288 4144 1088 3959 
Q 888 3775 888 3528 
Q 888 3366 970 3203 
Q 1053 3041 1206 2894 
L 1719 2469 
z
M 1375 2016 
Q 1116 1797 991 1539 
Q 866 1281 866 981 
Q 866 578 1086 336 
Q 1306 94 1647 94 
Q 1984 94 2187 284 
Q 2391 475 2391 747 
Q 2391 972 2272 1150 
Q 2050 1481 1375 2016 
z
" transform="scale(0.015625)"/>
       </defs>
       <use xlink:href="#TimesNewRomanPSMT-38"/>
       <use xlink:href="#TimesNewRomanPSMT-30" x="50"/>
      </g>
     </g>
    </g>
    <g id="xtick_5">
     <g id="line2d_5">
      <g>
       <use xlink:href="#m0e7f5d79e7" x="1633.783937" y="615.830625" style="stroke: #000000; stroke-width: 0.8"/>
      </g>
     </g>
     <g id="text_5">
      <!-- 100 -->
      <g transform="translate(1600.783937 653.383125) scale(0.44 -0.44)">
       <defs>
        <path id="TimesNewRomanPSMT-31" d="M 750 3822 
L 1781 4325 
L 1884 4325 
L 1884 747 
Q 1884 391 1914 303 
Q 1944 216 2037 169 
Q 2131 122 2419 116 
L 2419 0 
L 825 0 
L 825 116 
Q 1125 122 1212 167 
Q 1300 213 1334 289 
Q 1369 366 1369 747 
L 1369 3034 
Q 1369 3497 1338 3628 
Q 1316 3728 1258 3775 
Q 1200 3822 1119 3822 
Q 1003 3822 797 3725 
L 750 3822 
z
" transform="scale(0.015625)"/>
       </defs>
       <use xlink:href="#TimesNewRomanPSMT-31"/>
       <use xlink:href="#TimesNewRomanPSMT-30" x="50"/>
       <use xlink:href="#TimesNewRomanPSMT-30" x="100"/>
      </g>
     </g>
    </g>
    <g id="text_6">
     <!-- Score -->
     <g transform="translate(854.389324 697.3475) scale(0.44 -0.44)">
      <defs>
       <path id="TimesNewRomanPSMT-53" d="M 2934 4334 
L 2934 2869 
L 2819 2869 
Q 2763 3291 2617 3541 
Q 2472 3791 2203 3937 
Q 1934 4084 1647 4084 
Q 1322 4084 1109 3886 
Q 897 3688 897 3434 
Q 897 3241 1031 3081 
Q 1225 2847 1953 2456 
Q 2547 2138 2764 1967 
Q 2981 1797 3098 1565 
Q 3216 1334 3216 1081 
Q 3216 600 2842 251 
Q 2469 -97 1881 -97 
Q 1697 -97 1534 -69 
Q 1438 -53 1133 45 
Q 828 144 747 144 
Q 669 144 623 97 
Q 578 50 556 -97 
L 441 -97 
L 441 1356 
L 556 1356 
Q 638 900 775 673 
Q 913 447 1195 297 
Q 1478 147 1816 147 
Q 2206 147 2432 353 
Q 2659 559 2659 841 
Q 2659 997 2573 1156 
Q 2488 1316 2306 1453 
Q 2184 1547 1640 1851 
Q 1097 2156 867 2337 
Q 638 2519 519 2737 
Q 400 2956 400 3219 
Q 400 3675 750 4004 
Q 1100 4334 1641 4334 
Q 1978 4334 2356 4169 
Q 2531 4091 2603 4091 
Q 2684 4091 2736 4139 
Q 2788 4188 2819 4334 
L 2934 4334 
z
" transform="scale(0.015625)"/>
       <path id="TimesNewRomanPSMT-63" d="M 2631 1088 
Q 2516 522 2178 217 
Q 1841 -88 1431 -88 
Q 944 -88 581 321 
Q 219 731 219 1428 
Q 219 2103 620 2525 
Q 1022 2947 1584 2947 
Q 2006 2947 2278 2723 
Q 2550 2500 2550 2259 
Q 2550 2141 2473 2067 
Q 2397 1994 2259 1994 
Q 2075 1994 1981 2113 
Q 1928 2178 1911 2362 
Q 1894 2547 1784 2644 
Q 1675 2738 1481 2738 
Q 1169 2738 978 2506 
Q 725 2200 725 1697 
Q 725 1184 976 792 
Q 1228 400 1656 400 
Q 1963 400 2206 609 
Q 2378 753 2541 1131 
L 2631 1088 
z
" transform="scale(0.015625)"/>
       <path id="TimesNewRomanPSMT-6f" d="M 1600 2947 
Q 2250 2947 2644 2453 
Q 2978 2031 2978 1484 
Q 2978 1100 2793 706 
Q 2609 313 2286 112 
Q 1963 -88 1566 -88 
Q 919 -88 538 428 
Q 216 863 216 1403 
Q 216 1797 411 2186 
Q 606 2575 925 2761 
Q 1244 2947 1600 2947 
z
M 1503 2744 
Q 1338 2744 1170 2645 
Q 1003 2547 900 2300 
Q 797 2053 797 1666 
Q 797 1041 1045 587 
Q 1294 134 1700 134 
Q 2003 134 2200 384 
Q 2397 634 2397 1244 
Q 2397 2006 2069 2444 
Q 1847 2744 1503 2744 
z
" transform="scale(0.015625)"/>
       <path id="TimesNewRomanPSMT-72" d="M 1038 2947 
L 1038 2303 
Q 1397 2947 1775 2947 
Q 1947 2947 2059 2842 
Q 2172 2738 2172 2600 
Q 2172 2478 2090 2393 
Q 2009 2309 1897 2309 
Q 1788 2309 1652 2417 
Q 1516 2525 1450 2525 
Q 1394 2525 1328 2463 
Q 1188 2334 1038 2041 
L 1038 669 
Q 1038 431 1097 309 
Q 1138 225 1241 169 
Q 1344 113 1538 113 
L 1538 0 
L 72 0 
L 72 113 
Q 291 113 397 181 
Q 475 231 506 341 
Q 522 394 522 644 
L 522 1753 
Q 522 2253 501 2348 
Q 481 2444 426 2487 
Q 372 2531 291 2531 
Q 194 2531 72 2484 
L 41 2597 
L 906 2947 
L 1038 2947 
z
" transform="scale(0.015625)"/>
       <path id="TimesNewRomanPSMT-65" d="M 681 1784 
Q 678 1147 991 784 
Q 1303 422 1725 422 
Q 2006 422 2214 576 
Q 2422 731 2563 1106 
L 2659 1044 
Q 2594 616 2278 264 
Q 1963 -88 1488 -88 
Q 972 -88 605 314 
Q 238 716 238 1394 
Q 238 2128 614 2539 
Q 991 2950 1559 2950 
Q 2041 2950 2350 2633 
Q 2659 2316 2659 1784 
L 681 1784 
z
M 681 1966 
L 2006 1966 
Q 1991 2241 1941 2353 
Q 1863 2528 1708 2628 
Q 1553 2728 1384 2728 
Q 1125 2728 920 2526 
Q 716 2325 681 1966 
z
" transform="scale(0.015625)"/>
      </defs>
      <use xlink:href="#TimesNewRomanPSMT-53"/>
      <use xlink:href="#TimesNewRomanPSMT-63" x="55.615234"/>
      <use xlink:href="#TimesNewRomanPSMT-6f" x="100"/>
      <use xlink:href="#TimesNewRomanPSMT-72" x="150"/>
      <use xlink:href="#TimesNewRomanPSMT-65" x="183.300781"/>
     </g>
    </g>
   </g>
   <g id="matplotlib.axis_2">
    <g id="ytick_1">
     <g id="line2d_6">
      <defs>
       <path id="m12f66ed0aa" d="M 0 0 
L -3.5 0 
" style="stroke: #000000; stroke-width: 0.8"/>
      </defs>
      <g>
       <use xlink:href="#m12f66ed0aa" x="102.246875" y="615.830625" style="stroke: #000000; stroke-width: 0.8"/>
      </g>
     </g>
     <g id="text_7">
      <!-- 0 -->
      <g transform="translate(73.246875 631.106875) scale(0.44 -0.44)">
       <use xlink:href="#TimesNewRomanPSMT-30"/>
      </g>
     </g>
    </g>
    <g id="ytick_2">
     <g id="line2d_7">
      <g>
       <use xlink:href="#m12f66ed0aa" x="102.246875" y="477.354515" style="stroke: #000000; stroke-width: 0.8"/>
      </g>
     </g>
     <g id="text_8">
      <!-- 10 -->
      <g transform="translate(51.246875 492.630765) scale(0.44 -0.44)">
       <use xlink:href="#TimesNewRomanPSMT-31"/>
       <use xlink:href="#TimesNewRomanPSMT-30" x="50"/>
      </g>
     </g>
    </g>
    <g id="ytick_3">
     <g id="line2d_8">
      <g>
       <use xlink:href="#m12f66ed0aa" x="102.246875" y="338.878405" style="stroke: #000000; stroke-width: 0.8"/>
      </g>
     </g>
     <g id="text_9">
      <!-- 20 -->
      <g transform="translate(51.246875 354.154655) scale(0.44 -0.44)">
       <use xlink:href="#TimesNewRomanPSMT-32"/>
       <use xlink:href="#TimesNewRomanPSMT-30" x="50"/>
      </g>
     </g>
    </g>
    <g id="ytick_4">
     <g id="line2d_9">
      <g>
       <use xlink:href="#m12f66ed0aa" x="102.246875" y="200.402295" style="stroke: #000000; stroke-width: 0.8"/>
      </g>
     </g>
     <g id="text_10">
      <!-- 30 -->
      <g transform="translate(51.246875 215.678545) scale(0.44 -0.44)">
       <defs>
        <path id="TimesNewRomanPSMT-33" d="M 325 3431 
Q 506 3859 782 4092 
Q 1059 4325 1472 4325 
Q 1981 4325 2253 3994 
Q 2459 3747 2459 3466 
Q 2459 3003 1878 2509 
Q 2269 2356 2469 2072 
Q 2669 1788 2669 1403 
Q 2669 853 2319 450 
Q 1863 -75 997 -75 
Q 569 -75 414 31 
Q 259 138 259 259 
Q 259 350 332 419 
Q 406 488 509 488 
Q 588 488 669 463 
Q 722 447 909 348 
Q 1097 250 1169 231 
Q 1284 197 1416 197 
Q 1734 197 1970 444 
Q 2206 691 2206 1028 
Q 2206 1275 2097 1509 
Q 2016 1684 1919 1775 
Q 1784 1900 1550 2001 
Q 1316 2103 1072 2103 
L 972 2103 
L 972 2197 
Q 1219 2228 1467 2375 
Q 1716 2522 1828 2728 
Q 1941 2934 1941 3181 
Q 1941 3503 1739 3701 
Q 1538 3900 1238 3900 
Q 753 3900 428 3381 
L 325 3431 
z
" transform="scale(0.015625)"/>
       </defs>
       <use xlink:href="#TimesNewRomanPSMT-33"/>
       <use xlink:href="#TimesNewRomanPSMT-30" x="50"/>
      </g>
     </g>
    </g>
    <g id="ytick_5">
     <g id="line2d_10">
      <g>
       <use xlink:href="#m12f66ed0aa" x="102.246875" y="61.926185" style="stroke: #000000; stroke-width: 0.8"/>
      </g>
     </g>
     <g id="text_11">
      <!-- 40 -->
      <g transform="translate(51.246875 77.202435) scale(0.44 -0.44)">
       <use xlink:href="#TimesNewRomanPSMT-34"/>
       <use xlink:href="#TimesNewRomanPSMT-30" x="50"/>
      </g>
     </g>
    </g>
    <g id="text_12">
     <!-- Count of Paragraphs -->
     <g transform="translate(37.7525 515.987812) rotate(-90) scale(0.44 -0.44)">
      <defs>
       <path id="TimesNewRomanPSMT-43" d="M 3853 4334 
L 3950 2894 
L 3853 2894 
Q 3659 3541 3300 3825 
Q 2941 4109 2438 4109 
Q 2016 4109 1675 3895 
Q 1334 3681 1139 3212 
Q 944 2744 944 2047 
Q 944 1472 1128 1050 
Q 1313 628 1683 403 
Q 2053 178 2528 178 
Q 2941 178 3256 354 
Q 3572 531 3950 1056 
L 4047 994 
Q 3728 428 3303 165 
Q 2878 -97 2294 -97 
Q 1241 -97 663 684 
Q 231 1266 231 2053 
Q 231 2688 515 3219 
Q 800 3750 1298 4042 
Q 1797 4334 2388 4334 
Q 2847 4334 3294 4109 
Q 3425 4041 3481 4041 
Q 3566 4041 3628 4100 
Q 3709 4184 3744 4334 
L 3853 4334 
z
" transform="scale(0.015625)"/>
       <path id="TimesNewRomanPSMT-75" d="M 2709 2863 
L 2709 1128 
Q 2709 631 2732 520 
Q 2756 409 2807 365 
Q 2859 322 2928 322 
Q 3025 322 3147 375 
L 3191 266 
L 2334 -88 
L 2194 -88 
L 2194 519 
Q 1825 119 1631 15 
Q 1438 -88 1222 -88 
Q 981 -88 804 51 
Q 628 191 559 409 
Q 491 628 491 1028 
L 491 2306 
Q 491 2509 447 2587 
Q 403 2666 317 2708 
Q 231 2750 6 2747 
L 6 2863 
L 1009 2863 
L 1009 947 
Q 1009 547 1148 422 
Q 1288 297 1484 297 
Q 1619 297 1789 381 
Q 1959 466 2194 703 
L 2194 2325 
Q 2194 2569 2105 2655 
Q 2016 2741 1734 2747 
L 1734 2863 
L 2709 2863 
z
" transform="scale(0.015625)"/>
       <path id="TimesNewRomanPSMT-6e" d="M 1034 2341 
Q 1538 2947 1994 2947 
Q 2228 2947 2397 2830 
Q 2566 2713 2666 2444 
Q 2734 2256 2734 1869 
L 2734 647 
Q 2734 375 2778 278 
Q 2813 200 2889 156 
Q 2966 113 3172 113 
L 3172 0 
L 1756 0 
L 1756 113 
L 1816 113 
Q 2016 113 2095 173 
Q 2175 234 2206 353 
Q 2219 400 2219 647 
L 2219 1819 
Q 2219 2209 2117 2386 
Q 2016 2563 1775 2563 
Q 1403 2563 1034 2156 
L 1034 647 
Q 1034 356 1069 288 
Q 1113 197 1189 155 
Q 1266 113 1500 113 
L 1500 0 
L 84 0 
L 84 113 
L 147 113 
Q 366 113 442 223 
Q 519 334 519 647 
L 519 1709 
Q 519 2225 495 2337 
Q 472 2450 423 2490 
Q 375 2531 294 2531 
Q 206 2531 84 2484 
L 38 2597 
L 900 2947 
L 1034 2947 
L 1034 2341 
z
" transform="scale(0.015625)"/>
       <path id="TimesNewRomanPSMT-74" d="M 1031 3803 
L 1031 2863 
L 1700 2863 
L 1700 2644 
L 1031 2644 
L 1031 788 
Q 1031 509 1111 412 
Q 1191 316 1316 316 
Q 1419 316 1516 380 
Q 1613 444 1666 569 
L 1788 569 
Q 1678 263 1478 108 
Q 1278 -47 1066 -47 
Q 922 -47 784 33 
Q 647 113 581 261 
Q 516 409 516 719 
L 516 2644 
L 63 2644 
L 63 2747 
Q 234 2816 414 2980 
Q 594 3144 734 3369 
Q 806 3488 934 3803 
L 1031 3803 
z
" transform="scale(0.015625)"/>
       <path id="TimesNewRomanPSMT-20" transform="scale(0.015625)"/>
       <path id="TimesNewRomanPSMT-66" d="M 1319 2638 
L 1319 756 
Q 1319 356 1406 250 
Q 1522 113 1716 113 
L 1975 113 
L 1975 0 
L 266 0 
L 266 113 
L 394 113 
Q 519 113 622 175 
Q 725 238 764 344 
Q 803 450 803 756 
L 803 2638 
L 247 2638 
L 247 2863 
L 803 2863 
L 803 3050 
Q 803 3478 940 3775 
Q 1078 4072 1361 4255 
Q 1644 4438 1997 4438 
Q 2325 4438 2600 4225 
Q 2781 4084 2781 3909 
Q 2781 3816 2700 3733 
Q 2619 3650 2525 3650 
Q 2453 3650 2373 3701 
Q 2294 3753 2178 3923 
Q 2063 4094 1966 4153 
Q 1869 4213 1750 4213 
Q 1606 4213 1506 4136 
Q 1406 4059 1362 3898 
Q 1319 3738 1319 3069 
L 1319 2863 
L 2056 2863 
L 2056 2638 
L 1319 2638 
z
" transform="scale(0.015625)"/>
       <path id="TimesNewRomanPSMT-50" d="M 1313 1984 
L 1313 750 
Q 1313 350 1400 253 
Q 1519 116 1759 116 
L 1922 116 
L 1922 0 
L 106 0 
L 106 116 
L 266 116 
Q 534 116 650 291 
Q 713 388 713 750 
L 713 3488 
Q 713 3888 628 3984 
Q 506 4122 266 4122 
L 106 4122 
L 106 4238 
L 1659 4238 
Q 2228 4238 2556 4120 
Q 2884 4003 3109 3725 
Q 3334 3447 3334 3066 
Q 3334 2547 2992 2222 
Q 2650 1897 2025 1897 
Q 1872 1897 1694 1919 
Q 1516 1941 1313 1984 
z
M 1313 2163 
Q 1478 2131 1606 2115 
Q 1734 2100 1825 2100 
Q 2150 2100 2386 2351 
Q 2622 2603 2622 3003 
Q 2622 3278 2509 3514 
Q 2397 3750 2190 3867 
Q 1984 3984 1722 3984 
Q 1563 3984 1313 3925 
L 1313 2163 
z
" transform="scale(0.015625)"/>
       <path id="TimesNewRomanPSMT-61" d="M 1822 413 
Q 1381 72 1269 19 
Q 1100 -59 909 -59 
Q 613 -59 420 144 
Q 228 347 228 678 
Q 228 888 322 1041 
Q 450 1253 767 1440 
Q 1084 1628 1822 1897 
L 1822 2009 
Q 1822 2438 1686 2597 
Q 1550 2756 1291 2756 
Q 1094 2756 978 2650 
Q 859 2544 859 2406 
L 866 2225 
Q 866 2081 792 2003 
Q 719 1925 600 1925 
Q 484 1925 411 2006 
Q 338 2088 338 2228 
Q 338 2497 613 2722 
Q 888 2947 1384 2947 
Q 1766 2947 2009 2819 
Q 2194 2722 2281 2516 
Q 2338 2381 2338 1966 
L 2338 994 
Q 2338 584 2353 492 
Q 2369 400 2405 369 
Q 2441 338 2488 338 
Q 2538 338 2575 359 
Q 2641 400 2828 588 
L 2828 413 
Q 2478 -56 2159 -56 
Q 2006 -56 1915 50 
Q 1825 156 1822 413 
z
M 1822 616 
L 1822 1706 
Q 1350 1519 1213 1441 
Q 966 1303 859 1153 
Q 753 1003 753 825 
Q 753 600 887 451 
Q 1022 303 1197 303 
Q 1434 303 1822 616 
z
" transform="scale(0.015625)"/>
       <path id="TimesNewRomanPSMT-67" d="M 966 1044 
Q 703 1172 562 1401 
Q 422 1631 422 1909 
Q 422 2334 742 2640 
Q 1063 2947 1563 2947 
Q 1972 2947 2272 2747 
L 2878 2747 
Q 3013 2747 3034 2739 
Q 3056 2731 3066 2713 
Q 3084 2684 3084 2613 
Q 3084 2531 3069 2500 
Q 3059 2484 3036 2475 
Q 3013 2466 2878 2466 
L 2506 2466 
Q 2681 2241 2681 1891 
Q 2681 1491 2375 1206 
Q 2069 922 1553 922 
Q 1341 922 1119 984 
Q 981 866 932 777 
Q 884 688 884 625 
Q 884 572 936 522 
Q 988 472 1138 450 
Q 1225 438 1575 428 
Q 2219 413 2409 384 
Q 2700 344 2873 169 
Q 3047 -6 3047 -263 
Q 3047 -616 2716 -925 
Q 2228 -1381 1444 -1381 
Q 841 -1381 425 -1109 
Q 191 -953 191 -784 
Q 191 -709 225 -634 
Q 278 -519 444 -313 
Q 466 -284 763 25 
Q 600 122 533 198 
Q 466 275 466 372 
Q 466 481 555 628 
Q 644 775 966 1044 
z
M 1509 2797 
Q 1278 2797 1122 2612 
Q 966 2428 966 2047 
Q 966 1553 1178 1281 
Q 1341 1075 1591 1075 
Q 1828 1075 1981 1253 
Q 2134 1431 2134 1813 
Q 2134 2309 1919 2591 
Q 1759 2797 1509 2797 
z
M 934 0 
Q 788 -159 713 -296 
Q 638 -434 638 -550 
Q 638 -700 819 -813 
Q 1131 -1006 1722 -1006 
Q 2284 -1006 2551 -807 
Q 2819 -609 2819 -384 
Q 2819 -222 2659 -153 
Q 2497 -84 2016 -72 
Q 1313 -53 934 0 
z
" transform="scale(0.015625)"/>
       <path id="TimesNewRomanPSMT-70" d="M -6 2578 
L 875 2934 
L 994 2934 
L 994 2266 
Q 1216 2644 1439 2795 
Q 1663 2947 1909 2947 
Q 2341 2947 2628 2609 
Q 2981 2197 2981 1534 
Q 2981 794 2556 309 
Q 2206 -88 1675 -88 
Q 1444 -88 1275 -22 
Q 1150 25 994 166 
L 994 -706 
Q 994 -1000 1030 -1079 
Q 1066 -1159 1155 -1206 
Q 1244 -1253 1478 -1253 
L 1478 -1369 
L -22 -1369 
L -22 -1253 
L 56 -1253 
Q 228 -1256 350 -1188 
Q 409 -1153 442 -1076 
Q 475 -1000 475 -688 
L 475 2019 
Q 475 2297 450 2372 
Q 425 2447 370 2484 
Q 316 2522 222 2522 
Q 147 2522 31 2478 
L -6 2578 
z
M 994 2081 
L 994 1013 
Q 994 666 1022 556 
Q 1066 375 1236 237 
Q 1406 100 1666 100 
Q 1978 100 2172 344 
Q 2425 663 2425 1241 
Q 2425 1897 2138 2250 
Q 1938 2494 1663 2494 
Q 1513 2494 1366 2419 
Q 1253 2363 994 2081 
z
" transform="scale(0.015625)"/>
       <path id="TimesNewRomanPSMT-68" d="M 1041 4444 
L 1041 2350 
Q 1388 2731 1591 2839 
Q 1794 2947 1997 2947 
Q 2241 2947 2416 2812 
Q 2591 2678 2675 2391 
Q 2734 2191 2734 1659 
L 2734 647 
Q 2734 375 2778 275 
Q 2809 200 2884 156 
Q 2959 113 3159 113 
L 3159 0 
L 1753 0 
L 1753 113 
L 1819 113 
Q 2019 113 2097 173 
Q 2175 234 2206 353 
Q 2216 403 2216 647 
L 2216 1659 
Q 2216 2128 2167 2275 
Q 2119 2422 2012 2495 
Q 1906 2569 1756 2569 
Q 1603 2569 1437 2487 
Q 1272 2406 1041 2159 
L 1041 647 
Q 1041 353 1073 281 
Q 1106 209 1195 161 
Q 1284 113 1503 113 
L 1503 0 
L 84 0 
L 84 113 
Q 275 113 384 172 
Q 447 203 484 290 
Q 522 378 522 647 
L 522 3238 
Q 522 3728 498 3840 
Q 475 3953 426 3993 
Q 378 4034 297 4034 
Q 231 4034 84 3984 
L 41 4094 
L 897 4444 
L 1041 4444 
z
" transform="scale(0.015625)"/>
       <path id="TimesNewRomanPSMT-73" d="M 2050 2947 
L 2050 1972 
L 1947 1972 
Q 1828 2431 1642 2597 
Q 1456 2763 1169 2763 
Q 950 2763 815 2647 
Q 681 2531 681 2391 
Q 681 2216 781 2091 
Q 878 1963 1175 1819 
L 1631 1597 
Q 2266 1288 2266 781 
Q 2266 391 1970 151 
Q 1675 -88 1309 -88 
Q 1047 -88 709 6 
Q 606 38 541 38 
Q 469 38 428 -44 
L 325 -44 
L 325 978 
L 428 978 
Q 516 541 762 319 
Q 1009 97 1316 97 
Q 1531 97 1667 223 
Q 1803 350 1803 528 
Q 1803 744 1651 891 
Q 1500 1038 1047 1263 
Q 594 1488 453 1669 
Q 313 1847 313 2119 
Q 313 2472 555 2709 
Q 797 2947 1181 2947 
Q 1350 2947 1591 2875 
Q 1750 2828 1803 2828 
Q 1853 2828 1881 2850 
Q 1909 2872 1947 2947 
L 2050 2947 
z
" transform="scale(0.015625)"/>
      </defs>
      <use xlink:href="#TimesNewRomanPSMT-43"/>
      <use xlink:href="#TimesNewRomanPSMT-6f" x="66.699219"/>
      <use xlink:href="#TimesNewRomanPSMT-75" x="116.699219"/>
      <use xlink:href="#TimesNewRomanPSMT-6e" x="166.699219"/>
      <use xlink:href="#TimesNewRomanPSMT-74" x="216.699219"/>
      <use xlink:href="#TimesNewRomanPSMT-20" x="244.482422"/>
      <use xlink:href="#TimesNewRomanPSMT-6f" x="269.482422"/>
      <use xlink:href="#TimesNewRomanPSMT-66" x="319.482422"/>
      <use xlink:href="#TimesNewRomanPSMT-20" x="352.783203"/>
      <use xlink:href="#TimesNewRomanPSMT-50" x="377.783203"/>
      <use xlink:href="#TimesNewRomanPSMT-61" x="433.398438"/>
      <use xlink:href="#TimesNewRomanPSMT-72" x="477.783203"/>
      <use xlink:href="#TimesNewRomanPSMT-61" x="511.083984"/>
      <use xlink:href="#TimesNewRomanPSMT-67" x="555.46875"/>
      <use xlink:href="#TimesNewRomanPSMT-72" x="605.46875"/>
      <use xlink:href="#TimesNewRomanPSMT-61" x="638.769531"/>
      <use xlink:href="#TimesNewRomanPSMT-70" x="683.154297"/>
      <use xlink:href="#TimesNewRomanPSMT-68" x="733.154297"/>
      <use xlink:href="#TimesNewRomanPSMT-73" x="783.154297"/>
     </g>
    </g>
   </g>
   <g id="line2d_11">
    <path d="M 489.23282 607.924547 
L 517.990386 606.116907 
L 546.747952 604.083379 
L 581.257031 601.383163 
L 633.020649 597.034173 
L 690.53578 592.263536 
L 811.317556 582.534734 
L 840.075122 579.893744 
L 868.832688 577.030953 
L 897.590254 573.935249 
L 926.347819 570.597837 
L 955.105385 567.005414 
L 983.862951 563.149508 
L 1012.620517 559.04962 
L 1052.881109 553.04636 
L 1093.141701 547.078891 
L 1121.899266 543.062247 
L 1150.656832 539.324564 
L 1219.67499 530.611954 
L 1236.929529 528.095803 
L 1248.432556 526.250004 
L 1259.935582 524.241018 
L 1271.438608 522.048463 
L 1282.941635 519.65696 
L 1294.444661 517.057275 
L 1305.947687 514.24729 
L 1317.450713 511.232764 
L 1328.95374 508.027844 
L 1346.208279 502.915737 
L 1363.462819 497.54178 
L 1397.971898 486.660378 
L 1409.474924 483.212345 
L 1420.97795 479.965665 
L 1432.480976 476.990997 
L 1443.984003 474.35904 
L 1455.487029 472.138748 
L 1461.238542 471.203597 
L 1466.990055 470.3955 
L 1472.741568 469.721774 
L 1478.493082 469.189289 
L 1484.244595 468.804419 
L 1489.996108 468.572987 
L 1495.747621 468.500224 
L 1501.499134 468.590721 
L 1507.250647 468.848391 
L 1513.002161 469.276433 
L 1518.753674 469.877297 
L 1524.505187 470.652662 
L 1530.2567 471.603408 
L 1536.008213 472.729604 
L 1541.759726 474.030491 
L 1547.511239 475.504483 
L 1553.262753 477.149159 
L 1559.014266 478.961275 
L 1564.765779 480.936774 
L 1570.517292 483.070803 
L 1576.268805 485.357739 
L 1582.020318 487.791218 
L 1587.771831 490.36417 
L 1593.523345 493.068863 
L 1605.026371 498.839512 
L 1616.529397 505.029941 
L 1628.032423 511.559789 
L 1633.783937 514.925443 
L 1633.783937 514.925443 
" clip-path="url(#p56b781880e)" style="fill: none; stroke: #f08080; stroke-width: 1.5; stroke-linecap: square"/>
   </g>
   <g id="line2d_12">
    <path d="M 1305.047341 615.830625 
L 1305.047341 54.430625 
" clip-path="url(#p56b781880e)" style="fill: none; stroke-dasharray: 18.5,8; stroke-dashoffset: 0; stroke: #f08080; stroke-opacity: 0.7; stroke-width: 5"/>
   </g>
   <g id="line2d_13">
    <path d="M 175.177211 611.125236 
L 219.155303 610.586897 
L 270.463078 610.212642 
L 380.408308 609.52669 
L 424.386401 608.979752 
L 475.694175 608.084842 
L 534.331631 607.051798 
L 570.980041 606.652191 
L 600.298769 606.543328 
L 636.94718 606.640589 
L 702.914318 606.927929 
L 724.903364 606.833955 
L 746.89241 606.530601 
L 768.881456 605.947929 
L 783.54082 605.371771 
L 798.200184 604.625307 
L 812.859548 603.694511 
L 827.518913 602.569371 
L 842.178277 601.244965 
L 856.837641 599.722497 
L 871.497005 598.010145 
L 886.156369 596.123627 
L 908.145415 593.020484 
L 937.464143 588.550219 
L 974.112553 582.899281 
L 996.101599 579.736423 
L 1010.760963 577.799886 
L 1025.420328 576.029909 
L 1040.079692 574.438396 
L 1054.739056 573.024 
L 1076.728102 571.196886 
L 1106.04683 569.120746 
L 1135.365558 567.050533 
L 1150.024922 565.844669 
L 1164.684286 564.423672 
L 1179.34365 562.710902 
L 1194.003014 560.632412 
L 1201.332696 559.434238 
L 1208.662378 558.119309 
L 1215.992061 556.680135 
L 1223.321743 555.109775 
L 1230.651425 553.401886 
L 1237.981107 551.550761 
L 1245.310789 549.551377 
L 1252.640471 547.399426 
L 1259.970153 545.09136 
L 1267.299835 542.624429 
L 1274.629517 539.996722 
L 1281.959199 537.207216 
L 1289.288881 534.255822 
L 1296.618563 531.14344 
L 1303.948245 527.872013 
L 1311.277927 524.444596 
L 1318.607609 520.865415 
L 1325.937291 517.13994 
L 1333.266973 513.274956 
L 1347.926337 505.160586 
L 1362.585701 496.605471 
L 1377.245065 487.717895 
L 1421.223158 460.538246 
L 1435.882522 451.92446 
L 1443.212204 447.822037 
L 1450.541886 443.894846 
L 1457.871568 440.172599 
L 1465.20125 436.685076 
L 1472.530932 433.4618 
L 1479.860614 430.531694 
L 1487.190296 427.922717 
L 1494.519978 425.661502 
L 1501.84966 423.772982 
L 1509.179342 422.280018 
L 1516.509024 421.20305 
L 1523.838706 420.559754 
L 1531.168388 420.36473 
L 1538.49807 420.629229 
L 1545.827752 421.360907 
L 1553.157434 422.56364 
L 1560.487116 424.237376 
L 1567.816798 426.378054 
L 1575.14648 428.977576 
L 1582.476162 432.023837 
L 1589.805844 435.500827 
L 1597.135526 439.388782 
L 1604.465208 443.664399 
L 1611.794891 448.301109 
L 1619.124573 453.269392 
L 1626.454255 458.537148 
L 1633.783937 464.070096 
L 1633.783937 464.070096 
" clip-path="url(#p56b781880e)" style="fill: none; stroke: #87cefa; stroke-width: 1.5; stroke-linecap: square"/>
   </g>
   <g id="line2d_14">
    <path d="M 1384.219638 615.830625 
L 1384.219638 54.430625 
" clip-path="url(#p56b781880e)" style="fill: none; stroke-dasharray: 18.5,8; stroke-dashoffset: 0; stroke: #87cefa; stroke-opacity: 0.7; stroke-width: 5"/>
   </g>
   <g id="line2d_15">
    <path d="M 1227.281217 589.056225 
L 1232.914795 587.545751 
L 1251.693389 582.845611 
L 1255.449108 581.627315 
L 1259.204826 580.196149 
L 1262.960545 578.50525 
L 1266.716264 576.515119 
L 1270.471983 574.196012 
L 1274.227701 571.529793 
L 1277.98342 568.511167 
L 1281.739139 565.148183 
L 1285.494858 561.462025 
L 1289.250576 557.486077 
L 1294.884155 551.077543 
L 1302.395592 541.994772 
L 1313.662748 528.219534 
L 1319.296326 521.694499 
L 1323.052045 517.59072 
L 1326.807764 513.725691 
L 1330.563483 510.124678 
L 1334.319201 506.803305 
L 1338.07492 503.767709 
L 1341.830639 501.01499 
L 1345.586358 498.533893 
L 1349.342076 496.305632 
L 1353.097795 494.304802 
L 1356.853514 492.500309 
L 1362.487092 490.082142 
L 1369.99853 487.179802 
L 1379.387826 483.558137 
L 1385.021405 481.102143 
L 1388.777123 479.246597 
L 1392.532842 477.161228 
L 1396.288561 474.79985 
L 1400.04428 472.117592 
L 1403.799998 469.071051 
L 1407.555717 465.618354 
L 1411.311436 461.719156 
L 1415.067154 457.334605 
L 1418.822873 452.427311 
L 1422.578592 446.961388 
L 1426.334311 440.902601 
L 1430.090029 434.218681 
L 1433.845748 426.879846 
L 1437.601467 418.859535 
L 1441.357186 410.135366 
L 1445.112904 400.690268 
L 1448.868623 390.513752 
L 1452.624342 379.603221 
L 1456.380061 367.965251 
L 1460.135779 355.616738 
L 1463.891498 342.585827 
L 1467.647217 328.912574 
L 1473.280795 307.316074 
L 1478.914373 284.622939 
L 1486.425811 253.165187 
L 1501.448686 189.458225 
L 1507.082264 166.669581 
L 1510.837983 152.228007 
L 1514.593701 138.588362 
L 1518.34942 125.933726 
L 1522.105139 114.455384 
L 1523.982998 109.218864 
L 1525.860858 104.350791 
L 1527.738717 99.876305 
L 1529.616576 95.82048 
L 1531.494436 92.208168 
L 1533.372295 89.063821 
L 1535.250154 86.411297 
L 1537.128014 84.273656 
L 1539.005873 82.672936 
L 1540.883733 81.629931 
L 1542.761592 81.163958 
L 1544.639451 81.292617 
L 1546.517311 82.03156 
L 1548.39517 83.394264 
L 1550.273029 85.391812 
L 1552.150889 88.032688 
L 1554.028748 91.322591 
L 1555.906608 95.264269 
L 1557.784467 99.857383 
L 1559.662326 105.098391 
L 1561.540186 110.980471 
L 1563.418045 117.493473 
L 1565.295904 124.62391 
L 1567.173764 132.354978 
L 1569.051623 140.666619 
L 1572.807342 158.935736 
L 1576.563061 179.210264 
L 1580.318779 201.22684 
L 1584.074498 224.687356 
L 1589.708076 261.872553 
L 1599.097373 326.318042 
L 1600.975232 339.197334 
L 1600.975232 339.197334 
" clip-path="url(#p56b781880e)" style="fill: none; stroke: #90ee90; stroke-width: 1.5; stroke-linecap: square"/>
   </g>
   <g id="line2d_16">
    <path d="M 1494.685453 615.830625 
L 1494.685453 54.430625 
" clip-path="url(#p56b781880e)" style="fill: none; stroke-dasharray: 18.5,8; stroke-dashoffset: 0; stroke: #90ee90; stroke-opacity: 0.7; stroke-width: 5"/>
   </g>
   <g id="patch_60">
    <path d="M 102.246875 615.830625 
L 102.246875 54.430625 
" style="fill: none; stroke: #000000; stroke-width: 0.8; stroke-linejoin: miter; stroke-linecap: square"/>
   </g>
   <g id="patch_61">
    <path d="M 1706.714273 615.830625 
L 1706.714273 54.430625 
" style="fill: none; stroke: #000000; stroke-width: 0.8; stroke-linejoin: miter; stroke-linecap: square"/>
   </g>
   <g id="patch_62">
    <path d="M 102.246875 615.830625 
L 1706.714273 615.830625 
" style="fill: none; stroke: #000000; stroke-width: 0.8; stroke-linejoin: miter; stroke-linecap: square"/>
   </g>
   <g id="patch_63">
    <path d="M 102.246875 54.430625 
L 1706.714273 54.430625 
" style="fill: none; stroke: #000000; stroke-width: 0.8; stroke-linejoin: miter; stroke-linecap: square"/>
   </g>
   <g id="text_13">
    <!-- Qwen2-7B:81.28 -->
    <g style="fill: #f08080" transform="translate(1305.047341 110.570625) scale(0.44 -0.44)">
     <defs>
      <path id="TimesNewRomanPSMT-51" d="M 2819 -47 
Q 3138 -597 3508 -856 
Q 3878 -1116 4350 -1153 
L 4350 -1253 
Q 3919 -1238 3428 -1080 
Q 2938 -922 2498 -642 
Q 2059 -363 1741 -47 
Q 1291 134 1028 338 
Q 647 641 436 1083 
Q 225 1525 225 2128 
Q 225 3078 840 3706 
Q 1456 4334 2331 4334 
Q 3163 4334 3770 3704 
Q 4378 3075 4378 2116 
Q 4378 1338 3945 750 
Q 3513 163 2819 -47 
z
M 2294 4094 
Q 1725 4094 1378 3688 
Q 941 3178 941 2128 
Q 941 1100 1384 544 
Q 1728 116 2294 116 
Q 2881 116 3241 544 
Q 3663 1050 3663 2038 
Q 3663 2797 3431 3316 
Q 3253 3716 2958 3905 
Q 2663 4094 2294 4094 
z
" transform="scale(0.015625)"/>
      <path id="TimesNewRomanPSMT-77" d="M 41 2863 
L 1241 2863 
L 1241 2747 
Q 1075 2734 1023 2687 
Q 972 2641 972 2553 
Q 972 2456 1025 2319 
L 1638 672 
L 2253 2013 
L 2091 2434 
Q 2016 2622 1894 2694 
Q 1825 2738 1638 2747 
L 1638 2863 
L 3000 2863 
L 3000 2747 
Q 2775 2738 2681 2666 
Q 2619 2616 2619 2506 
Q 2619 2444 2644 2378 
L 3294 734 
L 3897 2319 
Q 3959 2488 3959 2588 
Q 3959 2647 3898 2694 
Q 3838 2741 3659 2747 
L 3659 2863 
L 4563 2863 
L 4563 2747 
Q 4291 2706 4163 2378 
L 3206 -88 
L 3078 -88 
L 2363 1741 
L 1528 -88 
L 1413 -88 
L 494 2319 
Q 403 2547 315 2626 
Q 228 2706 41 2747 
L 41 2863 
z
" transform="scale(0.015625)"/>
      <path id="TimesNewRomanPSMT-2d" d="M 259 1672 
L 1875 1672 
L 1875 1200 
L 259 1200 
L 259 1672 
z
" transform="scale(0.015625)"/>
      <path id="TimesNewRomanPSMT-37" d="M 644 4238 
L 2916 4238 
L 2916 4119 
L 1503 -88 
L 1153 -88 
L 2419 3728 
L 1253 3728 
Q 900 3728 750 3644 
Q 488 3500 328 3200 
L 238 3234 
L 644 4238 
z
" transform="scale(0.015625)"/>
      <path id="TimesNewRomanPSMT-42" d="M 2956 2163 
Q 3397 2069 3616 1863 
Q 3919 1575 3919 1159 
Q 3919 844 3719 555 
Q 3519 266 3170 133 
Q 2822 0 2106 0 
L 106 0 
L 106 116 
L 266 116 
Q 531 116 647 284 
Q 719 394 719 750 
L 719 3488 
Q 719 3881 628 3984 
Q 506 4122 266 4122 
L 106 4122 
L 106 4238 
L 1938 4238 
Q 2450 4238 2759 4163 
Q 3228 4050 3475 3764 
Q 3722 3478 3722 3106 
Q 3722 2788 3528 2536 
Q 3334 2284 2956 2163 
z
M 1319 2331 
Q 1434 2309 1582 2298 
Q 1731 2288 1909 2288 
Q 2366 2288 2595 2386 
Q 2825 2484 2947 2687 
Q 3069 2891 3069 3131 
Q 3069 3503 2766 3765 
Q 2463 4028 1881 4028 
Q 1569 4028 1319 3959 
L 1319 2331 
z
M 1319 306 
Q 1681 222 2034 222 
Q 2600 222 2897 476 
Q 3194 731 3194 1106 
Q 3194 1353 3059 1581 
Q 2925 1809 2622 1940 
Q 2319 2072 1872 2072 
Q 1678 2072 1540 2065 
Q 1403 2059 1319 2044 
L 1319 306 
z
" transform="scale(0.015625)"/>
      <path id="TimesNewRomanPSMT-3a" d="M 903 2950 
Q 1047 2950 1148 2848 
Q 1250 2747 1250 2603 
Q 1250 2459 1148 2357 
Q 1047 2256 903 2256 
Q 759 2256 657 2357 
Q 556 2459 556 2603 
Q 556 2747 657 2848 
Q 759 2950 903 2950 
z
M 897 609 
Q 1044 609 1145 506 
Q 1247 403 1247 259 
Q 1247 116 1144 14 
Q 1041 -88 897 -88 
Q 753 -88 651 14 
Q 550 116 550 259 
Q 550 403 651 506 
Q 753 609 897 609 
z
" transform="scale(0.015625)"/>
      <path id="TimesNewRomanPSMT-2e" d="M 800 606 
Q 947 606 1047 504 
Q 1147 403 1147 259 
Q 1147 116 1045 14 
Q 944 -88 800 -88 
Q 656 -88 554 14 
Q 453 116 453 259 
Q 453 406 554 506 
Q 656 606 800 606 
z
" transform="scale(0.015625)"/>
     </defs>
     <use xlink:href="#TimesNewRomanPSMT-51"/>
     <use xlink:href="#TimesNewRomanPSMT-77" x="72.216797"/>
     <use xlink:href="#TimesNewRomanPSMT-65" x="144.433594"/>
     <use xlink:href="#TimesNewRomanPSMT-6e" x="188.818359"/>
     <use xlink:href="#TimesNewRomanPSMT-32" x="238.818359"/>
     <use xlink:href="#TimesNewRomanPSMT-2d" x="288.818359"/>
     <use xlink:href="#TimesNewRomanPSMT-37" x="322.119141"/>
     <use xlink:href="#TimesNewRomanPSMT-42" x="372.119141"/>
     <use xlink:href="#TimesNewRomanPSMT-3a" x="438.818359"/>
     <use xlink:href="#TimesNewRomanPSMT-38" x="466.601562"/>
     <use xlink:href="#TimesNewRomanPSMT-31" x="516.601562"/>
     <use xlink:href="#TimesNewRomanPSMT-2e" x="566.601562"/>
     <use xlink:href="#TimesNewRomanPSMT-32" x="591.601562"/>
     <use xlink:href="#TimesNewRomanPSMT-38" x="641.601562"/>
    </g>
   </g>
   <g id="text_14">
    <!-- Qwen2-72B:85.78 -->
    <g style="fill: #87cefa" transform="translate(1603.501531 110.570625) scale(0.44 -0.44)">
     <defs>
      <path id="TimesNewRomanPSMT-35" d="M 2778 4238 
L 2534 3706 
L 1259 3706 
L 981 3138 
Q 1809 3016 2294 2522 
Q 2709 2097 2709 1522 
Q 2709 1188 2573 903 
Q 2438 619 2231 419 
Q 2025 219 1772 97 
Q 1413 -75 1034 -75 
Q 653 -75 479 54 
Q 306 184 306 341 
Q 306 428 378 495 
Q 450 563 559 563 
Q 641 563 702 538 
Q 763 513 909 409 
Q 1144 247 1384 247 
Q 1750 247 2026 523 
Q 2303 800 2303 1197 
Q 2303 1581 2056 1914 
Q 1809 2247 1375 2428 
Q 1034 2569 447 2591 
L 1259 4238 
L 2778 4238 
z
" transform="scale(0.015625)"/>
     </defs>
     <use xlink:href="#TimesNewRomanPSMT-51"/>
     <use xlink:href="#TimesNewRomanPSMT-77" x="72.216797"/>
     <use xlink:href="#TimesNewRomanPSMT-65" x="144.433594"/>
     <use xlink:href="#TimesNewRomanPSMT-6e" x="188.818359"/>
     <use xlink:href="#TimesNewRomanPSMT-32" x="238.818359"/>
     <use xlink:href="#TimesNewRomanPSMT-2d" x="288.818359"/>
     <use xlink:href="#TimesNewRomanPSMT-37" x="322.119141"/>
     <use xlink:href="#TimesNewRomanPSMT-32" x="372.119141"/>
     <use xlink:href="#TimesNewRomanPSMT-42" x="422.119141"/>
     <use xlink:href="#TimesNewRomanPSMT-3a" x="488.818359"/>
     <use xlink:href="#TimesNewRomanPSMT-38" x="516.601562"/>
     <use xlink:href="#TimesNewRomanPSMT-35" x="566.601562"/>
     <use xlink:href="#TimesNewRomanPSMT-2e" x="616.601562"/>
     <use xlink:href="#TimesNewRomanPSMT-37" x="641.601562"/>
     <use xlink:href="#TimesNewRomanPSMT-38" x="691.601562"/>
    </g>
   </g>
   <g id="text_15">
    <!-- Claude:92.08 -->
    <g style="fill: #90ee90" transform="translate(1901.955721 110.570625) scale(0.44 -0.44)">
     <defs>
      <path id="TimesNewRomanPSMT-6c" d="M 1184 4444 
L 1184 647 
Q 1184 378 1223 290 
Q 1263 203 1344 158 
Q 1425 113 1647 113 
L 1647 0 
L 244 0 
L 244 113 
Q 441 113 512 153 
Q 584 194 625 287 
Q 666 381 666 647 
L 666 3247 
Q 666 3731 644 3842 
Q 622 3953 573 3993 
Q 525 4034 450 4034 
Q 369 4034 244 3984 
L 191 4094 
L 1044 4444 
L 1184 4444 
z
" transform="scale(0.015625)"/>
      <path id="TimesNewRomanPSMT-64" d="M 2222 322 
Q 2013 103 1813 7 
Q 1613 -88 1381 -88 
Q 913 -88 563 304 
Q 213 697 213 1313 
Q 213 1928 600 2439 
Q 988 2950 1597 2950 
Q 1975 2950 2222 2709 
L 2222 3238 
Q 2222 3728 2198 3840 
Q 2175 3953 2125 3993 
Q 2075 4034 2000 4034 
Q 1919 4034 1784 3984 
L 1744 4094 
L 2597 4444 
L 2738 4444 
L 2738 1134 
Q 2738 631 2761 520 
Q 2784 409 2836 365 
Q 2888 322 2956 322 
Q 3041 322 3181 375 
L 3216 266 
L 2366 -88 
L 2222 -88 
L 2222 322 
z
M 2222 541 
L 2222 2016 
Q 2203 2228 2109 2403 
Q 2016 2578 1861 2667 
Q 1706 2756 1559 2756 
Q 1284 2756 1069 2509 
Q 784 2184 784 1559 
Q 784 928 1059 592 
Q 1334 256 1672 256 
Q 1956 256 2222 541 
z
" transform="scale(0.015625)"/>
      <path id="TimesNewRomanPSMT-39" d="M 338 -88 
L 338 28 
Q 744 34 1094 217 
Q 1444 400 1770 856 
Q 2097 1313 2225 1859 
Q 1734 1544 1338 1544 
Q 891 1544 572 1889 
Q 253 2234 253 2806 
Q 253 3363 572 3797 
Q 956 4325 1575 4325 
Q 2097 4325 2469 3894 
Q 2925 3359 2925 2575 
Q 2925 1869 2578 1258 
Q 2231 647 1613 244 
Q 1109 -88 516 -88 
L 338 -88 
z
M 2275 2091 
Q 2331 2497 2331 2741 
Q 2331 3044 2228 3395 
Q 2125 3747 1936 3934 
Q 1747 4122 1506 4122 
Q 1228 4122 1018 3872 
Q 809 3622 809 3128 
Q 809 2469 1088 2097 
Q 1291 1828 1588 1828 
Q 1731 1828 1928 1897 
Q 2125 1966 2275 2091 
z
" transform="scale(0.015625)"/>
     </defs>
     <use xlink:href="#TimesNewRomanPSMT-43"/>
     <use xlink:href="#TimesNewRomanPSMT-6c" x="66.699219"/>
     <use xlink:href="#TimesNewRomanPSMT-61" x="94.482422"/>
     <use xlink:href="#TimesNewRomanPSMT-75" x="138.867188"/>
     <use xlink:href="#TimesNewRomanPSMT-64" x="188.867188"/>
     <use xlink:href="#TimesNewRomanPSMT-65" x="238.867188"/>
     <use xlink:href="#TimesNewRomanPSMT-3a" x="283.251953"/>
     <use xlink:href="#TimesNewRomanPSMT-39" x="311.035156"/>
     <use xlink:href="#TimesNewRomanPSMT-32" x="361.035156"/>
     <use xlink:href="#TimesNewRomanPSMT-2e" x="411.035156"/>
     <use xlink:href="#TimesNewRomanPSMT-30" x="436.035156"/>
     <use xlink:href="#TimesNewRomanPSMT-38" x="486.035156"/>
    </g>
   </g>
   <g id="text_16">
    <!-- Distribution of Max Total Scores -->
    <g transform="translate(561.581199 43.3075) scale(0.52 -0.52)">
     <defs>
      <path id="TimesNewRomanPSMT-44" d="M 109 0 
L 109 116 
L 269 116 
Q 538 116 650 288 
Q 719 391 719 750 
L 719 3488 
Q 719 3884 631 3984 
Q 509 4122 269 4122 
L 109 4122 
L 109 4238 
L 1834 4238 
Q 2784 4238 3279 4022 
Q 3775 3806 4076 3303 
Q 4378 2800 4378 2141 
Q 4378 1256 3841 663 
Q 3238 0 2003 0 
L 109 0 
z
M 1319 306 
Q 1716 219 1984 219 
Q 2709 219 3187 728 
Q 3666 1238 3666 2109 
Q 3666 2988 3187 3494 
Q 2709 4000 1959 4000 
Q 1678 4000 1319 3909 
L 1319 306 
z
" transform="scale(0.015625)"/>
      <path id="TimesNewRomanPSMT-69" d="M 928 4444 
Q 1059 4444 1151 4351 
Q 1244 4259 1244 4128 
Q 1244 3997 1151 3903 
Q 1059 3809 928 3809 
Q 797 3809 703 3903 
Q 609 3997 609 4128 
Q 609 4259 701 4351 
Q 794 4444 928 4444 
z
M 1188 2947 
L 1188 647 
Q 1188 378 1227 289 
Q 1266 200 1342 156 
Q 1419 113 1622 113 
L 1622 0 
L 231 0 
L 231 113 
Q 441 113 512 153 
Q 584 194 626 287 
Q 669 381 669 647 
L 669 1750 
Q 669 2216 641 2353 
Q 619 2453 572 2492 
Q 525 2531 444 2531 
Q 356 2531 231 2484 
L 188 2597 
L 1050 2947 
L 1188 2947 
z
" transform="scale(0.015625)"/>
      <path id="TimesNewRomanPSMT-62" d="M 984 2369 
Q 1400 2947 1881 2947 
Q 2322 2947 2650 2570 
Q 2978 2194 2978 1541 
Q 2978 778 2472 313 
Q 2038 -88 1503 -88 
Q 1253 -88 995 3 
Q 738 94 469 275 
L 469 3241 
Q 469 3728 445 3840 
Q 422 3953 372 3993 
Q 322 4034 247 4034 
Q 159 4034 28 3984 
L -16 4094 
L 844 4444 
L 984 4444 
L 984 2369 
z
M 984 2169 
L 984 456 
Q 1144 300 1314 220 
Q 1484 141 1663 141 
Q 1947 141 2192 453 
Q 2438 766 2438 1363 
Q 2438 1913 2192 2208 
Q 1947 2503 1634 2503 
Q 1469 2503 1303 2419 
Q 1178 2356 984 2169 
z
" transform="scale(0.015625)"/>
      <path id="TimesNewRomanPSMT-4d" d="M 2619 0 
L 981 3566 
L 981 734 
Q 981 344 1066 247 
Q 1181 116 1431 116 
L 1581 116 
L 1581 0 
L 106 0 
L 106 116 
L 256 116 
Q 525 116 638 278 
Q 706 378 706 734 
L 706 3503 
Q 706 3784 644 3909 
Q 600 4000 483 4061 
Q 366 4122 106 4122 
L 106 4238 
L 1306 4238 
L 2844 922 
L 4356 4238 
L 5556 4238 
L 5556 4122 
L 5409 4122 
Q 5138 4122 5025 3959 
Q 4956 3859 4956 3503 
L 4956 734 
Q 4956 344 5044 247 
Q 5159 116 5409 116 
L 5556 116 
L 5556 0 
L 3756 0 
L 3756 116 
L 3906 116 
Q 4178 116 4288 278 
Q 4356 378 4356 734 
L 4356 3566 
L 2722 0 
L 2619 0 
z
" transform="scale(0.015625)"/>
      <path id="TimesNewRomanPSMT-78" d="M 84 2863 
L 1431 2863 
L 1431 2747 
Q 1303 2747 1251 2703 
Q 1200 2659 1200 2588 
Q 1200 2513 1309 2356 
Q 1344 2306 1413 2200 
L 1616 1875 
L 1850 2200 
Q 2075 2509 2075 2591 
Q 2075 2656 2022 2701 
Q 1969 2747 1850 2747 
L 1850 2863 
L 2819 2863 
L 2819 2747 
Q 2666 2738 2553 2663 
Q 2400 2556 2134 2200 
L 1744 1678 
L 2456 653 
Q 2719 275 2831 198 
Q 2944 122 3122 113 
L 3122 0 
L 1772 0 
L 1772 113 
Q 1913 113 1991 175 
Q 2050 219 2050 291 
Q 2050 363 1850 653 
L 1431 1266 
L 972 653 
Q 759 369 759 316 
Q 759 241 829 180 
Q 900 119 1041 113 
L 1041 0 
L 106 0 
L 106 113 
Q 219 128 303 191 
Q 422 281 703 653 
L 1303 1450 
L 759 2238 
Q 528 2575 401 2661 
Q 275 2747 84 2747 
L 84 2863 
z
" transform="scale(0.015625)"/>
      <path id="TimesNewRomanPSMT-54" d="M 3703 4238 
L 3750 3244 
L 3631 3244 
Q 3597 3506 3538 3619 
Q 3441 3800 3280 3886 
Q 3119 3972 2856 3972 
L 2259 3972 
L 2259 734 
Q 2259 344 2344 247 
Q 2463 116 2709 116 
L 2856 116 
L 2856 0 
L 1059 0 
L 1059 116 
L 1209 116 
Q 1478 116 1591 278 
Q 1659 378 1659 734 
L 1659 3972 
L 1150 3972 
Q 853 3972 728 3928 
Q 566 3869 450 3700 
Q 334 3531 313 3244 
L 194 3244 
L 244 4238 
L 3703 4238 
z
" transform="scale(0.015625)"/>
     </defs>
     <use xlink:href="#TimesNewRomanPSMT-44"/>
     <use xlink:href="#TimesNewRomanPSMT-69" x="72.216797"/>
     <use xlink:href="#TimesNewRomanPSMT-73" x="100"/>
     <use xlink:href="#TimesNewRomanPSMT-74" x="138.916016"/>
     <use xlink:href="#TimesNewRomanPSMT-72" x="166.699219"/>
     <use xlink:href="#TimesNewRomanPSMT-69" x="200"/>
     <use xlink:href="#TimesNewRomanPSMT-62" x="227.783203"/>
     <use xlink:href="#TimesNewRomanPSMT-75" x="277.783203"/>
     <use xlink:href="#TimesNewRomanPSMT-74" x="327.783203"/>
     <use xlink:href="#TimesNewRomanPSMT-69" x="355.566406"/>
     <use xlink:href="#TimesNewRomanPSMT-6f" x="383.349609"/>
     <use xlink:href="#TimesNewRomanPSMT-6e" x="433.349609"/>
     <use xlink:href="#TimesNewRomanPSMT-20" x="483.349609"/>
     <use xlink:href="#TimesNewRomanPSMT-6f" x="508.349609"/>
     <use xlink:href="#TimesNewRomanPSMT-66" x="558.349609"/>
     <use xlink:href="#TimesNewRomanPSMT-20" x="591.650391"/>
     <use xlink:href="#TimesNewRomanPSMT-4d" x="616.650391"/>
     <use xlink:href="#TimesNewRomanPSMT-61" x="705.566406"/>
     <use xlink:href="#TimesNewRomanPSMT-78" x="749.951172"/>
     <use xlink:href="#TimesNewRomanPSMT-20" x="799.951172"/>
     <use xlink:href="#TimesNewRomanPSMT-54" x="823.201172"/>
     <use xlink:href="#TimesNewRomanPSMT-6f" x="877.285156"/>
     <use xlink:href="#TimesNewRomanPSMT-74" x="927.285156"/>
     <use xlink:href="#TimesNewRomanPSMT-61" x="955.068359"/>
     <use xlink:href="#TimesNewRomanPSMT-6c" x="999.453125"/>
     <use xlink:href="#TimesNewRomanPSMT-20" x="1027.236328"/>
     <use xlink:href="#TimesNewRomanPSMT-53" x="1052.236328"/>
     <use xlink:href="#TimesNewRomanPSMT-63" x="1107.851562"/>
     <use xlink:href="#TimesNewRomanPSMT-6f" x="1152.236328"/>
     <use xlink:href="#TimesNewRomanPSMT-72" x="1202.236328"/>
     <use xlink:href="#TimesNewRomanPSMT-65" x="1235.537109"/>
     <use xlink:href="#TimesNewRomanPSMT-73" x="1279.921875"/>
    </g>
   </g>
   <g id="legend_1">
    <g id="patch_64">
     <path d="M 200.571959 491.219375 
L 713.233834 491.219375 
Q 722.033834 491.219375 722.033834 482.419375 
L 722.033834 113.300625 
Q 722.033834 104.500625 713.233834 104.500625 
L 200.571959 104.500625 
Q 191.771959 104.500625 191.771959 113.300625 
L 191.771959 482.419375 
Q 191.771959 491.219375 200.571959 491.219375 
z
" style="fill: #ffffff; opacity: 0.8; stroke: #cccccc; stroke-linejoin: miter"/>
    </g>
    <g id="line2d_17">
     <path d="M 209.371959 137.500625 
L 253.371959 137.500625 
L 297.371959 137.500625 
" style="fill: none; stroke-dasharray: 18.5,8; stroke-dashoffset: 0; stroke: #f08080; stroke-opacity: 0.7; stroke-width: 5"/>
    </g>
    <g id="text_17">
     <!-- Average Qwen2-7B -->
     <g transform="translate(332.571959 152.900625) scale(0.44 -0.44)">
      <defs>
       <path id="TimesNewRomanPSMT-41" d="M 2928 1419 
L 1288 1419 
L 1000 750 
Q 894 503 894 381 
Q 894 284 986 211 
Q 1078 138 1384 116 
L 1384 0 
L 50 0 
L 50 116 
Q 316 163 394 238 
Q 553 388 747 847 
L 2238 4334 
L 2347 4334 
L 3822 809 
Q 4000 384 4145 257 
Q 4291 131 4550 116 
L 4550 0 
L 2878 0 
L 2878 116 
Q 3131 128 3220 200 
Q 3309 272 3309 375 
Q 3309 513 3184 809 
L 2928 1419 
z
M 2841 1650 
L 2122 3363 
L 1384 1650 
L 2841 1650 
z
" transform="scale(0.015625)"/>
       <path id="TimesNewRomanPSMT-76" d="M 53 2863 
L 1400 2863 
L 1400 2747 
L 1313 2747 
Q 1191 2747 1127 2687 
Q 1063 2628 1063 2528 
Q 1063 2419 1128 2269 
L 1794 688 
L 2463 2328 
Q 2534 2503 2534 2594 
Q 2534 2638 2509 2666 
Q 2475 2713 2422 2730 
Q 2369 2747 2206 2747 
L 2206 2863 
L 3141 2863 
L 3141 2747 
Q 2978 2734 2916 2681 
Q 2806 2588 2719 2369 
L 1703 -88 
L 1575 -88 
L 553 2328 
Q 484 2497 421 2570 
Q 359 2644 263 2694 
Q 209 2722 53 2747 
L 53 2863 
z
" transform="scale(0.015625)"/>
      </defs>
      <use xlink:href="#TimesNewRomanPSMT-41"/>
      <use xlink:href="#TimesNewRomanPSMT-76" x="64.841797"/>
      <use xlink:href="#TimesNewRomanPSMT-65" x="114.841797"/>
      <use xlink:href="#TimesNewRomanPSMT-72" x="159.226562"/>
      <use xlink:href="#TimesNewRomanPSMT-61" x="192.527344"/>
      <use xlink:href="#TimesNewRomanPSMT-67" x="236.912109"/>
      <use xlink:href="#TimesNewRomanPSMT-65" x="286.912109"/>
      <use xlink:href="#TimesNewRomanPSMT-20" x="331.296875"/>
      <use xlink:href="#TimesNewRomanPSMT-51" x="356.296875"/>
      <use xlink:href="#TimesNewRomanPSMT-77" x="428.513672"/>
      <use xlink:href="#TimesNewRomanPSMT-65" x="500.730469"/>
      <use xlink:href="#TimesNewRomanPSMT-6e" x="545.115234"/>
      <use xlink:href="#TimesNewRomanPSMT-32" x="595.115234"/>
      <use xlink:href="#TimesNewRomanPSMT-2d" x="645.115234"/>
      <use xlink:href="#TimesNewRomanPSMT-37" x="678.416016"/>
      <use xlink:href="#TimesNewRomanPSMT-42" x="728.416016"/>
     </g>
    </g>
    <g id="line2d_18">
     <path d="M 209.371959 199.795 
L 253.371959 199.795 
L 297.371959 199.795 
" style="fill: none; stroke-dasharray: 18.5,8; stroke-dashoffset: 0; stroke: #87cefa; stroke-opacity: 0.7; stroke-width: 5"/>
    </g>
    <g id="text_18">
     <!-- Average Qwen2-72B -->
     <g transform="translate(332.571959 215.195) scale(0.44 -0.44)">
      <use xlink:href="#TimesNewRomanPSMT-41"/>
      <use xlink:href="#TimesNewRomanPSMT-76" x="64.841797"/>
      <use xlink:href="#TimesNewRomanPSMT-65" x="114.841797"/>
      <use xlink:href="#TimesNewRomanPSMT-72" x="159.226562"/>
      <use xlink:href="#TimesNewRomanPSMT-61" x="192.527344"/>
      <use xlink:href="#TimesNewRomanPSMT-67" x="236.912109"/>
      <use xlink:href="#TimesNewRomanPSMT-65" x="286.912109"/>
      <use xlink:href="#TimesNewRomanPSMT-20" x="331.296875"/>
      <use xlink:href="#TimesNewRomanPSMT-51" x="356.296875"/>
      <use xlink:href="#TimesNewRomanPSMT-77" x="428.513672"/>
      <use xlink:href="#TimesNewRomanPSMT-65" x="500.730469"/>
      <use xlink:href="#TimesNewRomanPSMT-6e" x="545.115234"/>
      <use xlink:href="#TimesNewRomanPSMT-32" x="595.115234"/>
      <use xlink:href="#TimesNewRomanPSMT-2d" x="645.115234"/>
      <use xlink:href="#TimesNewRomanPSMT-37" x="678.416016"/>
      <use xlink:href="#TimesNewRomanPSMT-32" x="728.416016"/>
      <use xlink:href="#TimesNewRomanPSMT-42" x="778.416016"/>
     </g>
    </g>
    <g id="line2d_19">
     <path d="M 209.371959 262.089375 
L 253.371959 262.089375 
L 297.371959 262.089375 
" style="fill: none; stroke-dasharray: 18.5,8; stroke-dashoffset: 0; stroke: #90ee90; stroke-opacity: 0.7; stroke-width: 5"/>
    </g>
    <g id="text_19">
     <!-- Average Claude -->
     <g transform="translate(332.571959 277.489375) scale(0.44 -0.44)">
      <use xlink:href="#TimesNewRomanPSMT-41"/>
      <use xlink:href="#TimesNewRomanPSMT-76" x="64.841797"/>
      <use xlink:href="#TimesNewRomanPSMT-65" x="114.841797"/>
      <use xlink:href="#TimesNewRomanPSMT-72" x="159.226562"/>
      <use xlink:href="#TimesNewRomanPSMT-61" x="192.527344"/>
      <use xlink:href="#TimesNewRomanPSMT-67" x="236.912109"/>
      <use xlink:href="#TimesNewRomanPSMT-65" x="286.912109"/>
      <use xlink:href="#TimesNewRomanPSMT-20" x="331.296875"/>
      <use xlink:href="#TimesNewRomanPSMT-43" x="356.296875"/>
      <use xlink:href="#TimesNewRomanPSMT-6c" x="422.996094"/>
      <use xlink:href="#TimesNewRomanPSMT-61" x="450.779297"/>
      <use xlink:href="#TimesNewRomanPSMT-75" x="495.164062"/>
      <use xlink:href="#TimesNewRomanPSMT-64" x="545.164062"/>
      <use xlink:href="#TimesNewRomanPSMT-65" x="595.164062"/>
     </g>
    </g>
    <g id="patch_65">
     <path d="M 209.371959 339.78375 
L 297.371959 339.78375 
L 297.371959 308.98375 
L 209.371959 308.98375 
z
" style="fill: #f08080; fill-opacity: 0.5; stroke: #000000; stroke-linejoin: miter"/>
    </g>
    <g id="text_20">
     <!-- Qwen2-7B -->
     <g transform="translate(332.571959 339.78375) scale(0.44 -0.44)">
      <use xlink:href="#TimesNewRomanPSMT-51"/>
      <use xlink:href="#TimesNewRomanPSMT-77" x="72.216797"/>
      <use xlink:href="#TimesNewRomanPSMT-65" x="144.433594"/>
      <use xlink:href="#TimesNewRomanPSMT-6e" x="188.818359"/>
      <use xlink:href="#TimesNewRomanPSMT-32" x="238.818359"/>
      <use xlink:href="#TimesNewRomanPSMT-2d" x="288.818359"/>
      <use xlink:href="#TimesNewRomanPSMT-37" x="322.119141"/>
      <use xlink:href="#TimesNewRomanPSMT-42" x="372.119141"/>
     </g>
    </g>
    <g id="patch_66">
     <path d="M 209.371959 401.995625 
L 297.371959 401.995625 
L 297.371959 371.195625 
L 209.371959 371.195625 
z
" style="fill: #87cefa; fill-opacity: 0.5; stroke: #000000; stroke-linejoin: miter"/>
    </g>
    <g id="text_21">
     <!-- Qwen2-72B -->
     <g transform="translate(332.571959 401.995625) scale(0.44 -0.44)">
      <use xlink:href="#TimesNewRomanPSMT-51"/>
      <use xlink:href="#TimesNewRomanPSMT-77" x="72.216797"/>
      <use xlink:href="#TimesNewRomanPSMT-65" x="144.433594"/>
      <use xlink:href="#TimesNewRomanPSMT-6e" x="188.818359"/>
      <use xlink:href="#TimesNewRomanPSMT-32" x="238.818359"/>
      <use xlink:href="#TimesNewRomanPSMT-2d" x="288.818359"/>
      <use xlink:href="#TimesNewRomanPSMT-37" x="322.119141"/>
      <use xlink:href="#TimesNewRomanPSMT-32" x="372.119141"/>
      <use xlink:href="#TimesNewRomanPSMT-42" x="422.119141"/>
     </g>
    </g>
    <g id="patch_67">
     <path d="M 209.371959 464.2075 
L 297.371959 464.2075 
L 297.371959 433.4075 
L 209.371959 433.4075 
z
" style="fill: #90ee90; fill-opacity: 0.5; stroke: #000000; stroke-linejoin: miter"/>
    </g>
    <g id="text_22">
     <!-- Claude -->
     <g transform="translate(332.571959 464.2075) scale(0.44 -0.44)">
      <use xlink:href="#TimesNewRomanPSMT-43"/>
      <use xlink:href="#TimesNewRomanPSMT-6c" x="66.699219"/>
      <use xlink:href="#TimesNewRomanPSMT-61" x="94.482422"/>
      <use xlink:href="#TimesNewRomanPSMT-75" x="138.867188"/>
      <use xlink:href="#TimesNewRomanPSMT-64" x="188.867188"/>
      <use xlink:href="#TimesNewRomanPSMT-65" x="238.867188"/>
     </g>
    </g>
   </g>
  </g>
 </g>
 <defs>
  <clipPath id="p56b781880e">
   <rect x="102.246875" y="54.430625" width="1604.467398" height="561.4"/>
  </clipPath>
 </defs>
</svg>
