<?xml version="1.0" encoding="utf-8" standalone="no"?>
<!DOCTYPE svg PUBLIC "-//W3C//DTD SVG 1.1//EN"
  "http://www.w3.org/Graphics/SVG/1.1/DTD/svg11.dtd">
<svg xmlns:xlink="http://www.w3.org/1999/xlink" width="2118.081552pt" height="714.008438pt" viewBox="0 0 2118.081552 714.008438" xmlns="http://www.w3.org/2000/svg" version="1.1">
 <metadata>
  <rdf:RDF xmlns:dc="http://purl.org/dc/elements/1.1/" xmlns:cc="http://creativecommons.org/ns#" xmlns:rdf="http://www.w3.org/1999/02/22-rdf-syntax-ns#">
   <cc:Work>
    <dc:type rdf:resource="http://purl.org/dc/dcmitype/StillImage"/>
    <dc:date>2024-10-04T17:43:50.056313</dc:date>
    <dc:format>image/svg+xml</dc:format>
    <dc:creator>
     <cc:Agent>
      <dc:title>Matplotlib v3.5.3, https://matplotlib.org/</dc:title>
     </cc:Agent>
    </dc:creator>
   </cc:Work>
  </rdf:RDF>
 </metadata>
 <defs>
  <style type="text/css">*{stroke-linejoin: round; stroke-linecap: butt}</style>
 </defs>
 <g id="figure_1">
  <g id="patch_1">
   <path d="M 0 714.008438 
L 2118.081552 714.008438 
L 2118.081552 0 
L 0 0 
L 0 714.008438 
z
" style="fill: none"/>
  </g>
  <g id="axes_1">
   <g id="patch_2">
    <path d="M 111.505 636.903437 
L 2110.881552 636.903437 
L 2110.881552 53.183437 
L 111.505 53.183437 
L 111.505 636.903437 
z
" style="fill: none"/>
   </g>
   <g id="patch_3">
    <path d="M 124.144737 345.043437 
L 134.48634 345.043437 
L 134.48634 448.465155 
L 124.144737 448.465155 
z
" clip-path="url(#pcd28b8ff60)" style="fill: #90ee90"/>
   </g>
   <g id="patch_4">
    <path d="M 147.126076 345.043437 
L 157.467679 345.043437 
L 157.467679 423.117309 
L 147.126076 423.117309 
z
" clip-path="url(#pcd28b8ff60)" style="fill: #90ee90"/>
   </g>
   <g id="patch_5">
    <path d="M 170.107416 345.043437 
L 180.449019 345.043437 
L 180.449019 397.238484 
L 170.107416 397.238484 
z
" clip-path="url(#pcd28b8ff60)" style="fill: #90ee90"/>
   </g>
   <g id="patch_6">
    <path d="M 193.088756 345.043437 
L 203.430359 345.043437 
L 203.430359 395.273987 
L 193.088756 395.273987 
z
" clip-path="url(#pcd28b8ff60)" style="fill: #90ee90"/>
   </g>
   <g id="patch_7">
    <path d="M 216.070096 345.043437 
L 226.411698 345.043437 
L 226.411698 417.398971 
L 216.070096 417.398971 
z
" clip-path="url(#pcd28b8ff60)" style="fill: #90ee90"/>
   </g>
   <g id="patch_8">
    <path d="M 239.051435 345.043437 
L 249.393038 345.043437 
L 249.393038 381.20531 
L 239.051435 381.20531 
z
" clip-path="url(#pcd28b8ff60)" style="fill: #90ee90"/>
   </g>
   <g id="patch_9">
    <path d="M 262.032775 345.043437 
L 272.374378 345.043437 
L 272.374378 380.980001 
L 262.032775 380.980001 
z
" clip-path="url(#pcd28b8ff60)" style="fill: #90ee90"/>
   </g>
   <g id="patch_10">
    <path d="M 285.014115 345.043437 
L 295.355717 345.043437 
L 295.355717 364.744355 
L 285.014115 364.744355 
z
" clip-path="url(#pcd28b8ff60)" style="fill: #90ee90"/>
   </g>
   <g id="patch_11">
    <path d="M 307.995454 345.043437 
L 318.337057 345.043437 
L 318.337057 390.991915 
L 307.995454 390.991915 
z
" clip-path="url(#pcd28b8ff60)" style="fill: #90ee90"/>
   </g>
   <g id="patch_12">
    <path d="M 330.976794 345.043437 
L 341.318397 345.043437 
L 341.318397 338.780177 
L 330.976794 338.780177 
z
" clip-path="url(#pcd28b8ff60)" style="fill: #90ee90"/>
   </g>
   <g id="patch_13">
    <path d="M 353.958134 345.043437 
L 364.299736 345.043437 
L 364.299736 357.698955 
L 353.958134 357.698955 
z
" clip-path="url(#pcd28b8ff60)" style="fill: #90ee90"/>
   </g>
   <g id="patch_14">
    <path d="M 376.939473 345.043437 
L 387.281076 345.043437 
L 387.281076 403.710994 
L 376.939473 403.710994 
z
" clip-path="url(#pcd28b8ff60)" style="fill: #90ee90"/>
   </g>
   <g id="patch_15">
    <path d="M 399.920813 345.043437 
L 410.262416 345.043437 
L 410.262416 421.811459 
L 399.920813 421.811459 
z
" clip-path="url(#pcd28b8ff60)" style="fill: #90ee90"/>
   </g>
   <g id="patch_16">
    <path d="M 422.902153 345.043437 
L 433.243755 345.043437 
L 433.243755 400.029077 
L 422.902153 400.029077 
z
" clip-path="url(#pcd28b8ff60)" style="fill: #90ee90"/>
   </g>
   <g id="patch_17">
    <path d="M 445.883492 345.043437 
L 456.225095 345.043437 
L 456.225095 322.925054 
L 445.883492 322.925054 
z
" clip-path="url(#pcd28b8ff60)" style="fill: #90ee90"/>
   </g>
   <g id="patch_18">
    <path d="M 468.864832 345.043437 
L 479.206435 345.043437 
L 479.206435 387.310945 
L 468.864832 387.310945 
z
" clip-path="url(#pcd28b8ff60)" style="fill: #90ee90"/>
   </g>
   <g id="patch_19">
    <path d="M 491.846172 345.043437 
L 502.187774 345.043437 
L 502.187774 482.190851 
L 491.846172 482.190851 
z
" clip-path="url(#pcd28b8ff60)" style="fill: #90ee90"/>
   </g>
   <g id="patch_20">
    <path d="M 514.827511 345.043437 
L 525.169114 345.043437 
L 525.169114 371.420032 
L 514.827511 371.420032 
z
" clip-path="url(#pcd28b8ff60)" style="fill: #90ee90"/>
   </g>
   <g id="patch_21">
    <path d="M 537.808851 345.043437 
L 548.150454 345.043437 
L 548.150454 83.080534 
L 537.808851 83.080534 
z
" clip-path="url(#pcd28b8ff60)" style="fill: #90ee90"/>
   </g>
   <g id="patch_22">
    <path d="M 560.790191 345.043437 
L 571.131793 345.043437 
L 571.131793 380.925056 
L 560.790191 380.925056 
z
" clip-path="url(#pcd28b8ff60)" style="fill: #90ee90"/>
   </g>
   <g id="patch_23">
    <path d="M 583.77153 345.043437 
L 594.113133 345.043437 
L 594.113133 355.790737 
L 583.77153 355.790737 
z
" clip-path="url(#pcd28b8ff60)" style="fill: #90ee90"/>
   </g>
   <g id="patch_24">
    <path d="M 606.75287 345.043437 
L 617.094473 345.043437 
L 617.094473 432.847693 
L 606.75287 432.847693 
z
" clip-path="url(#pcd28b8ff60)" style="fill: #90ee90"/>
   </g>
   <g id="patch_25">
    <path d="M 629.73421 345.043437 
L 640.075813 345.043437 
L 640.075813 418.629733 
L 629.73421 418.629733 
z
" clip-path="url(#pcd28b8ff60)" style="fill: #90ee90"/>
   </g>
   <g id="patch_26">
    <path d="M 652.715549 345.043437 
L 663.057152 345.043437 
L 663.057152 351.33255 
L 652.715549 351.33255 
z
" clip-path="url(#pcd28b8ff60)" style="fill: #90ee90"/>
   </g>
   <g id="patch_27">
    <path d="M 675.696889 345.043437 
L 686.038492 345.043437 
L 686.038492 196.567089 
L 675.696889 196.567089 
z
" clip-path="url(#pcd28b8ff60)" style="fill: #90ee90"/>
   </g>
   <g id="patch_28">
    <path d="M 698.678229 345.043437 
L 709.019832 345.043437 
L 709.019832 363.879886 
L 698.678229 363.879886 
z
" clip-path="url(#pcd28b8ff60)" style="fill: #90ee90"/>
   </g>
   <g id="patch_29">
    <path d="M 721.659568 345.043437 
L 732.001171 345.043437 
L 732.001171 446.933446 
L 721.659568 446.933446 
z
" clip-path="url(#pcd28b8ff60)" style="fill: #90ee90"/>
   </g>
   <g id="patch_30">
    <path d="M 744.640908 345.043437 
L 754.982511 345.043437 
L 754.982511 356.290373 
L 744.640908 356.290373 
z
" clip-path="url(#pcd28b8ff60)" style="fill: #90ee90"/>
   </g>
   <g id="patch_31">
    <path d="M 767.622248 345.043437 
L 777.963851 345.043437 
L 777.963851 420.65553 
L 767.622248 420.65553 
z
" clip-path="url(#pcd28b8ff60)" style="fill: #90ee90"/>
   </g>
   <g id="patch_32">
    <path d="M 790.603587 345.043437 
L 800.94519 345.043437 
L 800.94519 429.42464 
L 790.603587 429.42464 
z
" clip-path="url(#pcd28b8ff60)" style="fill: #90ee90"/>
   </g>
   <g id="patch_33">
    <path d="M 813.584927 345.043437 
L 823.92653 345.043437 
L 823.92653 70.692676 
L 813.584927 70.692676 
z
" clip-path="url(#pcd28b8ff60)" style="fill: #90ee90"/>
   </g>
   <g id="patch_34">
    <path d="M 836.566267 345.043437 
L 846.90787 345.043437 
L 846.90787 353.409704 
L 836.566267 353.409704 
z
" clip-path="url(#pcd28b8ff60)" style="fill: #90ee90"/>
   </g>
   <g id="patch_35">
    <path d="M 859.547606 345.043437 
L 869.889209 345.043437 
L 869.889209 468.866477 
L 859.547606 468.866477 
z
" clip-path="url(#pcd28b8ff60)" style="fill: #90ee90"/>
   </g>
   <g id="patch_36">
    <path d="M 882.528946 345.043437 
L 892.870549 345.043437 
L 892.870549 498.244409 
L 882.528946 498.244409 
z
" clip-path="url(#pcd28b8ff60)" style="fill: #90ee90"/>
   </g>
   <g id="patch_37">
    <path d="M 905.510286 345.043437 
L 915.851889 345.043437 
L 915.851889 414.857938 
L 905.510286 414.857938 
z
" clip-path="url(#pcd28b8ff60)" style="fill: #90ee90"/>
   </g>
   <g id="patch_38">
    <path d="M 928.491625 345.043437 
L 938.833228 345.043437 
L 938.833228 444.251047 
L 928.491625 444.251047 
z
" clip-path="url(#pcd28b8ff60)" style="fill: #90ee90"/>
   </g>
   <g id="patch_39">
    <path d="M 951.472965 345.043437 
L 961.814568 345.043437 
L 961.814568 455.906519 
L 951.472965 455.906519 
z
" clip-path="url(#pcd28b8ff60)" style="fill: #90ee90"/>
   </g>
   <g id="patch_40">
    <path d="M 974.454305 345.043437 
L 984.795908 345.043437 
L 984.795908 427.298297 
L 974.454305 427.298297 
z
" clip-path="url(#pcd28b8ff60)" style="fill: #90ee90"/>
   </g>
   <g id="patch_41">
    <path d="M 997.435644 345.043437 
L 1007.777247 345.043437 
L 1007.777247 466.860883 
L 997.435644 466.860883 
z
" clip-path="url(#pcd28b8ff60)" style="fill: #90ee90"/>
   </g>
   <g id="patch_42">
    <path d="M 1020.416984 345.043437 
L 1030.758587 345.043437 
L 1030.758587 457.917336 
L 1020.416984 457.917336 
z
" clip-path="url(#pcd28b8ff60)" style="fill: #90ee90"/>
   </g>
   <g id="patch_43">
    <path d="M 1043.398324 345.043437 
L 1053.739927 345.043437 
L 1053.739927 369.988616 
L 1043.398324 369.988616 
z
" clip-path="url(#pcd28b8ff60)" style="fill: #90ee90"/>
   </g>
   <g id="patch_44">
    <path d="M 1066.379663 345.043437 
L 1076.721266 345.043437 
L 1076.721266 395.847808 
L 1066.379663 395.847808 
z
" clip-path="url(#pcd28b8ff60)" style="fill: #90ee90"/>
   </g>
   <g id="patch_45">
    <path d="M 1089.361003 345.043437 
L 1099.702606 345.043437 
L 1099.702606 347.004048 
L 1089.361003 347.004048 
z
" clip-path="url(#pcd28b8ff60)" style="fill: #90ee90"/>
   </g>
   <g id="patch_46">
    <path d="M 1112.342343 345.043437 
L 1122.683946 345.043437 
L 1122.683946 482.663064 
L 1112.342343 482.663064 
z
" clip-path="url(#pcd28b8ff60)" style="fill: #90ee90"/>
   </g>
   <g id="patch_47">
    <path d="M 1135.323683 345.043437 
L 1145.665285 345.043437 
L 1145.665285 347.835395 
L 1135.323683 347.835395 
z
" clip-path="url(#pcd28b8ff60)" style="fill: #90ee90"/>
   </g>
   <g id="patch_48">
    <path d="M 1158.305022 345.043437 
L 1168.646625 345.043437 
L 1168.646625 263.140424 
L 1158.305022 263.140424 
z
" clip-path="url(#pcd28b8ff60)" style="fill: #90ee90"/>
   </g>
   <g id="patch_49">
    <path d="M 1181.286362 345.043437 
L 1191.627965 345.043437 
L 1191.627965 209.774811 
L 1181.286362 209.774811 
z
" clip-path="url(#pcd28b8ff60)" style="fill: #90ee90"/>
   </g>
   <g id="patch_50">
    <path d="M 1204.267702 345.043437 
L 1214.609304 345.043437 
L 1214.609304 336.572355 
L 1204.267702 336.572355 
z
" clip-path="url(#pcd28b8ff60)" style="fill: #90ee90"/>
   </g>
   <g id="patch_51">
    <path d="M 1227.249041 345.043437 
L 1237.590644 345.043437 
L 1237.590644 452.926458 
L 1227.249041 452.926458 
z
" clip-path="url(#pcd28b8ff60)" style="fill: #90ee90"/>
   </g>
   <g id="patch_52">
    <path d="M 1250.230381 345.043437 
L 1260.571984 345.043437 
L 1260.571984 292.640906 
L 1250.230381 292.640906 
z
" clip-path="url(#pcd28b8ff60)" style="fill: #90ee90"/>
   </g>
   <g id="patch_53">
    <path d="M 1273.211721 345.043437 
L 1283.553323 345.043437 
L 1283.553323 401.866197 
L 1273.211721 401.866197 
z
" clip-path="url(#pcd28b8ff60)" style="fill: #90ee90"/>
   </g>
   <g id="patch_54">
    <path d="M 1296.19306 345.043437 
L 1306.534663 345.043437 
L 1306.534663 349.241552 
L 1296.19306 349.241552 
z
" clip-path="url(#pcd28b8ff60)" style="fill: #90ee90"/>
   </g>
   <g id="patch_55">
    <path d="M 1319.1744 345.043437 
L 1329.516003 345.043437 
L 1329.516003 314.2841 
L 1319.1744 314.2841 
z
" clip-path="url(#pcd28b8ff60)" style="fill: #90ee90"/>
   </g>
   <g id="patch_56">
    <path d="M 1342.15574 345.043437 
L 1352.497342 345.043437 
L 1352.497342 445.308627 
L 1342.15574 445.308627 
z
" clip-path="url(#pcd28b8ff60)" style="fill: #90ee90"/>
   </g>
   <g id="patch_57">
    <path d="M 1365.137079 345.043437 
L 1375.478682 345.043437 
L 1375.478682 462.897742 
L 1365.137079 462.897742 
z
" clip-path="url(#pcd28b8ff60)" style="fill: #90ee90"/>
   </g>
   <g id="patch_58">
    <path d="M 1388.118419 345.043437 
L 1398.460022 345.043437 
L 1398.460022 364.098697 
L 1388.118419 364.098697 
z
" clip-path="url(#pcd28b8ff60)" style="fill: #90ee90"/>
   </g>
   <g id="patch_59">
    <path d="M 1411.099759 345.043437 
L 1421.441361 345.043437 
L 1421.441361 386.011277 
L 1411.099759 386.011277 
z
" clip-path="url(#pcd28b8ff60)" style="fill: #90ee90"/>
   </g>
   <g id="patch_60">
    <path d="M 1434.081098 345.043437 
L 1444.422701 345.043437 
L 1444.422701 317.063395 
L 1434.081098 317.063395 
z
" clip-path="url(#pcd28b8ff60)" style="fill: #90ee90"/>
   </g>
   <g id="patch_61">
    <path d="M 1457.062438 345.043437 
L 1467.404041 345.043437 
L 1467.404041 383.048547 
L 1457.062438 383.048547 
z
" clip-path="url(#pcd28b8ff60)" style="fill: #90ee90"/>
   </g>
   <g id="patch_62">
    <path d="M 1480.043778 345.043437 
L 1490.38538 345.043437 
L 1490.38538 333.662019 
L 1480.043778 333.662019 
z
" clip-path="url(#pcd28b8ff60)" style="fill: #90ee90"/>
   </g>
   <g id="patch_63">
    <path d="M 1503.025117 345.043437 
L 1513.36672 345.043437 
L 1513.36672 400.816032 
L 1503.025117 400.816032 
z
" clip-path="url(#pcd28b8ff60)" style="fill: #90ee90"/>
   </g>
   <g id="patch_64">
    <path d="M 1526.006457 345.043437 
L 1536.34806 345.043437 
L 1536.34806 270.494006 
L 1526.006457 270.494006 
z
" clip-path="url(#pcd28b8ff60)" style="fill: #90ee90"/>
   </g>
   <g id="patch_65">
    <path d="M 1548.987797 345.043437 
L 1559.3294 345.043437 
L 1559.3294 374.159505 
L 1548.987797 374.159505 
z
" clip-path="url(#pcd28b8ff60)" style="fill: #90ee90"/>
   </g>
   <g id="patch_66">
    <path d="M 1571.969136 345.043437 
L 1582.310739 345.043437 
L 1582.310739 375.317425 
L 1571.969136 375.317425 
z
" clip-path="url(#pcd28b8ff60)" style="fill: #90ee90"/>
   </g>
   <g id="patch_67">
    <path d="M 1594.950476 345.043437 
L 1605.292079 345.043437 
L 1605.292079 358.616461 
L 1594.950476 358.616461 
z
" clip-path="url(#pcd28b8ff60)" style="fill: #90ee90"/>
   </g>
   <g id="patch_68">
    <path d="M 1617.931816 345.043437 
L 1628.273419 345.043437 
L 1628.273419 355.901093 
L 1617.931816 355.901093 
z
" clip-path="url(#pcd28b8ff60)" style="fill: #90ee90"/>
   </g>
   <g id="patch_69">
    <path d="M 1640.913155 345.043437 
L 1651.254758 345.043437 
L 1651.254758 424.535737 
L 1640.913155 424.535737 
z
" clip-path="url(#pcd28b8ff60)" style="fill: #90ee90"/>
   </g>
   <g id="patch_70">
    <path d="M 1663.894495 345.043437 
L 1674.236098 345.043437 
L 1674.236098 447.327452 
L 1663.894495 447.327452 
z
" clip-path="url(#pcd28b8ff60)" style="fill: #90ee90"/>
   </g>
   <g id="patch_71">
    <path d="M 1686.875835 345.043437 
L 1697.217438 345.043437 
L 1697.217438 360.692674 
L 1686.875835 360.692674 
z
" clip-path="url(#pcd28b8ff60)" style="fill: #90ee90"/>
   </g>
   <g id="patch_72">
    <path d="M 1709.857174 345.043437 
L 1720.198777 345.043437 
L 1720.198777 375.107146 
L 1709.857174 375.107146 
z
" clip-path="url(#pcd28b8ff60)" style="fill: #90ee90"/>
   </g>
   <g id="patch_73">
    <path d="M 1732.838514 345.043437 
L 1743.180117 345.043437 
L 1743.180117 400.843602 
L 1732.838514 400.843602 
z
" clip-path="url(#pcd28b8ff60)" style="fill: #90ee90"/>
   </g>
   <g id="patch_74">
    <path d="M 1755.819854 345.043437 
L 1766.161457 345.043437 
L 1766.161457 472.938511 
L 1755.819854 472.938511 
z
" clip-path="url(#pcd28b8ff60)" style="fill: #90ee90"/>
   </g>
   <g id="patch_75">
    <path d="M 1778.801193 345.043437 
L 1789.142796 345.043437 
L 1789.142796 429.548197 
L 1778.801193 429.548197 
z
" clip-path="url(#pcd28b8ff60)" style="fill: #90ee90"/>
   </g>
   <g id="patch_76">
    <path d="M 1801.782533 345.043437 
L 1812.124136 345.043437 
L 1812.124136 368.19565 
L 1801.782533 368.19565 
z
" clip-path="url(#pcd28b8ff60)" style="fill: #90ee90"/>
   </g>
   <g id="patch_77">
    <path d="M 1824.763873 345.043437 
L 1835.105476 345.043437 
L 1835.105476 298.768279 
L 1824.763873 298.768279 
z
" clip-path="url(#pcd28b8ff60)" style="fill: #90ee90"/>
   </g>
   <g id="patch_78">
    <path d="M 1847.745212 345.043437 
L 1858.086815 345.043437 
L 1858.086815 421.525036 
L 1847.745212 421.525036 
z
" clip-path="url(#pcd28b8ff60)" style="fill: #90ee90"/>
   </g>
   <g id="patch_79">
    <path d="M 1870.726552 345.043437 
L 1881.068155 345.043437 
L 1881.068155 373.002594 
L 1870.726552 373.002594 
z
" clip-path="url(#pcd28b8ff60)" style="fill: #90ee90"/>
   </g>
   <g id="patch_80">
    <path d="M 1893.707892 345.043437 
L 1904.049495 345.043437 
L 1904.049495 374.331151 
L 1893.707892 374.331151 
z
" clip-path="url(#pcd28b8ff60)" style="fill: #90ee90"/>
   </g>
   <g id="patch_81">
    <path d="M 1916.689231 345.043437 
L 1927.030834 345.043437 
L 1927.030834 386.868158 
L 1916.689231 386.868158 
z
" clip-path="url(#pcd28b8ff60)" style="fill: #90ee90"/>
   </g>
   <g id="patch_82">
    <path d="M 1939.670571 345.043437 
L 1950.012174 345.043437 
L 1950.012174 471.701511 
L 1939.670571 471.701511 
z
" clip-path="url(#pcd28b8ff60)" style="fill: #90ee90"/>
   </g>
   <g id="patch_83">
    <path d="M 1962.651911 345.043437 
L 1972.993514 345.043437 
L 1972.993514 397.783277 
L 1962.651911 397.783277 
z
" clip-path="url(#pcd28b8ff60)" style="fill: #90ee90"/>
   </g>
   <g id="patch_84">
    <path d="M 1985.63325 345.043437 
L 1995.974853 345.043437 
L 1995.974853 416.522109 
L 1985.63325 416.522109 
z
" clip-path="url(#pcd28b8ff60)" style="fill: #90ee90"/>
   </g>
   <g id="patch_85">
    <path d="M 2008.61459 345.043437 
L 2018.956193 345.043437 
L 2018.956193 360.532746 
L 2008.61459 360.532746 
z
" clip-path="url(#pcd28b8ff60)" style="fill: #90ee90"/>
   </g>
   <g id="patch_86">
    <path d="M 2031.59593 345.043437 
L 2041.937533 345.043437 
L 2041.937533 437.186814 
L 2031.59593 437.186814 
z
" clip-path="url(#pcd28b8ff60)" style="fill: #90ee90"/>
   </g>
   <g id="patch_87">
    <path d="M 2054.57727 345.043437 
L 2064.918872 345.043437 
L 2064.918872 357.252208 
L 2054.57727 357.252208 
z
" clip-path="url(#pcd28b8ff60)" style="fill: #90ee90"/>
   </g>
   <g id="patch_88">
    <path d="M 2077.558609 345.043437 
L 2087.900212 345.043437 
L 2087.900212 63.729534 
L 2077.558609 63.729534 
z
" clip-path="url(#pcd28b8ff60)" style="fill: #90ee90"/>
   </g>
   <g id="patch_89">
    <path d="M 134.48634 345.043437 
L 144.827943 345.043437 
L 144.827943 401.252512 
L 134.48634 401.252512 
z
" clip-path="url(#pcd28b8ff60)" style="fill: #f08080"/>
   </g>
   <g id="patch_90">
    <path d="M 157.467679 345.043437 
L 167.809282 345.043437 
L 167.809282 69.514294 
L 157.467679 69.514294 
z
" clip-path="url(#pcd28b8ff60)" style="fill: #f08080"/>
   </g>
   <g id="patch_91">
    <path d="M 180.449019 345.043437 
L 190.790622 345.043437 
L 190.790622 257.311697 
L 180.449019 257.311697 
z
" clip-path="url(#pcd28b8ff60)" style="fill: #f08080"/>
   </g>
   <g id="patch_92">
    <path d="M 203.430359 345.043437 
L 213.771962 345.043437 
L 213.771962 388.896658 
L 203.430359 388.896658 
z
" clip-path="url(#pcd28b8ff60)" style="fill: #f08080"/>
   </g>
   <g id="patch_93">
    <path d="M 226.411698 345.043437 
L 236.753301 345.043437 
L 236.753301 270.714732 
L 226.411698 270.714732 
z
" clip-path="url(#pcd28b8ff60)" style="fill: #f08080"/>
   </g>
   <g id="patch_94">
    <path d="M 249.393038 345.043437 
L 259.734641 345.043437 
L 259.734641 551.483475 
L 249.393038 551.483475 
z
" clip-path="url(#pcd28b8ff60)" style="fill: #f08080"/>
   </g>
   <g id="patch_95">
    <path d="M 272.374378 345.043437 
L 282.715981 345.043437 
L 282.715981 335.819812 
L 272.374378 335.819812 
z
" clip-path="url(#pcd28b8ff60)" style="fill: #f08080"/>
   </g>
   <g id="patch_96">
    <path d="M 295.355717 345.043437 
L 305.69732 345.043437 
L 305.69732 317.11601 
L 295.355717 317.11601 
z
" clip-path="url(#pcd28b8ff60)" style="fill: #f08080"/>
   </g>
   <g id="patch_97">
    <path d="M 318.337057 345.043437 
L 328.67866 345.043437 
L 328.67866 333.771265 
L 318.337057 333.771265 
z
" clip-path="url(#pcd28b8ff60)" style="fill: #f08080"/>
   </g>
   <g id="patch_98">
    <path d="M 341.318397 345.043437 
L 351.66 345.043437 
L 351.66 125.380604 
L 341.318397 125.380604 
z
" clip-path="url(#pcd28b8ff60)" style="fill: #f08080"/>
   </g>
   <g id="patch_99">
    <path d="M 364.299736 345.043437 
L 374.641339 345.043437 
L 374.641339 445.493053 
L 364.299736 445.493053 
z
" clip-path="url(#pcd28b8ff60)" style="fill: #f08080"/>
   </g>
   <g id="patch_100">
    <path d="M 387.281076 345.043437 
L 397.622679 345.043437 
L 397.622679 353.699439 
L 387.281076 353.699439 
z
" clip-path="url(#pcd28b8ff60)" style="fill: #f08080"/>
   </g>
   <g id="patch_101">
    <path d="M 410.262416 345.043437 
L 420.604019 345.043437 
L 420.604019 81.967662 
L 410.262416 81.967662 
z
" clip-path="url(#pcd28b8ff60)" style="fill: #f08080"/>
   </g>
   <g id="patch_102">
    <path d="M 433.243755 345.043437 
L 443.585358 345.043437 
L 443.585358 329.329518 
L 433.243755 329.329518 
z
" clip-path="url(#pcd28b8ff60)" style="fill: #f08080"/>
   </g>
   <g id="patch_103">
    <path d="M 456.225095 345.043437 
L 466.566698 345.043437 
L 466.566698 198.408058 
L 456.225095 198.408058 
z
" clip-path="url(#pcd28b8ff60)" style="fill: #f08080"/>
   </g>
   <g id="patch_104">
    <path d="M 479.206435 345.043437 
L 489.548038 345.043437 
L 489.548038 108.165809 
L 479.206435 108.165809 
z
" clip-path="url(#pcd28b8ff60)" style="fill: #f08080"/>
   </g>
   <g id="patch_105">
    <path d="M 502.187774 345.043437 
L 512.529377 345.043437 
L 512.529377 605.047379 
L 502.187774 605.047379 
z
" clip-path="url(#pcd28b8ff60)" style="fill: #f08080"/>
   </g>
   <g id="patch_106">
    <path d="M 525.169114 345.043437 
L 535.510717 345.043437 
L 535.510717 358.310225 
L 525.169114 358.310225 
z
" clip-path="url(#pcd28b8ff60)" style="fill: #f08080"/>
   </g>
   <g id="patch_107">
    <path d="M 548.150454 345.043437 
L 558.492057 345.043437 
L 558.492057 53.183437 
L 548.150454 53.183437 
z
" clip-path="url(#pcd28b8ff60)" style="fill: #f08080"/>
   </g>
   <g id="patch_108">
    <path d="M 571.131793 345.043437 
L 581.473396 345.043437 
L 581.473396 365.027091 
L 571.131793 365.027091 
z
" clip-path="url(#pcd28b8ff60)" style="fill: #f08080"/>
   </g>
   <g id="patch_109">
    <path d="M 594.113133 345.043437 
L 604.454736 345.043437 
L 604.454736 347.34385 
L 594.113133 347.34385 
z
" clip-path="url(#pcd28b8ff60)" style="fill: #f08080"/>
   </g>
   <g id="patch_110">
    <path d="M 617.094473 345.043437 
L 627.436076 345.043437 
L 627.436076 465.080434 
L 617.094473 465.080434 
z
" clip-path="url(#pcd28b8ff60)" style="fill: #f08080"/>
   </g>
   <g id="patch_111">
    <path d="M 640.075813 345.043437 
L 650.417415 345.043437 
L 650.417415 298.559218 
L 640.075813 298.559218 
z
" clip-path="url(#pcd28b8ff60)" style="fill: #f08080"/>
   </g>
   <g id="patch_112">
    <path d="M 663.057152 345.043437 
L 673.398755 345.043437 
L 673.398755 53.183437 
L 663.057152 53.183437 
z
" clip-path="url(#pcd28b8ff60)" style="fill: #f08080"/>
   </g>
   <g id="patch_113">
    <path d="M 686.038492 345.043437 
L 696.380095 345.043437 
L 696.380095 327.357463 
L 686.038492 327.357463 
z
" clip-path="url(#pcd28b8ff60)" style="fill: #f08080"/>
   </g>
   <g id="patch_114">
    <path d="M 709.019832 345.043437 
L 719.361434 345.043437 
L 719.361434 288.502669 
L 709.019832 288.502669 
z
" clip-path="url(#pcd28b8ff60)" style="fill: #f08080"/>
   </g>
   <g id="patch_115">
    <path d="M 732.001171 345.043437 
L 742.342774 345.043437 
L 742.342774 129.167149 
L 732.001171 129.167149 
z
" clip-path="url(#pcd28b8ff60)" style="fill: #f08080"/>
   </g>
   <g id="patch_116">
    <path d="M 754.982511 345.043437 
L 765.324114 345.043437 
L 765.324114 123.69965 
L 754.982511 123.69965 
z
" clip-path="url(#pcd28b8ff60)" style="fill: #f08080"/>
   </g>
   <g id="patch_117">
    <path d="M 777.963851 345.043437 
L 788.305453 345.043437 
L 788.305453 260.553726 
L 777.963851 260.553726 
z
" clip-path="url(#pcd28b8ff60)" style="fill: #f08080"/>
   </g>
   <g id="patch_118">
    <path d="M 800.94519 345.043437 
L 811.286793 345.043437 
L 811.286793 216.431502 
L 800.94519 216.431502 
z
" clip-path="url(#pcd28b8ff60)" style="fill: #f08080"/>
   </g>
   <g id="patch_119">
    <path d="M 823.92653 345.043437 
L 834.268133 345.043437 
L 834.268133 238.086476 
L 823.92653 238.086476 
z
" clip-path="url(#pcd28b8ff60)" style="fill: #f08080"/>
   </g>
   <g id="patch_120">
    <path d="M 846.90787 345.043437 
L 857.249472 345.043437 
L 857.249472 340.567073 
L 846.90787 340.567073 
z
" clip-path="url(#pcd28b8ff60)" style="fill: #f08080"/>
   </g>
   <g id="patch_121">
    <path d="M 869.889209 345.043437 
L 880.230812 345.043437 
L 880.230812 331.842939 
L 869.889209 331.842939 
z
" clip-path="url(#pcd28b8ff60)" style="fill: #f08080"/>
   </g>
   <g id="patch_122">
    <path d="M 892.870549 345.043437 
L 903.212152 345.043437 
L 903.212152 392.741326 
L 892.870549 392.741326 
z
" clip-path="url(#pcd28b8ff60)" style="fill: #f08080"/>
   </g>
   <g id="patch_123">
    <path d="M 915.851889 345.043437 
L 926.193491 345.043437 
L 926.193491 387.564098 
L 915.851889 387.564098 
z
" clip-path="url(#pcd28b8ff60)" style="fill: #f08080"/>
   </g>
   <g id="patch_124">
    <path d="M 938.833228 345.043437 
L 949.174831 345.043437 
L 949.174831 347.886307 
L 938.833228 347.886307 
z
" clip-path="url(#pcd28b8ff60)" style="fill: #f08080"/>
   </g>
   <g id="patch_125">
    <path d="M 961.814568 345.043437 
L 972.156171 345.043437 
L 972.156171 406.752407 
L 961.814568 406.752407 
z
" clip-path="url(#pcd28b8ff60)" style="fill: #f08080"/>
   </g>
   <g id="patch_126">
    <path d="M 984.795908 345.043437 
L 995.137511 345.043437 
L 995.137511 63.363937 
L 984.795908 63.363937 
z
" clip-path="url(#pcd28b8ff60)" style="fill: #f08080"/>
   </g>
   <g id="patch_127">
    <path d="M 1007.777247 345.043437 
L 1018.11885 345.043437 
L 1018.11885 357.480709 
L 1007.777247 357.480709 
z
" clip-path="url(#pcd28b8ff60)" style="fill: #f08080"/>
   </g>
   <g id="patch_128">
    <path d="M 1030.758587 345.043437 
L 1041.10019 345.043437 
L 1041.10019 338.717593 
L 1030.758587 338.717593 
z
" clip-path="url(#pcd28b8ff60)" style="fill: #f08080"/>
   </g>
   <g id="patch_129">
    <path d="M 1053.739927 345.043437 
L 1064.08153 345.043437 
L 1064.08153 179.849687 
L 1053.739927 179.849687 
z
" clip-path="url(#pcd28b8ff60)" style="fill: #f08080"/>
   </g>
   <g id="patch_130">
    <path d="M 1076.721266 345.043437 
L 1087.062869 345.043437 
L 1087.062869 327.765534 
L 1076.721266 327.765534 
z
" clip-path="url(#pcd28b8ff60)" style="fill: #f08080"/>
   </g>
   <g id="patch_131">
    <path d="M 1099.702606 345.043437 
L 1110.044209 345.043437 
L 1110.044209 293.662489 
L 1099.702606 293.662489 
z
" clip-path="url(#pcd28b8ff60)" style="fill: #f08080"/>
   </g>
   <g id="patch_132">
    <path d="M 1122.683946 345.043437 
L 1133.025549 345.043437 
L 1133.025549 53.183437 
L 1122.683946 53.183437 
z
" clip-path="url(#pcd28b8ff60)" style="fill: #f08080"/>
   </g>
   <g id="patch_133">
    <path d="M 1145.665285 345.043437 
L 1156.006888 345.043437 
L 1156.006888 53.183437 
L 1145.665285 53.183437 
z
" clip-path="url(#pcd28b8ff60)" style="fill: #f08080"/>
   </g>
   <g id="patch_134">
    <path d="M 1168.646625 345.043437 
L 1178.988228 345.043437 
L 1178.988228 59.739066 
L 1168.646625 59.739066 
z
" clip-path="url(#pcd28b8ff60)" style="fill: #f08080"/>
   </g>
   <g id="patch_135">
    <path d="M 1191.627965 345.043437 
L 1201.969568 345.043437 
L 1201.969568 53.183437 
L 1191.627965 53.183437 
z
" clip-path="url(#pcd28b8ff60)" style="fill: #f08080"/>
   </g>
   <g id="patch_136">
    <path d="M 1214.609304 345.043437 
L 1224.950907 345.043437 
L 1224.950907 124.854023 
L 1214.609304 124.854023 
z
" clip-path="url(#pcd28b8ff60)" style="fill: #f08080"/>
   </g>
   <g id="patch_137">
    <path d="M 1237.590644 345.043437 
L 1247.932247 345.043437 
L 1247.932247 238.178619 
L 1237.590644 238.178619 
z
" clip-path="url(#pcd28b8ff60)" style="fill: #f08080"/>
   </g>
   <g id="patch_138">
    <path d="M 1260.571984 345.043437 
L 1270.913587 345.043437 
L 1270.913587 113.365299 
L 1260.571984 113.365299 
z
" clip-path="url(#pcd28b8ff60)" style="fill: #f08080"/>
   </g>
   <g id="patch_139">
    <path d="M 1283.553323 345.043437 
L 1293.894926 345.043437 
L 1293.894926 53.183437 
L 1283.553323 53.183437 
z
" clip-path="url(#pcd28b8ff60)" style="fill: #f08080"/>
   </g>
   <g id="patch_140">
    <path d="M 1306.534663 345.043437 
L 1316.876266 345.043437 
L 1316.876266 268.758014 
L 1306.534663 268.758014 
z
" clip-path="url(#pcd28b8ff60)" style="fill: #f08080"/>
   </g>
   <g id="patch_141">
    <path d="M 1329.516003 345.043437 
L 1339.857606 345.043437 
L 1339.857606 53.183437 
L 1329.516003 53.183437 
z
" clip-path="url(#pcd28b8ff60)" style="fill: #f08080"/>
   </g>
   <g id="patch_142">
    <path d="M 1352.497342 345.043437 
L 1362.838945 345.043437 
L 1362.838945 123.32356 
L 1352.497342 123.32356 
z
" clip-path="url(#pcd28b8ff60)" style="fill: #f08080"/>
   </g>
   <g id="patch_143">
    <path d="M 1375.478682 345.043437 
L 1385.820285 345.043437 
L 1385.820285 108.374847 
L 1375.478682 108.374847 
z
" clip-path="url(#pcd28b8ff60)" style="fill: #f08080"/>
   </g>
   <g id="patch_144">
    <path d="M 1398.460022 345.043437 
L 1408.801625 345.043437 
L 1408.801625 86.510947 
L 1398.460022 86.510947 
z
" clip-path="url(#pcd28b8ff60)" style="fill: #f08080"/>
   </g>
   <g id="patch_145">
    <path d="M 1421.441361 345.043437 
L 1431.782964 345.043437 
L 1431.782964 180.651688 
L 1421.441361 180.651688 
z
" clip-path="url(#pcd28b8ff60)" style="fill: #f08080"/>
   </g>
   <g id="patch_146">
    <path d="M 1444.422701 345.043437 
L 1454.764304 345.043437 
L 1454.764304 53.183437 
L 1444.422701 53.183437 
z
" clip-path="url(#pcd28b8ff60)" style="fill: #f08080"/>
   </g>
   <g id="patch_147">
    <path d="M 1467.404041 345.043437 
L 1477.745644 345.043437 
L 1477.745644 53.183437 
L 1467.404041 53.183437 
z
" clip-path="url(#pcd28b8ff60)" style="fill: #f08080"/>
   </g>
   <g id="patch_148">
    <path d="M 1490.38538 345.043437 
L 1500.726983 345.043437 
L 1500.726983 53.183437 
L 1490.38538 53.183437 
z
" clip-path="url(#pcd28b8ff60)" style="fill: #f08080"/>
   </g>
   <g id="patch_149">
    <path d="M 1513.36672 345.043437 
L 1523.708323 345.043437 
L 1523.708323 97.777131 
L 1513.36672 97.777131 
z
" clip-path="url(#pcd28b8ff60)" style="fill: #f08080"/>
   </g>
   <g id="patch_150">
    <path d="M 1536.34806 345.043437 
L 1546.689663 345.043437 
L 1546.689663 53.183437 
L 1536.34806 53.183437 
z
" clip-path="url(#pcd28b8ff60)" style="fill: #f08080"/>
   </g>
   <g id="patch_151">
    <path d="M 1559.3294 345.043437 
L 1569.671002 345.043437 
L 1569.671002 104.875509 
L 1559.3294 104.875509 
z
" clip-path="url(#pcd28b8ff60)" style="fill: #f08080"/>
   </g>
   <g id="patch_152">
    <path d="M 1582.310739 345.043437 
L 1592.652342 345.043437 
L 1592.652342 233.585593 
L 1582.310739 233.585593 
z
" clip-path="url(#pcd28b8ff60)" style="fill: #f08080"/>
   </g>
   <g id="patch_153">
    <path d="M 1605.292079 345.043437 
L 1615.633682 345.043437 
L 1615.633682 110.570141 
L 1605.292079 110.570141 
z
" clip-path="url(#pcd28b8ff60)" style="fill: #f08080"/>
   </g>
   <g id="patch_154">
    <path d="M 1628.273419 345.043437 
L 1638.615021 345.043437 
L 1638.615021 123.604391 
L 1628.273419 123.604391 
z
" clip-path="url(#pcd28b8ff60)" style="fill: #f08080"/>
   </g>
   <g id="patch_155">
    <path d="M 1651.254758 345.043437 
L 1661.596361 345.043437 
L 1661.596361 172.126101 
L 1651.254758 172.126101 
z
" clip-path="url(#pcd28b8ff60)" style="fill: #f08080"/>
   </g>
   <g id="patch_156">
    <path d="M 1674.236098 345.043437 
L 1684.577701 345.043437 
L 1684.577701 562.389938 
L 1674.236098 562.389938 
z
" clip-path="url(#pcd28b8ff60)" style="fill: #f08080"/>
   </g>
   <g id="patch_157">
    <path d="M 1697.217438 345.043437 
L 1707.55904 345.043437 
L 1707.55904 329.324105 
L 1697.217438 329.324105 
z
" clip-path="url(#pcd28b8ff60)" style="fill: #f08080"/>
   </g>
   <g id="patch_158">
    <path d="M 1720.198777 345.043437 
L 1730.54038 345.043437 
L 1730.54038 312.589944 
L 1720.198777 312.589944 
z
" clip-path="url(#pcd28b8ff60)" style="fill: #f08080"/>
   </g>
   <g id="patch_159">
    <path d="M 1743.180117 345.043437 
L 1753.52172 345.043437 
L 1753.52172 256.254965 
L 1743.180117 256.254965 
z
" clip-path="url(#pcd28b8ff60)" style="fill: #f08080"/>
   </g>
   <g id="patch_160">
    <path d="M 1766.161457 345.043437 
L 1776.503059 345.043437 
L 1776.503059 294.906558 
L 1766.161457 294.906558 
z
" clip-path="url(#pcd28b8ff60)" style="fill: #f08080"/>
   </g>
   <g id="patch_161">
    <path d="M 1789.142796 345.043437 
L 1799.484399 345.043437 
L 1799.484399 270.842972 
L 1789.142796 270.842972 
z
" clip-path="url(#pcd28b8ff60)" style="fill: #f08080"/>
   </g>
   <g id="patch_162">
    <path d="M 1812.124136 345.043437 
L 1822.465739 345.043437 
L 1822.465739 393.023617 
L 1812.124136 393.023617 
z
" clip-path="url(#pcd28b8ff60)" style="fill: #f08080"/>
   </g>
   <g id="patch_163">
    <path d="M 1835.105476 345.043437 
L 1845.447078 345.043437 
L 1845.447078 53.183437 
L 1835.105476 53.183437 
z
" clip-path="url(#pcd28b8ff60)" style="fill: #f08080"/>
   </g>
   <g id="patch_164">
    <path d="M 1858.086815 345.043437 
L 1868.428418 345.043437 
L 1868.428418 211.60434 
L 1858.086815 211.60434 
z
" clip-path="url(#pcd28b8ff60)" style="fill: #f08080"/>
   </g>
   <g id="patch_165">
    <path d="M 1881.068155 345.043437 
L 1891.409758 345.043437 
L 1891.409758 290.075344 
L 1881.068155 290.075344 
z
" clip-path="url(#pcd28b8ff60)" style="fill: #f08080"/>
   </g>
   <g id="patch_166">
    <path d="M 1904.049495 345.043437 
L 1914.391098 345.043437 
L 1914.391098 336.830725 
L 1904.049495 336.830725 
z
" clip-path="url(#pcd28b8ff60)" style="fill: #f08080"/>
   </g>
   <g id="patch_167">
    <path d="M 1927.030834 345.043437 
L 1937.372437 345.043437 
L 1937.372437 213.895786 
L 1927.030834 213.895786 
z
" clip-path="url(#pcd28b8ff60)" style="fill: #f08080"/>
   </g>
   <g id="patch_168">
    <path d="M 1950.012174 345.043437 
L 1960.353777 345.043437 
L 1960.353777 254.898032 
L 1950.012174 254.898032 
z
" clip-path="url(#pcd28b8ff60)" style="fill: #f08080"/>
   </g>
   <g id="patch_169">
    <path d="M 1972.993514 345.043437 
L 1983.335117 345.043437 
L 1983.335117 164.6818 
L 1972.993514 164.6818 
z
" clip-path="url(#pcd28b8ff60)" style="fill: #f08080"/>
   </g>
   <g id="patch_170">
    <path d="M 1995.974853 345.043437 
L 2006.316456 345.043437 
L 2006.316456 344.180782 
L 1995.974853 344.180782 
z
" clip-path="url(#pcd28b8ff60)" style="fill: #f08080"/>
   </g>
   <g id="patch_171">
    <path d="M 2018.956193 345.043437 
L 2029.297796 345.043437 
L 2029.297796 64.02485 
L 2018.956193 64.02485 
z
" clip-path="url(#pcd28b8ff60)" style="fill: #f08080"/>
   </g>
   <g id="patch_172">
    <path d="M 2041.937533 345.043437 
L 2052.279136 345.043437 
L 2052.279136 292.419253 
L 2041.937533 292.419253 
z
" clip-path="url(#pcd28b8ff60)" style="fill: #f08080"/>
   </g>
   <g id="patch_173">
    <path d="M 2064.918872 345.043437 
L 2075.260475 345.043437 
L 2075.260475 65.130967 
L 2064.918872 65.130967 
z
" clip-path="url(#pcd28b8ff60)" style="fill: #f08080"/>
   </g>
   <g id="patch_174">
    <path d="M 2087.900212 345.043437 
L 2098.241815 345.043437 
L 2098.241815 53.183437 
L 2087.900212 53.183437 
z
" clip-path="url(#pcd28b8ff60)" style="fill: #f08080"/>
   </g>
   <g id="matplotlib.axis_1">
    <g id="xtick_1">
     <g id="line2d_1">
      <defs>
       <path id="m84a59bd96c" d="M 0 0 
L 0 3.5 
" style="stroke: #000000; stroke-width: 0.8"/>
      </defs>
      <g>
       <use xlink:href="#m84a59bd96c" x="134.48634" y="636.903437" style="stroke: #000000; stroke-width: 0.8"/>
      </g>
     </g>
     <g id="text_1">
      <!-- 0 -->
      <g transform="translate(125.58884 666.808437)scale(0.32 -0.32)">
       <defs>
        <path id="ArialMT-30" d="M 266 2259 
Q 266 3072 433 3567 
Q 600 4063 929 4331 
Q 1259 4600 1759 4600 
Q 2128 4600 2406 4451 
Q 2684 4303 2865 4023 
Q 3047 3744 3150 3342 
Q 3253 2941 3253 2259 
Q 3253 1453 3087 958 
Q 2922 463 2592 192 
Q 2263 -78 1759 -78 
Q 1097 -78 719 397 
Q 266 969 266 2259 
z
M 844 2259 
Q 844 1131 1108 757 
Q 1372 384 1759 384 
Q 2147 384 2411 759 
Q 2675 1134 2675 2259 
Q 2675 3391 2411 3762 
Q 2147 4134 1753 4134 
Q 1366 4134 1134 3806 
Q 844 3388 844 2259 
z
" transform="scale(0.015625)"/>
       </defs>
       <use xlink:href="#ArialMT-30"/>
      </g>
     </g>
    </g>
    <g id="xtick_2">
     <g id="line2d_2">
      <g>
       <use xlink:href="#m84a59bd96c" x="157.467679" y="636.903437" style="stroke: #000000; stroke-width: 0.8"/>
      </g>
     </g>
    </g>
    <g id="xtick_3">
     <g id="line2d_3">
      <g>
       <use xlink:href="#m84a59bd96c" x="180.449019" y="636.903437" style="stroke: #000000; stroke-width: 0.8"/>
      </g>
     </g>
    </g>
    <g id="xtick_4">
     <g id="line2d_4">
      <g>
       <use xlink:href="#m84a59bd96c" x="203.430359" y="636.903437" style="stroke: #000000; stroke-width: 0.8"/>
      </g>
     </g>
    </g>
    <g id="xtick_5">
     <g id="line2d_5">
      <g>
       <use xlink:href="#m84a59bd96c" x="226.411698" y="636.903437" style="stroke: #000000; stroke-width: 0.8"/>
      </g>
     </g>
    </g>
    <g id="xtick_6">
     <g id="line2d_6">
      <g>
       <use xlink:href="#m84a59bd96c" x="249.393038" y="636.903437" style="stroke: #000000; stroke-width: 0.8"/>
      </g>
     </g>
     <g id="text_2">
      <!-- 5 -->
      <g transform="translate(240.495538 666.808437)scale(0.32 -0.32)">
       <defs>
        <path id="ArialMT-35" d="M 266 1200 
L 856 1250 
Q 922 819 1161 601 
Q 1400 384 1738 384 
Q 2144 384 2425 690 
Q 2706 997 2706 1503 
Q 2706 1984 2436 2262 
Q 2166 2541 1728 2541 
Q 1456 2541 1237 2417 
Q 1019 2294 894 2097 
L 366 2166 
L 809 4519 
L 3088 4519 
L 3088 3981 
L 1259 3981 
L 1013 2750 
Q 1425 3038 1878 3038 
Q 2478 3038 2890 2622 
Q 3303 2206 3303 1553 
Q 3303 931 2941 478 
Q 2500 -78 1738 -78 
Q 1113 -78 717 272 
Q 322 622 266 1200 
z
" transform="scale(0.015625)"/>
       </defs>
       <use xlink:href="#ArialMT-35"/>
      </g>
     </g>
    </g>
    <g id="xtick_7">
     <g id="line2d_7">
      <g>
       <use xlink:href="#m84a59bd96c" x="272.374378" y="636.903437" style="stroke: #000000; stroke-width: 0.8"/>
      </g>
     </g>
    </g>
    <g id="xtick_8">
     <g id="line2d_8">
      <g>
       <use xlink:href="#m84a59bd96c" x="295.355717" y="636.903437" style="stroke: #000000; stroke-width: 0.8"/>
      </g>
     </g>
    </g>
    <g id="xtick_9">
     <g id="line2d_9">
      <g>
       <use xlink:href="#m84a59bd96c" x="318.337057" y="636.903437" style="stroke: #000000; stroke-width: 0.8"/>
      </g>
     </g>
    </g>
    <g id="xtick_10">
     <g id="line2d_10">
      <g>
       <use xlink:href="#m84a59bd96c" x="341.318397" y="636.903437" style="stroke: #000000; stroke-width: 0.8"/>
      </g>
     </g>
    </g>
    <g id="xtick_11">
     <g id="line2d_11">
      <g>
       <use xlink:href="#m84a59bd96c" x="364.299736" y="636.903437" style="stroke: #000000; stroke-width: 0.8"/>
      </g>
     </g>
     <g id="text_3">
      <!-- 10 -->
      <g transform="translate(346.504736 666.808437)scale(0.32 -0.32)">
       <defs>
        <path id="ArialMT-31" d="M 2384 0 
L 1822 0 
L 1822 3584 
Q 1619 3391 1289 3197 
Q 959 3003 697 2906 
L 697 3450 
Q 1169 3672 1522 3987 
Q 1875 4303 2022 4600 
L 2384 4600 
L 2384 0 
z
" transform="scale(0.015625)"/>
       </defs>
       <use xlink:href="#ArialMT-31"/>
       <use xlink:href="#ArialMT-30" x="55.615234"/>
      </g>
     </g>
    </g>
    <g id="xtick_12">
     <g id="line2d_12">
      <g>
       <use xlink:href="#m84a59bd96c" x="387.281076" y="636.903437" style="stroke: #000000; stroke-width: 0.8"/>
      </g>
     </g>
    </g>
    <g id="xtick_13">
     <g id="line2d_13">
      <g>
       <use xlink:href="#m84a59bd96c" x="410.262416" y="636.903437" style="stroke: #000000; stroke-width: 0.8"/>
      </g>
     </g>
    </g>
    <g id="xtick_14">
     <g id="line2d_14">
      <g>
       <use xlink:href="#m84a59bd96c" x="433.243755" y="636.903437" style="stroke: #000000; stroke-width: 0.8"/>
      </g>
     </g>
    </g>
    <g id="xtick_15">
     <g id="line2d_15">
      <g>
       <use xlink:href="#m84a59bd96c" x="456.225095" y="636.903437" style="stroke: #000000; stroke-width: 0.8"/>
      </g>
     </g>
    </g>
    <g id="xtick_16">
     <g id="line2d_16">
      <g>
       <use xlink:href="#m84a59bd96c" x="479.206435" y="636.903437" style="stroke: #000000; stroke-width: 0.8"/>
      </g>
     </g>
     <g id="text_4">
      <!-- 15 -->
      <g transform="translate(461.411435 666.808437)scale(0.32 -0.32)">
       <use xlink:href="#ArialMT-31"/>
       <use xlink:href="#ArialMT-35" x="55.615234"/>
      </g>
     </g>
    </g>
    <g id="xtick_17">
     <g id="line2d_17">
      <g>
       <use xlink:href="#m84a59bd96c" x="502.187774" y="636.903437" style="stroke: #000000; stroke-width: 0.8"/>
      </g>
     </g>
    </g>
    <g id="xtick_18">
     <g id="line2d_18">
      <g>
       <use xlink:href="#m84a59bd96c" x="525.169114" y="636.903437" style="stroke: #000000; stroke-width: 0.8"/>
      </g>
     </g>
    </g>
    <g id="xtick_19">
     <g id="line2d_19">
      <g>
       <use xlink:href="#m84a59bd96c" x="548.150454" y="636.903437" style="stroke: #000000; stroke-width: 0.8"/>
      </g>
     </g>
    </g>
    <g id="xtick_20">
     <g id="line2d_20">
      <g>
       <use xlink:href="#m84a59bd96c" x="571.131793" y="636.903437" style="stroke: #000000; stroke-width: 0.8"/>
      </g>
     </g>
    </g>
    <g id="xtick_21">
     <g id="line2d_21">
      <g>
       <use xlink:href="#m84a59bd96c" x="594.113133" y="636.903437" style="stroke: #000000; stroke-width: 0.8"/>
      </g>
     </g>
     <g id="text_5">
      <!-- 20 -->
      <g transform="translate(576.318133 666.808437)scale(0.32 -0.32)">
       <defs>
        <path id="ArialMT-32" d="M 3222 541 
L 3222 0 
L 194 0 
Q 188 203 259 391 
Q 375 700 629 1000 
Q 884 1300 1366 1694 
Q 2113 2306 2375 2664 
Q 2638 3022 2638 3341 
Q 2638 3675 2398 3904 
Q 2159 4134 1775 4134 
Q 1369 4134 1125 3890 
Q 881 3647 878 3216 
L 300 3275 
Q 359 3922 746 4261 
Q 1134 4600 1788 4600 
Q 2447 4600 2831 4234 
Q 3216 3869 3216 3328 
Q 3216 3053 3103 2787 
Q 2991 2522 2730 2228 
Q 2469 1934 1863 1422 
Q 1356 997 1212 845 
Q 1069 694 975 541 
L 3222 541 
z
" transform="scale(0.015625)"/>
       </defs>
       <use xlink:href="#ArialMT-32"/>
       <use xlink:href="#ArialMT-30" x="55.615234"/>
      </g>
     </g>
    </g>
    <g id="xtick_22">
     <g id="line2d_22">
      <g>
       <use xlink:href="#m84a59bd96c" x="617.094473" y="636.903437" style="stroke: #000000; stroke-width: 0.8"/>
      </g>
     </g>
    </g>
    <g id="xtick_23">
     <g id="line2d_23">
      <g>
       <use xlink:href="#m84a59bd96c" x="640.075813" y="636.903437" style="stroke: #000000; stroke-width: 0.8"/>
      </g>
     </g>
    </g>
    <g id="xtick_24">
     <g id="line2d_24">
      <g>
       <use xlink:href="#m84a59bd96c" x="663.057152" y="636.903437" style="stroke: #000000; stroke-width: 0.8"/>
      </g>
     </g>
    </g>
    <g id="xtick_25">
     <g id="line2d_25">
      <g>
       <use xlink:href="#m84a59bd96c" x="686.038492" y="636.903437" style="stroke: #000000; stroke-width: 0.8"/>
      </g>
     </g>
    </g>
    <g id="xtick_26">
     <g id="line2d_26">
      <g>
       <use xlink:href="#m84a59bd96c" x="709.019832" y="636.903437" style="stroke: #000000; stroke-width: 0.8"/>
      </g>
     </g>
     <g id="text_6">
      <!-- 25 -->
      <g transform="translate(691.224832 666.808437)scale(0.32 -0.32)">
       <use xlink:href="#ArialMT-32"/>
       <use xlink:href="#ArialMT-35" x="55.615234"/>
      </g>
     </g>
    </g>
    <g id="xtick_27">
     <g id="line2d_27">
      <g>
       <use xlink:href="#m84a59bd96c" x="732.001171" y="636.903437" style="stroke: #000000; stroke-width: 0.8"/>
      </g>
     </g>
    </g>
    <g id="xtick_28">
     <g id="line2d_28">
      <g>
       <use xlink:href="#m84a59bd96c" x="754.982511" y="636.903437" style="stroke: #000000; stroke-width: 0.8"/>
      </g>
     </g>
    </g>
    <g id="xtick_29">
     <g id="line2d_29">
      <g>
       <use xlink:href="#m84a59bd96c" x="777.963851" y="636.903437" style="stroke: #000000; stroke-width: 0.8"/>
      </g>
     </g>
    </g>
    <g id="xtick_30">
     <g id="line2d_30">
      <g>
       <use xlink:href="#m84a59bd96c" x="800.94519" y="636.903437" style="stroke: #000000; stroke-width: 0.8"/>
      </g>
     </g>
    </g>
    <g id="xtick_31">
     <g id="line2d_31">
      <g>
       <use xlink:href="#m84a59bd96c" x="823.92653" y="636.903437" style="stroke: #000000; stroke-width: 0.8"/>
      </g>
     </g>
     <g id="text_7">
      <!-- 30 -->
      <g transform="translate(806.13153 666.808437)scale(0.32 -0.32)">
       <defs>
        <path id="ArialMT-33" d="M 269 1209 
L 831 1284 
Q 928 806 1161 595 
Q 1394 384 1728 384 
Q 2125 384 2398 659 
Q 2672 934 2672 1341 
Q 2672 1728 2419 1979 
Q 2166 2231 1775 2231 
Q 1616 2231 1378 2169 
L 1441 2663 
Q 1497 2656 1531 2656 
Q 1891 2656 2178 2843 
Q 2466 3031 2466 3422 
Q 2466 3731 2256 3934 
Q 2047 4138 1716 4138 
Q 1388 4138 1169 3931 
Q 950 3725 888 3313 
L 325 3413 
Q 428 3978 793 4289 
Q 1159 4600 1703 4600 
Q 2078 4600 2393 4439 
Q 2709 4278 2876 4000 
Q 3044 3722 3044 3409 
Q 3044 3113 2884 2869 
Q 2725 2625 2413 2481 
Q 2819 2388 3044 2092 
Q 3269 1797 3269 1353 
Q 3269 753 2831 336 
Q 2394 -81 1725 -81 
Q 1122 -81 723 278 
Q 325 638 269 1209 
z
" transform="scale(0.015625)"/>
       </defs>
       <use xlink:href="#ArialMT-33"/>
       <use xlink:href="#ArialMT-30" x="55.615234"/>
      </g>
     </g>
    </g>
    <g id="xtick_32">
     <g id="line2d_32">
      <g>
       <use xlink:href="#m84a59bd96c" x="846.90787" y="636.903437" style="stroke: #000000; stroke-width: 0.8"/>
      </g>
     </g>
    </g>
    <g id="xtick_33">
     <g id="line2d_33">
      <g>
       <use xlink:href="#m84a59bd96c" x="869.889209" y="636.903437" style="stroke: #000000; stroke-width: 0.8"/>
      </g>
     </g>
    </g>
    <g id="xtick_34">
     <g id="line2d_34">
      <g>
       <use xlink:href="#m84a59bd96c" x="892.870549" y="636.903437" style="stroke: #000000; stroke-width: 0.8"/>
      </g>
     </g>
    </g>
    <g id="xtick_35">
     <g id="line2d_35">
      <g>
       <use xlink:href="#m84a59bd96c" x="915.851889" y="636.903437" style="stroke: #000000; stroke-width: 0.8"/>
      </g>
     </g>
    </g>
    <g id="xtick_36">
     <g id="line2d_36">
      <g>
       <use xlink:href="#m84a59bd96c" x="938.833228" y="636.903437" style="stroke: #000000; stroke-width: 0.8"/>
      </g>
     </g>
     <g id="text_8">
      <!-- 35 -->
      <g transform="translate(921.038228 666.808437)scale(0.32 -0.32)">
       <use xlink:href="#ArialMT-33"/>
       <use xlink:href="#ArialMT-35" x="55.615234"/>
      </g>
     </g>
    </g>
    <g id="xtick_37">
     <g id="line2d_37">
      <g>
       <use xlink:href="#m84a59bd96c" x="961.814568" y="636.903437" style="stroke: #000000; stroke-width: 0.8"/>
      </g>
     </g>
    </g>
    <g id="xtick_38">
     <g id="line2d_38">
      <g>
       <use xlink:href="#m84a59bd96c" x="984.795908" y="636.903437" style="stroke: #000000; stroke-width: 0.8"/>
      </g>
     </g>
    </g>
    <g id="xtick_39">
     <g id="line2d_39">
      <g>
       <use xlink:href="#m84a59bd96c" x="1007.777247" y="636.903437" style="stroke: #000000; stroke-width: 0.8"/>
      </g>
     </g>
    </g>
    <g id="xtick_40">
     <g id="line2d_40">
      <g>
       <use xlink:href="#m84a59bd96c" x="1030.758587" y="636.903437" style="stroke: #000000; stroke-width: 0.8"/>
      </g>
     </g>
    </g>
    <g id="xtick_41">
     <g id="line2d_41">
      <g>
       <use xlink:href="#m84a59bd96c" x="1053.739927" y="636.903437" style="stroke: #000000; stroke-width: 0.8"/>
      </g>
     </g>
     <g id="text_9">
      <!-- 40 -->
      <g transform="translate(1035.944927 666.808437)scale(0.32 -0.32)">
       <defs>
        <path id="ArialMT-34" d="M 2069 0 
L 2069 1097 
L 81 1097 
L 81 1613 
L 2172 4581 
L 2631 4581 
L 2631 1613 
L 3250 1613 
L 3250 1097 
L 2631 1097 
L 2631 0 
L 2069 0 
z
M 2069 1613 
L 2069 3678 
L 634 1613 
L 2069 1613 
z
" transform="scale(0.015625)"/>
       </defs>
       <use xlink:href="#ArialMT-34"/>
       <use xlink:href="#ArialMT-30" x="55.615234"/>
      </g>
     </g>
    </g>
    <g id="xtick_42">
     <g id="line2d_42">
      <g>
       <use xlink:href="#m84a59bd96c" x="1076.721266" y="636.903437" style="stroke: #000000; stroke-width: 0.8"/>
      </g>
     </g>
    </g>
    <g id="xtick_43">
     <g id="line2d_43">
      <g>
       <use xlink:href="#m84a59bd96c" x="1099.702606" y="636.903437" style="stroke: #000000; stroke-width: 0.8"/>
      </g>
     </g>
    </g>
    <g id="xtick_44">
     <g id="line2d_44">
      <g>
       <use xlink:href="#m84a59bd96c" x="1122.683946" y="636.903437" style="stroke: #000000; stroke-width: 0.8"/>
      </g>
     </g>
    </g>
    <g id="xtick_45">
     <g id="line2d_45">
      <g>
       <use xlink:href="#m84a59bd96c" x="1145.665285" y="636.903437" style="stroke: #000000; stroke-width: 0.8"/>
      </g>
     </g>
    </g>
    <g id="xtick_46">
     <g id="line2d_46">
      <g>
       <use xlink:href="#m84a59bd96c" x="1168.646625" y="636.903437" style="stroke: #000000; stroke-width: 0.8"/>
      </g>
     </g>
     <g id="text_10">
      <!-- 45 -->
      <g transform="translate(1150.851625 666.808437)scale(0.32 -0.32)">
       <use xlink:href="#ArialMT-34"/>
       <use xlink:href="#ArialMT-35" x="55.615234"/>
      </g>
     </g>
    </g>
    <g id="xtick_47">
     <g id="line2d_47">
      <g>
       <use xlink:href="#m84a59bd96c" x="1191.627965" y="636.903437" style="stroke: #000000; stroke-width: 0.8"/>
      </g>
     </g>
    </g>
    <g id="xtick_48">
     <g id="line2d_48">
      <g>
       <use xlink:href="#m84a59bd96c" x="1214.609304" y="636.903437" style="stroke: #000000; stroke-width: 0.8"/>
      </g>
     </g>
    </g>
    <g id="xtick_49">
     <g id="line2d_49">
      <g>
       <use xlink:href="#m84a59bd96c" x="1237.590644" y="636.903437" style="stroke: #000000; stroke-width: 0.8"/>
      </g>
     </g>
    </g>
    <g id="xtick_50">
     <g id="line2d_50">
      <g>
       <use xlink:href="#m84a59bd96c" x="1260.571984" y="636.903437" style="stroke: #000000; stroke-width: 0.8"/>
      </g>
     </g>
    </g>
    <g id="xtick_51">
     <g id="line2d_51">
      <g>
       <use xlink:href="#m84a59bd96c" x="1283.553323" y="636.903437" style="stroke: #000000; stroke-width: 0.8"/>
      </g>
     </g>
     <g id="text_11">
      <!-- 50 -->
      <g transform="translate(1265.758323 666.808437)scale(0.32 -0.32)">
       <use xlink:href="#ArialMT-35"/>
       <use xlink:href="#ArialMT-30" x="55.615234"/>
      </g>
     </g>
    </g>
    <g id="xtick_52">
     <g id="line2d_52">
      <g>
       <use xlink:href="#m84a59bd96c" x="1306.534663" y="636.903437" style="stroke: #000000; stroke-width: 0.8"/>
      </g>
     </g>
    </g>
    <g id="xtick_53">
     <g id="line2d_53">
      <g>
       <use xlink:href="#m84a59bd96c" x="1329.516003" y="636.903437" style="stroke: #000000; stroke-width: 0.8"/>
      </g>
     </g>
    </g>
    <g id="xtick_54">
     <g id="line2d_54">
      <g>
       <use xlink:href="#m84a59bd96c" x="1352.497342" y="636.903437" style="stroke: #000000; stroke-width: 0.8"/>
      </g>
     </g>
    </g>
    <g id="xtick_55">
     <g id="line2d_55">
      <g>
       <use xlink:href="#m84a59bd96c" x="1375.478682" y="636.903437" style="stroke: #000000; stroke-width: 0.8"/>
      </g>
     </g>
    </g>
    <g id="xtick_56">
     <g id="line2d_56">
      <g>
       <use xlink:href="#m84a59bd96c" x="1398.460022" y="636.903437" style="stroke: #000000; stroke-width: 0.8"/>
      </g>
     </g>
     <g id="text_12">
      <!-- 55 -->
      <g transform="translate(1380.665022 666.808437)scale(0.32 -0.32)">
       <use xlink:href="#ArialMT-35"/>
       <use xlink:href="#ArialMT-35" x="55.615234"/>
      </g>
     </g>
    </g>
    <g id="xtick_57">
     <g id="line2d_57">
      <g>
       <use xlink:href="#m84a59bd96c" x="1421.441361" y="636.903437" style="stroke: #000000; stroke-width: 0.8"/>
      </g>
     </g>
    </g>
    <g id="xtick_58">
     <g id="line2d_58">
      <g>
       <use xlink:href="#m84a59bd96c" x="1444.422701" y="636.903437" style="stroke: #000000; stroke-width: 0.8"/>
      </g>
     </g>
    </g>
    <g id="xtick_59">
     <g id="line2d_59">
      <g>
       <use xlink:href="#m84a59bd96c" x="1467.404041" y="636.903437" style="stroke: #000000; stroke-width: 0.8"/>
      </g>
     </g>
    </g>
    <g id="xtick_60">
     <g id="line2d_60">
      <g>
       <use xlink:href="#m84a59bd96c" x="1490.38538" y="636.903437" style="stroke: #000000; stroke-width: 0.8"/>
      </g>
     </g>
    </g>
    <g id="xtick_61">
     <g id="line2d_61">
      <g>
       <use xlink:href="#m84a59bd96c" x="1513.36672" y="636.903437" style="stroke: #000000; stroke-width: 0.8"/>
      </g>
     </g>
     <g id="text_13">
      <!-- 60 -->
      <g transform="translate(1495.57172 666.808437)scale(0.32 -0.32)">
       <defs>
        <path id="ArialMT-36" d="M 3184 3459 
L 2625 3416 
Q 2550 3747 2413 3897 
Q 2184 4138 1850 4138 
Q 1581 4138 1378 3988 
Q 1113 3794 959 3422 
Q 806 3050 800 2363 
Q 1003 2672 1297 2822 
Q 1591 2972 1913 2972 
Q 2475 2972 2870 2558 
Q 3266 2144 3266 1488 
Q 3266 1056 3080 686 
Q 2894 316 2569 119 
Q 2244 -78 1831 -78 
Q 1128 -78 684 439 
Q 241 956 241 2144 
Q 241 3472 731 4075 
Q 1159 4600 1884 4600 
Q 2425 4600 2770 4297 
Q 3116 3994 3184 3459 
z
M 888 1484 
Q 888 1194 1011 928 
Q 1134 663 1356 523 
Q 1578 384 1822 384 
Q 2178 384 2434 671 
Q 2691 959 2691 1453 
Q 2691 1928 2437 2201 
Q 2184 2475 1800 2475 
Q 1419 2475 1153 2201 
Q 888 1928 888 1484 
z
" transform="scale(0.015625)"/>
       </defs>
       <use xlink:href="#ArialMT-36"/>
       <use xlink:href="#ArialMT-30" x="55.615234"/>
      </g>
     </g>
    </g>
    <g id="xtick_62">
     <g id="line2d_62">
      <g>
       <use xlink:href="#m84a59bd96c" x="1536.34806" y="636.903437" style="stroke: #000000; stroke-width: 0.8"/>
      </g>
     </g>
    </g>
    <g id="xtick_63">
     <g id="line2d_63">
      <g>
       <use xlink:href="#m84a59bd96c" x="1559.3294" y="636.903437" style="stroke: #000000; stroke-width: 0.8"/>
      </g>
     </g>
    </g>
    <g id="xtick_64">
     <g id="line2d_64">
      <g>
       <use xlink:href="#m84a59bd96c" x="1582.310739" y="636.903437" style="stroke: #000000; stroke-width: 0.8"/>
      </g>
     </g>
    </g>
    <g id="xtick_65">
     <g id="line2d_65">
      <g>
       <use xlink:href="#m84a59bd96c" x="1605.292079" y="636.903437" style="stroke: #000000; stroke-width: 0.8"/>
      </g>
     </g>
    </g>
    <g id="xtick_66">
     <g id="line2d_66">
      <g>
       <use xlink:href="#m84a59bd96c" x="1628.273419" y="636.903437" style="stroke: #000000; stroke-width: 0.8"/>
      </g>
     </g>
     <g id="text_14">
      <!-- 65 -->
      <g transform="translate(1610.478419 666.808437)scale(0.32 -0.32)">
       <use xlink:href="#ArialMT-36"/>
       <use xlink:href="#ArialMT-35" x="55.615234"/>
      </g>
     </g>
    </g>
    <g id="xtick_67">
     <g id="line2d_67">
      <g>
       <use xlink:href="#m84a59bd96c" x="1651.254758" y="636.903437" style="stroke: #000000; stroke-width: 0.8"/>
      </g>
     </g>
    </g>
    <g id="xtick_68">
     <g id="line2d_68">
      <g>
       <use xlink:href="#m84a59bd96c" x="1674.236098" y="636.903437" style="stroke: #000000; stroke-width: 0.8"/>
      </g>
     </g>
    </g>
    <g id="xtick_69">
     <g id="line2d_69">
      <g>
       <use xlink:href="#m84a59bd96c" x="1697.217438" y="636.903437" style="stroke: #000000; stroke-width: 0.8"/>
      </g>
     </g>
    </g>
    <g id="xtick_70">
     <g id="line2d_70">
      <g>
       <use xlink:href="#m84a59bd96c" x="1720.198777" y="636.903437" style="stroke: #000000; stroke-width: 0.8"/>
      </g>
     </g>
    </g>
    <g id="xtick_71">
     <g id="line2d_71">
      <g>
       <use xlink:href="#m84a59bd96c" x="1743.180117" y="636.903437" style="stroke: #000000; stroke-width: 0.8"/>
      </g>
     </g>
     <g id="text_15">
      <!-- 70 -->
      <g transform="translate(1725.385117 666.808437)scale(0.32 -0.32)">
       <defs>
        <path id="ArialMT-37" d="M 303 3981 
L 303 4522 
L 3269 4522 
L 3269 4084 
Q 2831 3619 2401 2847 
Q 1972 2075 1738 1259 
Q 1569 684 1522 0 
L 944 0 
Q 953 541 1156 1306 
Q 1359 2072 1739 2783 
Q 2119 3494 2547 3981 
L 303 3981 
z
" transform="scale(0.015625)"/>
       </defs>
       <use xlink:href="#ArialMT-37"/>
       <use xlink:href="#ArialMT-30" x="55.615234"/>
      </g>
     </g>
    </g>
    <g id="xtick_72">
     <g id="line2d_72">
      <g>
       <use xlink:href="#m84a59bd96c" x="1766.161457" y="636.903437" style="stroke: #000000; stroke-width: 0.8"/>
      </g>
     </g>
    </g>
    <g id="xtick_73">
     <g id="line2d_73">
      <g>
       <use xlink:href="#m84a59bd96c" x="1789.142796" y="636.903437" style="stroke: #000000; stroke-width: 0.8"/>
      </g>
     </g>
    </g>
    <g id="xtick_74">
     <g id="line2d_74">
      <g>
       <use xlink:href="#m84a59bd96c" x="1812.124136" y="636.903437" style="stroke: #000000; stroke-width: 0.8"/>
      </g>
     </g>
    </g>
    <g id="xtick_75">
     <g id="line2d_75">
      <g>
       <use xlink:href="#m84a59bd96c" x="1835.105476" y="636.903437" style="stroke: #000000; stroke-width: 0.8"/>
      </g>
     </g>
    </g>
    <g id="xtick_76">
     <g id="line2d_76">
      <g>
       <use xlink:href="#m84a59bd96c" x="1858.086815" y="636.903437" style="stroke: #000000; stroke-width: 0.8"/>
      </g>
     </g>
     <g id="text_16">
      <!-- 75 -->
      <g transform="translate(1840.291815 666.808437)scale(0.32 -0.32)">
       <use xlink:href="#ArialMT-37"/>
       <use xlink:href="#ArialMT-35" x="55.615234"/>
      </g>
     </g>
    </g>
    <g id="xtick_77">
     <g id="line2d_77">
      <g>
       <use xlink:href="#m84a59bd96c" x="1881.068155" y="636.903437" style="stroke: #000000; stroke-width: 0.8"/>
      </g>
     </g>
    </g>
    <g id="xtick_78">
     <g id="line2d_78">
      <g>
       <use xlink:href="#m84a59bd96c" x="1904.049495" y="636.903437" style="stroke: #000000; stroke-width: 0.8"/>
      </g>
     </g>
    </g>
    <g id="xtick_79">
     <g id="line2d_79">
      <g>
       <use xlink:href="#m84a59bd96c" x="1927.030834" y="636.903437" style="stroke: #000000; stroke-width: 0.8"/>
      </g>
     </g>
    </g>
    <g id="xtick_80">
     <g id="line2d_80">
      <g>
       <use xlink:href="#m84a59bd96c" x="1950.012174" y="636.903437" style="stroke: #000000; stroke-width: 0.8"/>
      </g>
     </g>
    </g>
    <g id="xtick_81">
     <g id="line2d_81">
      <g>
       <use xlink:href="#m84a59bd96c" x="1972.993514" y="636.903437" style="stroke: #000000; stroke-width: 0.8"/>
      </g>
     </g>
     <g id="text_17">
      <!-- 80 -->
      <g transform="translate(1955.198514 666.808437)scale(0.32 -0.32)">
       <defs>
        <path id="ArialMT-38" d="M 1131 2484 
Q 781 2613 612 2850 
Q 444 3088 444 3419 
Q 444 3919 803 4259 
Q 1163 4600 1759 4600 
Q 2359 4600 2725 4251 
Q 3091 3903 3091 3403 
Q 3091 3084 2923 2848 
Q 2756 2613 2416 2484 
Q 2838 2347 3058 2040 
Q 3278 1734 3278 1309 
Q 3278 722 2862 322 
Q 2447 -78 1769 -78 
Q 1091 -78 675 323 
Q 259 725 259 1325 
Q 259 1772 486 2073 
Q 713 2375 1131 2484 
z
M 1019 3438 
Q 1019 3113 1228 2906 
Q 1438 2700 1772 2700 
Q 2097 2700 2305 2904 
Q 2513 3109 2513 3406 
Q 2513 3716 2298 3927 
Q 2084 4138 1766 4138 
Q 1444 4138 1231 3931 
Q 1019 3725 1019 3438 
z
M 838 1322 
Q 838 1081 952 856 
Q 1066 631 1291 507 
Q 1516 384 1775 384 
Q 2178 384 2440 643 
Q 2703 903 2703 1303 
Q 2703 1709 2433 1975 
Q 2163 2241 1756 2241 
Q 1359 2241 1098 1978 
Q 838 1716 838 1322 
z
" transform="scale(0.015625)"/>
       </defs>
       <use xlink:href="#ArialMT-38"/>
       <use xlink:href="#ArialMT-30" x="55.615234"/>
      </g>
     </g>
    </g>
    <g id="xtick_82">
     <g id="line2d_82">
      <g>
       <use xlink:href="#m84a59bd96c" x="1995.974853" y="636.903437" style="stroke: #000000; stroke-width: 0.8"/>
      </g>
     </g>
    </g>
    <g id="xtick_83">
     <g id="line2d_83">
      <g>
       <use xlink:href="#m84a59bd96c" x="2018.956193" y="636.903437" style="stroke: #000000; stroke-width: 0.8"/>
      </g>
     </g>
    </g>
    <g id="xtick_84">
     <g id="line2d_84">
      <g>
       <use xlink:href="#m84a59bd96c" x="2041.937533" y="636.903437" style="stroke: #000000; stroke-width: 0.8"/>
      </g>
     </g>
    </g>
    <g id="xtick_85">
     <g id="line2d_85">
      <g>
       <use xlink:href="#m84a59bd96c" x="2064.918872" y="636.903437" style="stroke: #000000; stroke-width: 0.8"/>
      </g>
     </g>
    </g>
    <g id="xtick_86">
     <g id="line2d_86">
      <g>
       <use xlink:href="#m84a59bd96c" x="2087.900212" y="636.903437" style="stroke: #000000; stroke-width: 0.8"/>
      </g>
     </g>
     <g id="text_18">
      <!-- 85 -->
      <g transform="translate(2070.105212 666.808437)scale(0.32 -0.32)">
       <use xlink:href="#ArialMT-38"/>
       <use xlink:href="#ArialMT-35" x="55.615234"/>
      </g>
     </g>
    </g>
    <g id="text_19">
     <!-- Paragraph Index -->
     <g transform="translate(992.898276 700.073437)scale(0.32 -0.32)">
      <defs>
       <path id="ArialMT-50" d="M 494 0 
L 494 4581 
L 2222 4581 
Q 2678 4581 2919 4538 
Q 3256 4481 3484 4323 
Q 3713 4166 3852 3881 
Q 3991 3597 3991 3256 
Q 3991 2672 3619 2267 
Q 3247 1863 2275 1863 
L 1100 1863 
L 1100 0 
L 494 0 
z
M 1100 2403 
L 2284 2403 
Q 2872 2403 3119 2622 
Q 3366 2841 3366 3238 
Q 3366 3525 3220 3729 
Q 3075 3934 2838 4000 
Q 2684 4041 2272 4041 
L 1100 4041 
L 1100 2403 
z
" transform="scale(0.015625)"/>
       <path id="ArialMT-61" d="M 2588 409 
Q 2275 144 1986 34 
Q 1697 -75 1366 -75 
Q 819 -75 525 192 
Q 231 459 231 875 
Q 231 1119 342 1320 
Q 453 1522 633 1644 
Q 813 1766 1038 1828 
Q 1203 1872 1538 1913 
Q 2219 1994 2541 2106 
Q 2544 2222 2544 2253 
Q 2544 2597 2384 2738 
Q 2169 2928 1744 2928 
Q 1347 2928 1158 2789 
Q 969 2650 878 2297 
L 328 2372 
Q 403 2725 575 2942 
Q 747 3159 1072 3276 
Q 1397 3394 1825 3394 
Q 2250 3394 2515 3294 
Q 2781 3194 2906 3042 
Q 3031 2891 3081 2659 
Q 3109 2516 3109 2141 
L 3109 1391 
Q 3109 606 3145 398 
Q 3181 191 3288 0 
L 2700 0 
Q 2613 175 2588 409 
z
M 2541 1666 
Q 2234 1541 1622 1453 
Q 1275 1403 1131 1340 
Q 988 1278 909 1158 
Q 831 1038 831 891 
Q 831 666 1001 516 
Q 1172 366 1500 366 
Q 1825 366 2078 508 
Q 2331 650 2450 897 
Q 2541 1088 2541 1459 
L 2541 1666 
z
" transform="scale(0.015625)"/>
       <path id="ArialMT-72" d="M 416 0 
L 416 3319 
L 922 3319 
L 922 2816 
Q 1116 3169 1280 3281 
Q 1444 3394 1641 3394 
Q 1925 3394 2219 3213 
L 2025 2691 
Q 1819 2813 1613 2813 
Q 1428 2813 1281 2702 
Q 1134 2591 1072 2394 
Q 978 2094 978 1738 
L 978 0 
L 416 0 
z
" transform="scale(0.015625)"/>
       <path id="ArialMT-67" d="M 319 -275 
L 866 -356 
Q 900 -609 1056 -725 
Q 1266 -881 1628 -881 
Q 2019 -881 2231 -725 
Q 2444 -569 2519 -288 
Q 2563 -116 2559 434 
Q 2191 0 1641 0 
Q 956 0 581 494 
Q 206 988 206 1678 
Q 206 2153 378 2554 
Q 550 2956 876 3175 
Q 1203 3394 1644 3394 
Q 2231 3394 2613 2919 
L 2613 3319 
L 3131 3319 
L 3131 450 
Q 3131 -325 2973 -648 
Q 2816 -972 2473 -1159 
Q 2131 -1347 1631 -1347 
Q 1038 -1347 672 -1080 
Q 306 -813 319 -275 
z
M 784 1719 
Q 784 1066 1043 766 
Q 1303 466 1694 466 
Q 2081 466 2343 764 
Q 2606 1063 2606 1700 
Q 2606 2309 2336 2618 
Q 2066 2928 1684 2928 
Q 1309 2928 1046 2623 
Q 784 2319 784 1719 
z
" transform="scale(0.015625)"/>
       <path id="ArialMT-70" d="M 422 -1272 
L 422 3319 
L 934 3319 
L 934 2888 
Q 1116 3141 1344 3267 
Q 1572 3394 1897 3394 
Q 2322 3394 2647 3175 
Q 2972 2956 3137 2557 
Q 3303 2159 3303 1684 
Q 3303 1175 3120 767 
Q 2938 359 2589 142 
Q 2241 -75 1856 -75 
Q 1575 -75 1351 44 
Q 1128 163 984 344 
L 984 -1272 
L 422 -1272 
z
M 931 1641 
Q 931 1000 1190 694 
Q 1450 388 1819 388 
Q 2194 388 2461 705 
Q 2728 1022 2728 1688 
Q 2728 2322 2467 2637 
Q 2206 2953 1844 2953 
Q 1484 2953 1207 2617 
Q 931 2281 931 1641 
z
" transform="scale(0.015625)"/>
       <path id="ArialMT-68" d="M 422 0 
L 422 4581 
L 984 4581 
L 984 2938 
Q 1378 3394 1978 3394 
Q 2347 3394 2619 3248 
Q 2891 3103 3008 2847 
Q 3125 2591 3125 2103 
L 3125 0 
L 2563 0 
L 2563 2103 
Q 2563 2525 2380 2717 
Q 2197 2909 1863 2909 
Q 1613 2909 1392 2779 
Q 1172 2650 1078 2428 
Q 984 2206 984 1816 
L 984 0 
L 422 0 
z
" transform="scale(0.015625)"/>
       <path id="ArialMT-20" transform="scale(0.015625)"/>
       <path id="ArialMT-49" d="M 597 0 
L 597 4581 
L 1203 4581 
L 1203 0 
L 597 0 
z
" transform="scale(0.015625)"/>
       <path id="ArialMT-6e" d="M 422 0 
L 422 3319 
L 928 3319 
L 928 2847 
Q 1294 3394 1984 3394 
Q 2284 3394 2536 3286 
Q 2788 3178 2913 3003 
Q 3038 2828 3088 2588 
Q 3119 2431 3119 2041 
L 3119 0 
L 2556 0 
L 2556 2019 
Q 2556 2363 2490 2533 
Q 2425 2703 2258 2804 
Q 2091 2906 1866 2906 
Q 1506 2906 1245 2678 
Q 984 2450 984 1813 
L 984 0 
L 422 0 
z
" transform="scale(0.015625)"/>
       <path id="ArialMT-64" d="M 2575 0 
L 2575 419 
Q 2259 -75 1647 -75 
Q 1250 -75 917 144 
Q 584 363 401 755 
Q 219 1147 219 1656 
Q 219 2153 384 2558 
Q 550 2963 881 3178 
Q 1213 3394 1622 3394 
Q 1922 3394 2156 3267 
Q 2391 3141 2538 2938 
L 2538 4581 
L 3097 4581 
L 3097 0 
L 2575 0 
z
M 797 1656 
Q 797 1019 1065 703 
Q 1334 388 1700 388 
Q 2069 388 2326 689 
Q 2584 991 2584 1609 
Q 2584 2291 2321 2609 
Q 2059 2928 1675 2928 
Q 1300 2928 1048 2622 
Q 797 2316 797 1656 
z
" transform="scale(0.015625)"/>
       <path id="ArialMT-65" d="M 2694 1069 
L 3275 997 
Q 3138 488 2766 206 
Q 2394 -75 1816 -75 
Q 1088 -75 661 373 
Q 234 822 234 1631 
Q 234 2469 665 2931 
Q 1097 3394 1784 3394 
Q 2450 3394 2872 2941 
Q 3294 2488 3294 1666 
Q 3294 1616 3291 1516 
L 816 1516 
Q 847 969 1125 678 
Q 1403 388 1819 388 
Q 2128 388 2347 550 
Q 2566 713 2694 1069 
z
M 847 1978 
L 2700 1978 
Q 2663 2397 2488 2606 
Q 2219 2931 1791 2931 
Q 1403 2931 1139 2672 
Q 875 2413 847 1978 
z
" transform="scale(0.015625)"/>
       <path id="ArialMT-78" d="M 47 0 
L 1259 1725 
L 138 3319 
L 841 3319 
L 1350 2541 
Q 1494 2319 1581 2169 
Q 1719 2375 1834 2534 
L 2394 3319 
L 3066 3319 
L 1919 1756 
L 3153 0 
L 2463 0 
L 1781 1031 
L 1600 1309 
L 728 0 
L 47 0 
z
" transform="scale(0.015625)"/>
      </defs>
      <use xlink:href="#ArialMT-50"/>
      <use xlink:href="#ArialMT-61" x="66.699219"/>
      <use xlink:href="#ArialMT-72" x="122.314453"/>
      <use xlink:href="#ArialMT-61" x="155.615234"/>
      <use xlink:href="#ArialMT-67" x="211.230469"/>
      <use xlink:href="#ArialMT-72" x="266.845703"/>
      <use xlink:href="#ArialMT-61" x="300.146484"/>
      <use xlink:href="#ArialMT-70" x="355.761719"/>
      <use xlink:href="#ArialMT-68" x="411.376953"/>
      <use xlink:href="#ArialMT-20" x="466.992188"/>
      <use xlink:href="#ArialMT-49" x="494.775391"/>
      <use xlink:href="#ArialMT-6e" x="522.558594"/>
      <use xlink:href="#ArialMT-64" x="578.173828"/>
      <use xlink:href="#ArialMT-65" x="633.789062"/>
      <use xlink:href="#ArialMT-78" x="689.404297"/>
     </g>
    </g>
   </g>
   <g id="matplotlib.axis_2">
    <g id="ytick_1">
     <g id="line2d_87">
      <defs>
       <path id="m8cff697233" d="M 0 0 
L -3.5 0 
" style="stroke: #000000; stroke-width: 0.8"/>
      </defs>
      <g>
       <use xlink:href="#m8cff697233" x="111.505" y="636.903437" style="stroke: #000000; stroke-width: 0.8"/>
      </g>
     </g>
     <g id="text_20">
      <!-- -100 -->
      <g transform="translate(40.465 648.355937)scale(0.32 -0.32)">
       <defs>
        <path id="ArialMT-2d" d="M 203 1375 
L 203 1941 
L 1931 1941 
L 1931 1375 
L 203 1375 
z
" transform="scale(0.015625)"/>
       </defs>
       <use xlink:href="#ArialMT-2d"/>
       <use xlink:href="#ArialMT-31" x="33.300781"/>
       <use xlink:href="#ArialMT-30" x="88.916016"/>
       <use xlink:href="#ArialMT-30" x="144.53125"/>
      </g>
     </g>
    </g>
    <g id="ytick_2">
     <g id="line2d_88">
      <g>
       <use xlink:href="#m8cff697233" x="111.505" y="563.938437" style="stroke: #000000; stroke-width: 0.8"/>
      </g>
     </g>
     <g id="text_21">
      <!-- -75 -->
      <g transform="translate(58.26 575.390938)scale(0.32 -0.32)">
       <use xlink:href="#ArialMT-2d"/>
       <use xlink:href="#ArialMT-37" x="33.300781"/>
       <use xlink:href="#ArialMT-35" x="88.916016"/>
      </g>
     </g>
    </g>
    <g id="ytick_3">
     <g id="line2d_89">
      <g>
       <use xlink:href="#m8cff697233" x="111.505" y="490.973437" style="stroke: #000000; stroke-width: 0.8"/>
      </g>
     </g>
     <g id="text_22">
      <!-- -50 -->
      <g transform="translate(58.26 502.425937)scale(0.32 -0.32)">
       <use xlink:href="#ArialMT-2d"/>
       <use xlink:href="#ArialMT-35" x="33.300781"/>
       <use xlink:href="#ArialMT-30" x="88.916016"/>
      </g>
     </g>
    </g>
    <g id="ytick_4">
     <g id="line2d_90">
      <g>
       <use xlink:href="#m8cff697233" x="111.505" y="418.008438" style="stroke: #000000; stroke-width: 0.8"/>
      </g>
     </g>
     <g id="text_23">
      <!-- -25 -->
      <g transform="translate(58.26 429.460938)scale(0.32 -0.32)">
       <use xlink:href="#ArialMT-2d"/>
       <use xlink:href="#ArialMT-32" x="33.300781"/>
       <use xlink:href="#ArialMT-35" x="88.916016"/>
      </g>
     </g>
    </g>
    <g id="ytick_5">
     <g id="line2d_91">
      <g>
       <use xlink:href="#m8cff697233" x="111.505" y="345.043437" style="stroke: #000000; stroke-width: 0.8"/>
      </g>
     </g>
     <g id="text_24">
      <!-- 0 -->
      <g transform="translate(86.71 356.495937)scale(0.32 -0.32)">
       <use xlink:href="#ArialMT-30"/>
      </g>
     </g>
    </g>
    <g id="ytick_6">
     <g id="line2d_92">
      <g>
       <use xlink:href="#m8cff697233" x="111.505" y="272.078437" style="stroke: #000000; stroke-width: 0.8"/>
      </g>
     </g>
     <g id="text_25">
      <!-- 25 -->
      <g transform="translate(68.915 283.530937)scale(0.32 -0.32)">
       <use xlink:href="#ArialMT-32"/>
       <use xlink:href="#ArialMT-35" x="55.615234"/>
      </g>
     </g>
    </g>
    <g id="ytick_7">
     <g id="line2d_93">
      <g>
       <use xlink:href="#m8cff697233" x="111.505" y="199.113437" style="stroke: #000000; stroke-width: 0.8"/>
      </g>
     </g>
     <g id="text_26">
      <!-- 50 -->
      <g transform="translate(68.915 210.565938)scale(0.32 -0.32)">
       <use xlink:href="#ArialMT-35"/>
       <use xlink:href="#ArialMT-30" x="55.615234"/>
      </g>
     </g>
    </g>
    <g id="ytick_8">
     <g id="line2d_94">
      <g>
       <use xlink:href="#m8cff697233" x="111.505" y="126.148437" style="stroke: #000000; stroke-width: 0.8"/>
      </g>
     </g>
     <g id="text_27">
      <!-- 75 -->
      <g transform="translate(68.915 137.600937)scale(0.32 -0.32)">
       <use xlink:href="#ArialMT-37"/>
       <use xlink:href="#ArialMT-35" x="55.615234"/>
      </g>
     </g>
    </g>
    <g id="ytick_9">
     <g id="line2d_95">
      <g>
       <use xlink:href="#m8cff697233" x="111.505" y="53.183437" style="stroke: #000000; stroke-width: 0.8"/>
      </g>
     </g>
     <g id="text_28">
      <!-- 100 -->
      <g transform="translate(51.12 64.635937)scale(0.32 -0.32)">
       <use xlink:href="#ArialMT-31"/>
       <use xlink:href="#ArialMT-30" x="55.615234"/>
       <use xlink:href="#ArialMT-30" x="111.230469"/>
      </g>
     </g>
    </g>
    <g id="text_29">
     <!-- Relative % -->
     <g transform="translate(30.105 421.518438)rotate(-90)scale(0.32 -0.32)">
      <defs>
       <path id="ArialMT-52" d="M 503 0 
L 503 4581 
L 2534 4581 
Q 3147 4581 3465 4457 
Q 3784 4334 3975 4021 
Q 4166 3709 4166 3331 
Q 4166 2844 3850 2509 
Q 3534 2175 2875 2084 
Q 3116 1969 3241 1856 
Q 3506 1613 3744 1247 
L 4541 0 
L 3778 0 
L 3172 953 
Q 2906 1366 2734 1584 
Q 2563 1803 2427 1890 
Q 2291 1978 2150 2013 
Q 2047 2034 1813 2034 
L 1109 2034 
L 1109 0 
L 503 0 
z
M 1109 2559 
L 2413 2559 
Q 2828 2559 3062 2645 
Q 3297 2731 3419 2920 
Q 3541 3109 3541 3331 
Q 3541 3656 3305 3865 
Q 3069 4075 2559 4075 
L 1109 4075 
L 1109 2559 
z
" transform="scale(0.015625)"/>
       <path id="ArialMT-6c" d="M 409 0 
L 409 4581 
L 972 4581 
L 972 0 
L 409 0 
z
" transform="scale(0.015625)"/>
       <path id="ArialMT-74" d="M 1650 503 
L 1731 6 
Q 1494 -44 1306 -44 
Q 1000 -44 831 53 
Q 663 150 594 308 
Q 525 466 525 972 
L 525 2881 
L 113 2881 
L 113 3319 
L 525 3319 
L 525 4141 
L 1084 4478 
L 1084 3319 
L 1650 3319 
L 1650 2881 
L 1084 2881 
L 1084 941 
Q 1084 700 1114 631 
Q 1144 563 1211 522 
Q 1278 481 1403 481 
Q 1497 481 1650 503 
z
" transform="scale(0.015625)"/>
       <path id="ArialMT-69" d="M 425 3934 
L 425 4581 
L 988 4581 
L 988 3934 
L 425 3934 
z
M 425 0 
L 425 3319 
L 988 3319 
L 988 0 
L 425 0 
z
" transform="scale(0.015625)"/>
       <path id="ArialMT-76" d="M 1344 0 
L 81 3319 
L 675 3319 
L 1388 1331 
Q 1503 1009 1600 663 
Q 1675 925 1809 1294 
L 2547 3319 
L 3125 3319 
L 1869 0 
L 1344 0 
z
" transform="scale(0.015625)"/>
       <path id="ArialMT-25" d="M 372 3481 
Q 372 3972 619 4315 
Q 866 4659 1334 4659 
Q 1766 4659 2048 4351 
Q 2331 4044 2331 3447 
Q 2331 2866 2045 2552 
Q 1759 2238 1341 2238 
Q 925 2238 648 2547 
Q 372 2856 372 3481 
z
M 1350 4272 
Q 1141 4272 1002 4090 
Q 863 3909 863 3425 
Q 863 2984 1003 2804 
Q 1144 2625 1350 2625 
Q 1563 2625 1702 2806 
Q 1841 2988 1841 3469 
Q 1841 3913 1700 4092 
Q 1559 4272 1350 4272 
z
M 1353 -169 
L 3859 4659 
L 4316 4659 
L 1819 -169 
L 1353 -169 
z
M 3334 1075 
Q 3334 1569 3581 1911 
Q 3828 2253 4300 2253 
Q 4731 2253 5014 1945 
Q 5297 1638 5297 1041 
Q 5297 459 5011 145 
Q 4725 -169 4303 -169 
Q 3888 -169 3611 142 
Q 3334 453 3334 1075 
z
M 4316 1866 
Q 4103 1866 3964 1684 
Q 3825 1503 3825 1019 
Q 3825 581 3965 400 
Q 4106 219 4313 219 
Q 4528 219 4667 400 
Q 4806 581 4806 1063 
Q 4806 1506 4665 1686 
Q 4525 1866 4316 1866 
z
" transform="scale(0.015625)"/>
      </defs>
      <use xlink:href="#ArialMT-52"/>
      <use xlink:href="#ArialMT-65" x="72.216797"/>
      <use xlink:href="#ArialMT-6c" x="127.832031"/>
      <use xlink:href="#ArialMT-61" x="150.048828"/>
      <use xlink:href="#ArialMT-74" x="205.664062"/>
      <use xlink:href="#ArialMT-69" x="233.447266"/>
      <use xlink:href="#ArialMT-76" x="255.664062"/>
      <use xlink:href="#ArialMT-65" x="305.664062"/>
      <use xlink:href="#ArialMT-20" x="361.279297"/>
      <use xlink:href="#ArialMT-25" x="389.0625"/>
     </g>
    </g>
   </g>
   <g id="line2d_96">
    <path d="M 111.505 345.043437 
L 2110.881552 345.043437 
" clip-path="url(#pcd28b8ff60)" style="fill: none; stroke: #000000; stroke-width: 2; stroke-linecap: square"/>
   </g>
   <g id="line2d_97">
    <path d="M 111.505 376.854983 
L 2110.881552 376.854983 
" clip-path="url(#pcd28b8ff60)" style="fill: none; stroke-dasharray: 18.5,8; stroke-dashoffset: 0; stroke: #90ee90; stroke-opacity: 0.7; stroke-width: 5"/>
   </g>
   <g id="line2d_98">
    <path d="M 111.505 230.865571 
L 2110.881552 230.865571 
" clip-path="url(#pcd28b8ff60)" style="fill: none; stroke-dasharray: 18.5,8; stroke-dashoffset: 0; stroke: #f08080; stroke-opacity: 0.7; stroke-width: 5"/>
   </g>
   <g id="patch_175">
    <path d="M 111.505 636.903437 
L 111.505 53.183437 
" style="fill: none; stroke: #000000; stroke-width: 0.8; stroke-linejoin: miter; stroke-linecap: square"/>
   </g>
   <g id="patch_176">
    <path d="M 2110.881552 636.903437 
L 2110.881552 53.183437 
" style="fill: none; stroke: #000000; stroke-width: 0.8; stroke-linejoin: miter; stroke-linecap: square"/>
   </g>
   <g id="patch_177">
    <path d="M 111.505 636.903437 
L 2110.881552 636.903437 
" style="fill: none; stroke: #000000; stroke-width: 0.8; stroke-linejoin: miter; stroke-linecap: square"/>
   </g>
   <g id="patch_178">
    <path d="M 111.505 53.183437 
L 2110.881552 53.183437 
" style="fill: none; stroke: #000000; stroke-width: 0.8; stroke-linejoin: miter; stroke-linecap: square"/>
   </g>
   <g id="text_30">
    <!-- ScoredBy72B:-10.90 % -->
    <g style="fill: #008000" transform="translate(1755.130414 520.159437)scale(0.32 -0.32)">
     <defs>
      <path id="ArialMT-53" d="M 288 1472 
L 859 1522 
Q 900 1178 1048 958 
Q 1197 738 1509 602 
Q 1822 466 2213 466 
Q 2559 466 2825 569 
Q 3091 672 3220 851 
Q 3350 1031 3350 1244 
Q 3350 1459 3225 1620 
Q 3100 1781 2813 1891 
Q 2628 1963 1997 2114 
Q 1366 2266 1113 2400 
Q 784 2572 623 2826 
Q 463 3081 463 3397 
Q 463 3744 659 4045 
Q 856 4347 1234 4503 
Q 1613 4659 2075 4659 
Q 2584 4659 2973 4495 
Q 3363 4331 3572 4012 
Q 3781 3694 3797 3291 
L 3216 3247 
Q 3169 3681 2898 3903 
Q 2628 4125 2100 4125 
Q 1550 4125 1298 3923 
Q 1047 3722 1047 3438 
Q 1047 3191 1225 3031 
Q 1400 2872 2139 2705 
Q 2878 2538 3153 2413 
Q 3553 2228 3743 1945 
Q 3934 1663 3934 1294 
Q 3934 928 3725 604 
Q 3516 281 3123 101 
Q 2731 -78 2241 -78 
Q 1619 -78 1198 103 
Q 778 284 539 648 
Q 300 1013 288 1472 
z
" transform="scale(0.015625)"/>
      <path id="ArialMT-63" d="M 2588 1216 
L 3141 1144 
Q 3050 572 2676 248 
Q 2303 -75 1759 -75 
Q 1078 -75 664 370 
Q 250 816 250 1647 
Q 250 2184 428 2587 
Q 606 2991 970 3192 
Q 1334 3394 1763 3394 
Q 2303 3394 2647 3120 
Q 2991 2847 3088 2344 
L 2541 2259 
Q 2463 2594 2264 2762 
Q 2066 2931 1784 2931 
Q 1359 2931 1093 2626 
Q 828 2322 828 1663 
Q 828 994 1084 691 
Q 1341 388 1753 388 
Q 2084 388 2306 591 
Q 2528 794 2588 1216 
z
" transform="scale(0.015625)"/>
      <path id="ArialMT-6f" d="M 213 1659 
Q 213 2581 725 3025 
Q 1153 3394 1769 3394 
Q 2453 3394 2887 2945 
Q 3322 2497 3322 1706 
Q 3322 1066 3130 698 
Q 2938 331 2570 128 
Q 2203 -75 1769 -75 
Q 1072 -75 642 372 
Q 213 819 213 1659 
z
M 791 1659 
Q 791 1022 1069 705 
Q 1347 388 1769 388 
Q 2188 388 2466 706 
Q 2744 1025 2744 1678 
Q 2744 2294 2464 2611 
Q 2184 2928 1769 2928 
Q 1347 2928 1069 2612 
Q 791 2297 791 1659 
z
" transform="scale(0.015625)"/>
      <path id="ArialMT-42" d="M 469 0 
L 469 4581 
L 2188 4581 
Q 2713 4581 3030 4442 
Q 3347 4303 3526 4014 
Q 3706 3725 3706 3409 
Q 3706 3116 3547 2856 
Q 3388 2597 3066 2438 
Q 3481 2316 3704 2022 
Q 3928 1728 3928 1328 
Q 3928 1006 3792 729 
Q 3656 453 3456 303 
Q 3256 153 2954 76 
Q 2653 0 2216 0 
L 469 0 
z
M 1075 2656 
L 2066 2656 
Q 2469 2656 2644 2709 
Q 2875 2778 2992 2937 
Q 3109 3097 3109 3338 
Q 3109 3566 3000 3739 
Q 2891 3913 2687 3977 
Q 2484 4041 1991 4041 
L 1075 4041 
L 1075 2656 
z
M 1075 541 
L 2216 541 
Q 2509 541 2628 563 
Q 2838 600 2978 687 
Q 3119 775 3209 942 
Q 3300 1109 3300 1328 
Q 3300 1584 3169 1773 
Q 3038 1963 2805 2039 
Q 2572 2116 2134 2116 
L 1075 2116 
L 1075 541 
z
" transform="scale(0.015625)"/>
      <path id="ArialMT-79" d="M 397 -1278 
L 334 -750 
Q 519 -800 656 -800 
Q 844 -800 956 -737 
Q 1069 -675 1141 -563 
Q 1194 -478 1313 -144 
Q 1328 -97 1363 -6 
L 103 3319 
L 709 3319 
L 1400 1397 
Q 1534 1031 1641 628 
Q 1738 1016 1872 1384 
L 2581 3319 
L 3144 3319 
L 1881 -56 
Q 1678 -603 1566 -809 
Q 1416 -1088 1222 -1217 
Q 1028 -1347 759 -1347 
Q 597 -1347 397 -1278 
z
" transform="scale(0.015625)"/>
      <path id="ArialMT-3a" d="M 578 2678 
L 578 3319 
L 1219 3319 
L 1219 2678 
L 578 2678 
z
M 578 0 
L 578 641 
L 1219 641 
L 1219 0 
L 578 0 
z
" transform="scale(0.015625)"/>
      <path id="ArialMT-2e" d="M 581 0 
L 581 641 
L 1222 641 
L 1222 0 
L 581 0 
z
" transform="scale(0.015625)"/>
      <path id="ArialMT-39" d="M 350 1059 
L 891 1109 
Q 959 728 1153 556 
Q 1347 384 1650 384 
Q 1909 384 2104 503 
Q 2300 622 2425 820 
Q 2550 1019 2634 1356 
Q 2719 1694 2719 2044 
Q 2719 2081 2716 2156 
Q 2547 1888 2255 1720 
Q 1963 1553 1622 1553 
Q 1053 1553 659 1965 
Q 266 2378 266 3053 
Q 266 3750 677 4175 
Q 1088 4600 1706 4600 
Q 2153 4600 2523 4359 
Q 2894 4119 3086 3673 
Q 3278 3228 3278 2384 
Q 3278 1506 3087 986 
Q 2897 466 2520 194 
Q 2144 -78 1638 -78 
Q 1100 -78 759 220 
Q 419 519 350 1059 
z
M 2653 3081 
Q 2653 3566 2395 3850 
Q 2138 4134 1775 4134 
Q 1400 4134 1122 3828 
Q 844 3522 844 3034 
Q 844 2597 1108 2323 
Q 1372 2050 1759 2050 
Q 2150 2050 2401 2323 
Q 2653 2597 2653 3081 
z
" transform="scale(0.015625)"/>
     </defs>
     <use xlink:href="#ArialMT-53"/>
     <use xlink:href="#ArialMT-63" x="66.699219"/>
     <use xlink:href="#ArialMT-6f" x="116.699219"/>
     <use xlink:href="#ArialMT-72" x="172.314453"/>
     <use xlink:href="#ArialMT-65" x="205.615234"/>
     <use xlink:href="#ArialMT-64" x="261.230469"/>
     <use xlink:href="#ArialMT-42" x="316.845703"/>
     <use xlink:href="#ArialMT-79" x="383.544922"/>
     <use xlink:href="#ArialMT-37" x="433.544922"/>
     <use xlink:href="#ArialMT-32" x="489.160156"/>
     <use xlink:href="#ArialMT-42" x="544.775391"/>
     <use xlink:href="#ArialMT-3a" x="611.474609"/>
     <use xlink:href="#ArialMT-2d" x="639.257812"/>
     <use xlink:href="#ArialMT-31" x="672.558594"/>
     <use xlink:href="#ArialMT-30" x="728.173828"/>
     <use xlink:href="#ArialMT-2e" x="783.789062"/>
     <use xlink:href="#ArialMT-39" x="811.572266"/>
     <use xlink:href="#ArialMT-30" x="867.1875"/>
     <use xlink:href="#ArialMT-20" x="922.802734"/>
     <use xlink:href="#ArialMT-25" x="950.585938"/>
    </g>
   </g>
   <g id="text_31">
    <!-- ScoredBy7B:39.12 % -->
    <g style="fill: #ff0000" transform="translate(1755.130414 593.124437)scale(0.32 -0.32)">
     <use xlink:href="#ArialMT-53"/>
     <use xlink:href="#ArialMT-63" x="66.699219"/>
     <use xlink:href="#ArialMT-6f" x="116.699219"/>
     <use xlink:href="#ArialMT-72" x="172.314453"/>
     <use xlink:href="#ArialMT-65" x="205.615234"/>
     <use xlink:href="#ArialMT-64" x="261.230469"/>
     <use xlink:href="#ArialMT-42" x="316.845703"/>
     <use xlink:href="#ArialMT-79" x="383.544922"/>
     <use xlink:href="#ArialMT-37" x="433.544922"/>
     <use xlink:href="#ArialMT-42" x="489.160156"/>
     <use xlink:href="#ArialMT-3a" x="555.859375"/>
     <use xlink:href="#ArialMT-33" x="583.642578"/>
     <use xlink:href="#ArialMT-39" x="639.257812"/>
     <use xlink:href="#ArialMT-2e" x="694.873047"/>
     <use xlink:href="#ArialMT-31" x="722.65625"/>
     <use xlink:href="#ArialMT-32" x="778.271484"/>
     <use xlink:href="#ArialMT-20" x="833.886719"/>
     <use xlink:href="#ArialMT-25" x="861.669922"/>
    </g>
   </g>
   <g id="text_32">
    <!-- Relative Score % (vs Human) - ScoredBy72B vs ScoredBy7B -->
    <g transform="translate(444.012338 42.870469)scale(0.49 -0.49)">
     <defs>
      <path id="ArialMT-28" d="M 1497 -1347 
Q 1031 -759 709 28 
Q 388 816 388 1659 
Q 388 2403 628 3084 
Q 909 3875 1497 4659 
L 1900 4659 
Q 1522 4009 1400 3731 
Q 1209 3300 1100 2831 
Q 966 2247 966 1656 
Q 966 153 1900 -1347 
L 1497 -1347 
z
" transform="scale(0.015625)"/>
      <path id="ArialMT-73" d="M 197 991 
L 753 1078 
Q 800 744 1014 566 
Q 1228 388 1613 388 
Q 2000 388 2187 545 
Q 2375 703 2375 916 
Q 2375 1106 2209 1216 
Q 2094 1291 1634 1406 
Q 1016 1563 777 1677 
Q 538 1791 414 1992 
Q 291 2194 291 2438 
Q 291 2659 392 2848 
Q 494 3038 669 3163 
Q 800 3259 1026 3326 
Q 1253 3394 1513 3394 
Q 1903 3394 2198 3281 
Q 2494 3169 2634 2976 
Q 2775 2784 2828 2463 
L 2278 2388 
Q 2241 2644 2061 2787 
Q 1881 2931 1553 2931 
Q 1166 2931 1000 2803 
Q 834 2675 834 2503 
Q 834 2394 903 2306 
Q 972 2216 1119 2156 
Q 1203 2125 1616 2013 
Q 2213 1853 2448 1751 
Q 2684 1650 2818 1456 
Q 2953 1263 2953 975 
Q 2953 694 2789 445 
Q 2625 197 2315 61 
Q 2006 -75 1616 -75 
Q 969 -75 630 194 
Q 291 463 197 991 
z
" transform="scale(0.015625)"/>
      <path id="ArialMT-48" d="M 513 0 
L 513 4581 
L 1119 4581 
L 1119 2700 
L 3500 2700 
L 3500 4581 
L 4106 4581 
L 4106 0 
L 3500 0 
L 3500 2159 
L 1119 2159 
L 1119 0 
L 513 0 
z
" transform="scale(0.015625)"/>
      <path id="ArialMT-75" d="M 2597 0 
L 2597 488 
Q 2209 -75 1544 -75 
Q 1250 -75 995 37 
Q 741 150 617 320 
Q 494 491 444 738 
Q 409 903 409 1263 
L 409 3319 
L 972 3319 
L 972 1478 
Q 972 1038 1006 884 
Q 1059 663 1231 536 
Q 1403 409 1656 409 
Q 1909 409 2131 539 
Q 2353 669 2445 892 
Q 2538 1116 2538 1541 
L 2538 3319 
L 3100 3319 
L 3100 0 
L 2597 0 
z
" transform="scale(0.015625)"/>
      <path id="ArialMT-6d" d="M 422 0 
L 422 3319 
L 925 3319 
L 925 2853 
Q 1081 3097 1340 3245 
Q 1600 3394 1931 3394 
Q 2300 3394 2536 3241 
Q 2772 3088 2869 2813 
Q 3263 3394 3894 3394 
Q 4388 3394 4653 3120 
Q 4919 2847 4919 2278 
L 4919 0 
L 4359 0 
L 4359 2091 
Q 4359 2428 4304 2576 
Q 4250 2725 4106 2815 
Q 3963 2906 3769 2906 
Q 3419 2906 3187 2673 
Q 2956 2441 2956 1928 
L 2956 0 
L 2394 0 
L 2394 2156 
Q 2394 2531 2256 2718 
Q 2119 2906 1806 2906 
Q 1569 2906 1367 2781 
Q 1166 2656 1075 2415 
Q 984 2175 984 1722 
L 984 0 
L 422 0 
z
" transform="scale(0.015625)"/>
      <path id="ArialMT-29" d="M 791 -1347 
L 388 -1347 
Q 1322 153 1322 1656 
Q 1322 2244 1188 2822 
Q 1081 3291 891 3722 
Q 769 4003 388 4659 
L 791 4659 
Q 1378 3875 1659 3084 
Q 1900 2403 1900 1659 
Q 1900 816 1576 28 
Q 1253 -759 791 -1347 
z
" transform="scale(0.015625)"/>
     </defs>
     <use xlink:href="#ArialMT-52"/>
     <use xlink:href="#ArialMT-65" x="72.216797"/>
     <use xlink:href="#ArialMT-6c" x="127.832031"/>
     <use xlink:href="#ArialMT-61" x="150.048828"/>
     <use xlink:href="#ArialMT-74" x="205.664062"/>
     <use xlink:href="#ArialMT-69" x="233.447266"/>
     <use xlink:href="#ArialMT-76" x="255.664062"/>
     <use xlink:href="#ArialMT-65" x="305.664062"/>
     <use xlink:href="#ArialMT-20" x="361.279297"/>
     <use xlink:href="#ArialMT-53" x="389.0625"/>
     <use xlink:href="#ArialMT-63" x="455.761719"/>
     <use xlink:href="#ArialMT-6f" x="505.761719"/>
     <use xlink:href="#ArialMT-72" x="561.376953"/>
     <use xlink:href="#ArialMT-65" x="594.677734"/>
     <use xlink:href="#ArialMT-20" x="650.292969"/>
     <use xlink:href="#ArialMT-25" x="678.076172"/>
     <use xlink:href="#ArialMT-20" x="766.992188"/>
     <use xlink:href="#ArialMT-28" x="794.775391"/>
     <use xlink:href="#ArialMT-76" x="828.076172"/>
     <use xlink:href="#ArialMT-73" x="878.076172"/>
     <use xlink:href="#ArialMT-20" x="928.076172"/>
     <use xlink:href="#ArialMT-48" x="955.859375"/>
     <use xlink:href="#ArialMT-75" x="1028.076172"/>
     <use xlink:href="#ArialMT-6d" x="1083.691406"/>
     <use xlink:href="#ArialMT-61" x="1166.992188"/>
     <use xlink:href="#ArialMT-6e" x="1222.607422"/>
     <use xlink:href="#ArialMT-29" x="1278.222656"/>
     <use xlink:href="#ArialMT-20" x="1311.523438"/>
     <use xlink:href="#ArialMT-2d" x="1339.306641"/>
     <use xlink:href="#ArialMT-20" x="1372.607422"/>
     <use xlink:href="#ArialMT-53" x="1400.390625"/>
     <use xlink:href="#ArialMT-63" x="1467.089844"/>
     <use xlink:href="#ArialMT-6f" x="1517.089844"/>
     <use xlink:href="#ArialMT-72" x="1572.705078"/>
     <use xlink:href="#ArialMT-65" x="1606.005859"/>
     <use xlink:href="#ArialMT-64" x="1661.621094"/>
     <use xlink:href="#ArialMT-42" x="1717.236328"/>
     <use xlink:href="#ArialMT-79" x="1783.935547"/>
     <use xlink:href="#ArialMT-37" x="1833.935547"/>
     <use xlink:href="#ArialMT-32" x="1889.550781"/>
     <use xlink:href="#ArialMT-42" x="1945.166016"/>
     <use xlink:href="#ArialMT-20" x="2011.865234"/>
     <use xlink:href="#ArialMT-76" x="2039.648438"/>
     <use xlink:href="#ArialMT-73" x="2089.648438"/>
     <use xlink:href="#ArialMT-20" x="2139.648438"/>
     <use xlink:href="#ArialMT-53" x="2167.431641"/>
     <use xlink:href="#ArialMT-63" x="2234.130859"/>
     <use xlink:href="#ArialMT-6f" x="2284.130859"/>
     <use xlink:href="#ArialMT-72" x="2339.746094"/>
     <use xlink:href="#ArialMT-65" x="2373.046875"/>
     <use xlink:href="#ArialMT-64" x="2428.662109"/>
     <use xlink:href="#ArialMT-42" x="2484.277344"/>
     <use xlink:href="#ArialMT-79" x="2550.976562"/>
     <use xlink:href="#ArialMT-37" x="2600.976562"/>
     <use xlink:href="#ArialMT-42" x="2656.591797"/>
    </g>
   </g>
   <g id="legend_1">
    <g id="patch_179">
     <path d="M 615.619759 626.145037 
L 1388.699759 626.145037 
Q 1395.099759 626.145037 1395.099759 619.745037 
L 1395.099759 530.885037 
Q 1395.099759 524.485037 1388.699759 524.485037 
L 615.619759 524.485037 
Q 609.219759 524.485037 609.219759 530.885037 
L 609.219759 619.745037 
Q 609.219759 626.145037 615.619759 626.145037 
z
" style="fill: #ffffff; opacity: 0.8; stroke: #cccccc; stroke-linejoin: miter"/>
    </g>
    <g id="line2d_99">
     <path d="M 622.019759 549.380037 
L 654.019759 549.380037 
L 686.019759 549.380037 
" style="fill: none; stroke-dasharray: 18.5,8; stroke-dashoffset: 0; stroke: #90ee90; stroke-opacity: 0.7; stroke-width: 5"/>
    </g>
    <g id="text_33">
     <!-- ScoredBy72B Average -->
     <g transform="translate(711.619759 560.580038)scale(0.32 -0.32)">
      <defs>
       <path id="ArialMT-41" d="M -9 0 
L 1750 4581 
L 2403 4581 
L 4278 0 
L 3588 0 
L 3053 1388 
L 1138 1388 
L 634 0 
L -9 0 
z
M 1313 1881 
L 2866 1881 
L 2388 3150 
Q 2169 3728 2063 4100 
Q 1975 3659 1816 3225 
L 1313 1881 
z
" transform="scale(0.015625)"/>
      </defs>
      <use xlink:href="#ArialMT-53"/>
      <use xlink:href="#ArialMT-63" x="66.699219"/>
      <use xlink:href="#ArialMT-6f" x="116.699219"/>
      <use xlink:href="#ArialMT-72" x="172.314453"/>
      <use xlink:href="#ArialMT-65" x="205.615234"/>
      <use xlink:href="#ArialMT-64" x="261.230469"/>
      <use xlink:href="#ArialMT-42" x="316.845703"/>
      <use xlink:href="#ArialMT-79" x="383.544922"/>
      <use xlink:href="#ArialMT-37" x="433.544922"/>
      <use xlink:href="#ArialMT-32" x="489.160156"/>
      <use xlink:href="#ArialMT-42" x="544.775391"/>
      <use xlink:href="#ArialMT-20" x="611.474609"/>
      <use xlink:href="#ArialMT-41" x="633.757812"/>
      <use xlink:href="#ArialMT-76" x="698.707031"/>
      <use xlink:href="#ArialMT-65" x="748.707031"/>
      <use xlink:href="#ArialMT-72" x="804.322266"/>
      <use xlink:href="#ArialMT-61" x="837.623047"/>
      <use xlink:href="#ArialMT-67" x="893.238281"/>
      <use xlink:href="#ArialMT-65" x="948.853516"/>
     </g>
    </g>
    <g id="line2d_100">
     <path d="M 622.019759 595.410037 
L 654.019759 595.410037 
L 686.019759 595.410037 
" style="fill: none; stroke-dasharray: 18.5,8; stroke-dashoffset: 0; stroke: #f08080; stroke-opacity: 0.7; stroke-width: 5"/>
    </g>
    <g id="text_34">
     <!-- ScoredBy7B Average -->
     <g transform="translate(711.619759 606.610037)scale(0.32 -0.32)">
      <use xlink:href="#ArialMT-53"/>
      <use xlink:href="#ArialMT-63" x="66.699219"/>
      <use xlink:href="#ArialMT-6f" x="116.699219"/>
      <use xlink:href="#ArialMT-72" x="172.314453"/>
      <use xlink:href="#ArialMT-65" x="205.615234"/>
      <use xlink:href="#ArialMT-64" x="261.230469"/>
      <use xlink:href="#ArialMT-42" x="316.845703"/>
      <use xlink:href="#ArialMT-79" x="383.544922"/>
      <use xlink:href="#ArialMT-37" x="433.544922"/>
      <use xlink:href="#ArialMT-42" x="489.160156"/>
      <use xlink:href="#ArialMT-20" x="555.859375"/>
      <use xlink:href="#ArialMT-41" x="578.142578"/>
      <use xlink:href="#ArialMT-76" x="643.091797"/>
      <use xlink:href="#ArialMT-65" x="693.091797"/>
      <use xlink:href="#ArialMT-72" x="748.707031"/>
      <use xlink:href="#ArialMT-61" x="782.007812"/>
      <use xlink:href="#ArialMT-67" x="837.623047"/>
      <use xlink:href="#ArialMT-65" x="893.238281"/>
     </g>
    </g>
    <g id="patch_180">
     <path d="M 1097.034759 560.580038 
L 1161.034759 560.580038 
L 1161.034759 538.180038 
L 1097.034759 538.180038 
z
" style="fill: #90ee90"/>
    </g>
    <g id="text_35">
     <!-- ScoredBy72B -->
     <g transform="translate(1186.634759 560.580038)scale(0.32 -0.32)">
      <use xlink:href="#ArialMT-53"/>
      <use xlink:href="#ArialMT-63" x="66.699219"/>
      <use xlink:href="#ArialMT-6f" x="116.699219"/>
      <use xlink:href="#ArialMT-72" x="172.314453"/>
      <use xlink:href="#ArialMT-65" x="205.615234"/>
      <use xlink:href="#ArialMT-64" x="261.230469"/>
      <use xlink:href="#ArialMT-42" x="316.845703"/>
      <use xlink:href="#ArialMT-79" x="383.544922"/>
      <use xlink:href="#ArialMT-37" x="433.544922"/>
      <use xlink:href="#ArialMT-32" x="489.160156"/>
      <use xlink:href="#ArialMT-42" x="544.775391"/>
     </g>
    </g>
    <g id="patch_181">
     <path d="M 1097.034759 606.610037 
L 1161.034759 606.610037 
L 1161.034759 584.210037 
L 1097.034759 584.210037 
z
" style="fill: #f08080"/>
    </g>
    <g id="text_36">
     <!-- ScoredBy7B -->
     <g transform="translate(1186.634759 606.610037)scale(0.32 -0.32)">
      <use xlink:href="#ArialMT-53"/>
      <use xlink:href="#ArialMT-63" x="66.699219"/>
      <use xlink:href="#ArialMT-6f" x="116.699219"/>
      <use xlink:href="#ArialMT-72" x="172.314453"/>
      <use xlink:href="#ArialMT-65" x="205.615234"/>
      <use xlink:href="#ArialMT-64" x="261.230469"/>
      <use xlink:href="#ArialMT-42" x="316.845703"/>
      <use xlink:href="#ArialMT-79" x="383.544922"/>
      <use xlink:href="#ArialMT-37" x="433.544922"/>
      <use xlink:href="#ArialMT-42" x="489.160156"/>
     </g>
    </g>
   </g>
  </g>
 </g>
 <defs>
  <clipPath id="pcd28b8ff60">
   <rect x="111.505" y="53.183437" width="1999.376552" height="583.72"/>
  </clipPath>
 </defs>
</svg>
